<svg width="177" height="120" viewBox="0 0 177 120" fill="none" xmlns="http://www.w3.org/2000/svg">
<path d="M88.9138 120C106.693 120 121.105 115.846 121.105 110.722C121.105 105.599 106.693 101.445 88.9138 101.445C71.1351 101.445 56.7227 105.599 56.7227 110.722C56.7227 115.846 71.1351 120 88.9138 120Z" fill="#F1F1F1"/>
<path d="M7.69066 109.311V99.2111L30.8178 66.1305H44.7965V98.4792H50.7979V109.311H44.7965V118.825H32.2815V109.311H7.69066ZM33.1598 79.8897L20.8643 98.4792H33.1598V79.8897Z" fill="#019AFF"/>
<path d="M126.642 109.309V99.2096L149.769 66.129H163.748V98.4777H169.749V109.309H163.748V118.824H151.233V109.309H126.642ZM152.111 79.8882L139.816 98.4777H152.111V79.8882Z" fill="#019AFF"/>
<path d="M75.4854 73.1976C78.8813 67.8211 82.5913 64.2321 86.6153 62.4305C90.6707 60.6486 95.0185 61.2074 99.659 64.1071C104.299 67.0067 106.677 70.6504 106.792 75.0381C106.938 79.4454 105.313 84.3373 101.917 89.7139C98.4814 95.1529 94.736 98.7634 90.6807 100.545C86.6567 102.347 82.3245 101.798 77.6841 98.8982C73.0436 95.9985 70.6504 92.3451 70.5043 87.9378C70.3896 83.55 72.0499 78.6367 75.4854 73.1976ZM94.0156 84.7766C96.0098 81.6195 97.195 78.9814 97.5714 76.8624C97.9675 74.7121 97.0839 72.9611 94.9204 71.6092C92.757 70.2573 90.7874 70.2255 89.0117 71.5137C87.2558 72.7707 85.3807 74.9777 83.3866 78.1349C82.044 80.2605 81.0539 82.105 80.4163 83.6684C79.7984 85.2005 79.5893 86.6393 79.7889 87.9847C80.0397 89.3185 80.9176 90.4556 82.4226 91.3961C83.9276 92.3365 85.3229 92.6198 86.6084 92.246C87.9451 91.8606 89.1732 91.0586 90.2928 89.8399C91.4321 88.59 92.6731 86.9022 94.0156 84.7766Z" fill="#9397A0"/>
<path d="M88.9176 39.0508C100.333 39.0508 109.587 31.5299 109.587 22.2525C109.587 12.975 100.333 5.4541 88.9176 5.4541C77.5021 5.4541 68.248 12.975 68.248 22.2525C68.248 31.5299 77.5021 39.0508 88.9176 39.0508Z" fill="#DFDFDF"/>
<path opacity="0.15" d="M109.584 22.2525C109.584 31.5256 100.332 39.0463 88.9144 39.0463C88.0117 39.048 87.1096 39.0016 86.2119 38.9074C96.3553 37.8317 104.183 30.7816 104.183 22.2525C104.183 13.7233 96.3553 6.67319 86.2119 5.59304C87.1098 5.50109 88.0118 5.45472 88.9144 5.4541C100.332 5.4541 109.584 12.9748 109.584 22.2525Z" fill="white"/>
<path opacity="0.5" d="M80.0059 9.45117C80.0059 9.45117 70.9525 13.6821 70.8174 23.278H76.8079C76.8079 23.278 74.4928 16.6582 80.0059 9.45117Z" fill="white"/>
<path d="M137.617 32.3113C137.807 32.422 137.964 32.5801 138.073 32.77C138.183 32.9599 138.24 33.1749 138.24 33.3937C138.24 33.6125 138.183 33.8275 138.073 34.0173C137.964 34.2072 137.807 34.3653 137.617 34.4761C131.789 37.9048 112.191 48.3029 88.9138 48.3029C65.6363 48.3029 46.0388 37.9048 40.2104 34.4761C40.0219 34.3645 39.8657 34.206 39.7573 34.0163C39.6488 33.8265 39.5918 33.612 39.5918 33.3937C39.5918 33.1754 39.6488 32.9608 39.7573 32.7711C39.8657 32.5813 40.0219 32.4229 40.2104 32.3113C46.0388 28.8826 65.6363 18.48 88.9138 18.48C112.191 18.48 131.793 28.8826 137.617 32.3113Z" fill="#019AFF"/>
<path d="M118.342 36.9631C118.453 37.0061 118.547 37.0813 118.614 37.1789C118.681 37.2764 118.717 37.3918 118.717 37.5099C118.717 37.628 118.681 37.7434 118.614 37.8409C118.547 37.9385 118.453 38.0137 118.342 38.0567C114.82 39.7912 102.978 45.0486 88.9164 45.0486C74.8544 45.0486 63.013 39.7912 59.4952 38.0567C59.3847 38.0137 59.2898 37.9385 59.2228 37.8409C59.1559 37.7434 59.1201 37.628 59.1201 37.5099C59.1201 37.3918 59.1559 37.2764 59.2228 37.1789C59.2898 37.0813 59.3847 37.0061 59.4952 36.9631C63.013 35.2286 74.8544 29.9668 88.9164 29.9668C102.978 29.9668 114.82 35.2286 118.342 36.9631Z" fill="#4D4D4D"/>
<path d="M137.613 34.4761L137.122 34.7629C130.744 31.0832 111.57 21.2229 88.9276 21.2229C66.2853 21.2229 47.0931 31.0832 40.7332 34.7629L40.2377 34.4761C40.0492 34.3645 39.893 34.206 39.7846 34.0163C39.6762 33.8265 39.6191 33.612 39.6191 33.3937C39.6191 33.1754 39.6762 32.9608 39.7846 32.7711C39.893 32.5813 40.0492 32.4229 40.2377 32.3113C46.0661 28.8826 65.6637 18.48 88.9411 18.48C112.219 18.48 131.789 28.8826 137.613 32.3113C137.803 32.422 137.96 32.5801 138.069 32.77C138.178 32.9599 138.236 33.1749 138.236 33.3937C138.236 33.6125 138.178 33.8275 138.069 34.0173C137.96 34.2072 137.803 34.3653 137.613 34.4761Z" fill="#4D4D4D"/>
<path d="M88.9193 43.932C95.6855 43.932 101.171 42.4371 101.171 40.593C101.171 38.7489 95.6855 37.2539 88.9193 37.2539C82.1531 37.2539 76.668 38.7489 76.668 40.593C76.668 42.4371 82.1531 43.932 88.9193 43.932Z" fill="#019AFF"/>
<path d="M100.231 40.75C100.231 42.368 95.1598 43.6768 88.9035 43.6768C82.6472 43.6768 77.5801 42.368 77.5801 40.75C77.5801 39.1321 82.6518 37.8188 88.9035 37.8188C95.1553 37.8188 100.231 39.1321 100.231 40.75Z" fill="#F1F1F1"/>
<path d="M57.8927 32.4277C58.1449 33.0149 57.3432 33.9202 56.091 34.4536C54.8389 34.9869 53.6318 34.9466 53.3885 34.3595C53.1453 33.7723 53.938 32.8625 55.1902 32.3291C56.4424 31.7958 57.6134 31.8406 57.8927 32.4277Z" fill="#F1F1F1"/>
<path d="M71.3128 28.2587C71.4705 28.8772 70.5336 29.6481 69.2229 29.9843C67.9122 30.3204 66.7141 30.0874 66.5564 29.4689C66.3988 28.8504 67.3312 28.075 68.6464 27.7433C69.9616 27.4116 71.1507 27.6402 71.3128 28.2587Z" fill="#F1F1F1"/>
<path d="M84.695 25.7497C84.7671 26.3817 83.7311 27.0226 82.3844 27.1705C81.0377 27.3184 79.8891 26.933 79.817 26.2741C79.745 25.6153 80.7764 25.0013 82.1232 24.8489C83.4699 24.6965 84.623 25.1133 84.695 25.7497Z" fill="#F1F1F1"/>
<path d="M119.966 32.4277C119.709 33.0149 120.515 33.9202 121.767 34.4536C123.019 34.9869 124.227 34.9466 124.47 34.3595C124.713 33.7723 123.92 32.8625 122.668 32.3291C121.416 31.7958 120.218 31.8406 119.966 32.4277Z" fill="#F1F1F1"/>
<path d="M106.534 28.2587C106.372 28.8772 107.309 29.6481 108.624 29.9843C109.939 30.3204 111.128 30.0874 111.29 29.4689C111.452 28.8504 110.511 28.075 109.2 27.7433C107.89 27.4116 106.678 27.6402 106.534 28.2587Z" fill="#F1F1F1"/>
<path d="M93.1417 25.7496C93.0651 26.3815 94.1011 27.0224 95.4478 27.1703C96.7946 27.3183 97.9431 26.9328 98.0152 26.274C98.0872 25.6151 97.0783 25.0235 95.7271 24.8711C94.3758 24.7187 93.2137 25.1131 93.1417 25.7496Z" fill="#F1F1F1"/>
<path d="M120.619 109.104L100.228 40.7451H77.5904L57.2091 109.104C56.9123 109.594 56.745 110.15 56.7227 110.722C56.7227 115.845 71.1359 119.999 88.9138 119.999C106.692 119.999 120.893 115.84 121.105 110.722C121.107 110.147 120.938 109.584 120.619 109.104Z" fill="#019AFF" fill-opacity="0.12"/>
<path opacity="0.25" d="M103.978 110.826C94.0988 113.211 83.4446 113.211 73.5654 110.826C83.4446 108.44 94.0988 108.44 103.978 110.826Z" fill="#9397A0"/>
<path d="M61 107.363C61.7462 107.827 62.3249 108.515 62.6523 109.327C62.9723 110.133 63.2056 110.969 63.3484 111.824C64.2478 109.811 65.8913 108.219 67.9381 107.378C67.1711 108.713 66.665 110.18 66.4464 111.702C67.1618 111.023 68.0805 110.596 69.0626 110.484C70.0388 110.378 71.0238 110.378 72 110.484L70.1182 111.694C69.6313 111.973 69.1986 112.337 68.8407 112.768C68.6119 113.111 68.4269 113.482 68.29 113.871L67.0278 117.114C66.6224 118.172 66.0716 119.276 64.7789 119.352C64.3474 119.392 63.9126 119.326 63.5126 119.16C63.1125 118.994 62.7594 118.733 62.484 118.4C62.1197 117.632 62.0124 116.768 62.178 115.934C62.2816 114.559 62.2509 113.178 62.0862 111.809C61.9868 111.047 61.8491 110.286 61.6732 109.525C61.5737 109.167 61.3442 107.561 61 107.363Z" fill="#9397A0"/>
<path d="M110.953 116.372C110.054 115.782 109.055 115.348 108 115.09C108.684 114.937 109.382 114.853 110.084 114.84C110.79 114.824 111.484 115.014 112.076 115.386L111.363 112.182C112.084 113.016 112.634 113.975 112.982 115.007C113.135 114.116 113.505 113.272 114.062 112.545C114.094 113.542 114.089 114.539 114.062 115.536C114.21 115.122 114.465 114.751 114.805 114.459C115.144 114.167 115.556 113.964 116 113.869C115.425 114.39 115.069 115.096 115.001 115.853C114.939 116.605 114.923 117.359 114.953 118.112C114.959 118.258 114.937 118.404 114.888 118.543C114.813 118.697 114.695 118.828 114.548 118.922C114.198 119.145 113.773 119.229 113.36 119.156C112.821 119.057 112.75 118.865 112.583 118.398C112.259 117.583 111.692 116.878 110.953 116.372Z" fill="#9397A0"/>
<path d="M152.401 37.3516C152.162 37.3516 151.934 37.4458 151.765 37.6136C151.597 37.7813 151.502 38.0088 151.502 38.246C151.502 38.4833 151.597 38.7108 151.765 38.8785C151.934 39.0463 152.162 39.1405 152.401 39.1405C152.639 39.1405 152.868 39.0463 153.037 38.8785C153.205 38.7108 153.3 38.4833 153.3 38.246C153.3 38.0088 153.205 37.7813 153.037 37.6136C152.868 37.4458 152.639 37.3516 152.401 37.3516Z" fill="#019AFF"/>
<path d="M141.202 10.4609C140.669 10.4609 140.158 10.6717 139.781 11.0467C139.404 11.4218 139.192 11.9305 139.192 12.4609C139.192 12.9914 139.404 13.5001 139.781 13.8752C140.158 14.2502 140.669 14.4609 141.202 14.4609C141.735 14.4609 142.247 14.2502 142.624 13.8752C143 13.5001 143.212 12.9914 143.212 12.4609C143.212 11.9305 143 11.4218 142.624 11.0467C142.247 10.6717 141.735 10.4609 141.202 10.4609Z" fill="#019AFF"/>
<path d="M66.5985 0C66.4193 0 66.2474 0.0708301 66.1207 0.19691C65.994 0.322989 65.9229 0.49399 65.9229 0.672293C65.9229 0.850596 65.994 1.0216 66.1207 1.14767C66.2474 1.27375 66.4193 1.34459 66.5985 1.34459C66.7777 1.34459 66.9495 1.27375 67.0762 1.14767C67.2029 1.0216 67.2741 0.850596 67.2741 0.672293C67.2741 0.49399 67.2029 0.322989 67.0762 0.19691C66.9495 0.0708301 66.7777 0 66.5985 0Z" fill="#019AFF"/>
<path d="M20.8296 15.6963C20.5912 15.6963 20.3625 15.7905 20.1939 15.9583C20.0254 16.126 19.9307 16.3535 19.9307 16.5908C19.9307 16.828 20.0254 17.0555 20.1939 17.2233C20.3625 17.391 20.5912 17.4853 20.8296 17.4853C21.068 17.4853 21.2966 17.391 21.4652 17.2233C21.6338 17.0555 21.7285 16.828 21.7285 16.5908C21.7285 16.3535 21.6338 16.126 21.4652 15.9583C21.2966 15.7905 21.068 15.6963 20.8296 15.6963Z" fill="#019AFF"/>
<path d="M19.591 43.0044C19.0579 43.0044 18.5467 43.2151 18.1697 43.5902C17.7928 43.9653 17.5811 44.474 17.5811 45.0044C17.5811 45.5348 17.7928 46.0435 18.1697 46.4186C18.5467 46.7937 19.0579 47.0044 19.591 47.0044C20.124 47.0044 20.6353 46.7937 21.0122 46.4186C21.3891 46.0435 21.6009 45.5348 21.6009 45.0044C21.6009 44.474 21.3891 43.9653 21.0122 43.5902C20.6353 43.2151 20.124 43.0044 19.591 43.0044Z" fill="#019AFF"/>
<path d="M173.078 72.0117C172.72 72.0117 172.377 72.1531 172.124 72.4047C171.872 72.6563 171.729 72.9976 171.729 73.3534C171.729 73.7093 171.872 74.0506 172.124 74.3022C172.377 74.5538 172.72 74.6952 173.078 74.6952C173.435 74.6952 173.778 74.5538 174.031 74.3022C174.284 74.0506 174.426 73.7093 174.426 73.3534C174.426 72.9976 174.284 72.6563 174.031 72.4047C173.778 72.1531 173.435 72.0117 173.078 72.0117Z" fill="#019AFF"/>
<path d="M174.145 35.561C173.612 35.561 173.1 35.7717 172.723 36.1468C172.347 36.5219 172.135 37.0306 172.135 37.561C172.135 38.0915 172.347 38.6002 172.723 38.9753C173.1 39.3503 173.612 39.561 174.145 39.561C174.678 39.561 175.189 39.3503 175.566 38.9753C175.943 38.6002 176.155 38.0915 176.155 37.561C176.155 37.0306 175.943 36.5219 175.566 36.1468C175.189 35.7717 174.678 35.561 174.145 35.561Z" fill="#019AFF"/>
<path d="M175.741 5.37646C175.502 5.37646 175.274 5.4707 175.105 5.63845C174.936 5.8062 174.842 6.03372 174.842 6.27095C174.842 6.50818 174.936 6.7357 175.105 6.90345C175.274 7.07119 175.502 7.16544 175.741 7.16544C175.979 7.16544 176.208 7.07119 176.376 6.90345C176.545 6.7357 176.64 6.50818 176.64 6.27095C176.64 6.03372 176.545 5.8062 176.376 5.63845C176.208 5.4707 175.979 5.37646 175.741 5.37646Z" fill="#019AFF"/>
<path d="M1.03597 75.897C0.856788 75.897 0.68494 75.9678 0.558236 76.0939C0.431533 76.22 0.360352 76.391 0.360352 76.5693C0.360352 76.7476 0.431533 76.9186 0.558236 77.0447C0.68494 77.1707 0.856788 77.2416 1.03597 77.2416C1.21516 77.2416 1.38701 77.1707 1.51371 77.0447C1.64041 76.9186 1.7116 76.7476 1.7116 76.5693C1.7116 76.391 1.64041 76.22 1.51371 76.0939C1.38701 75.9678 1.21516 75.897 1.03597 75.897Z" fill="#019AFF"/>
<path d="M7.11009 4.78174C6.75248 4.78174 6.40952 4.9231 6.15665 5.17472C5.90378 5.42634 5.76172 5.76762 5.76172 6.12347C5.76172 6.47932 5.90378 6.82059 6.15665 7.07221C6.40952 7.32384 6.75248 7.4652 7.11009 7.4652C7.4677 7.4652 7.81067 7.32384 8.06354 7.07221C8.31641 6.82059 8.45847 6.47932 8.45847 6.12347C8.45847 5.76762 8.31641 5.42634 8.06354 5.17472C7.81067 4.9231 7.4677 4.78174 7.11009 4.78174Z" fill="#019AFF"/>
</svg>
