<svg width="290" height="240" viewBox="0 0 290 240" fill="none" xmlns="http://www.w3.org/2000/svg">
<path d="M73.8335 58.8951C73.8335 58.8951 21.0231 40.5889 5.23911 68.3968C-10.5449 96.2047 15.9539 127.781 22.9712 148.953C29.9885 170.125 9.9742 182.446 9.09951 210.411C25.7334 261.804 83.6937 228.163 123.793 231.536C181.139 236.36 219.437 245.914 258.105 234.914C268.116 232.066 284.148 205.47 254.244 182.375C224.34 159.28 240.739 119.063 264.185 103.523C287.631 87.983 310.915 46.2884 254.27 13.2657C197.626 -19.7569 142.467 15.8731 129.051 44.1177C115.635 72.3623 73.8335 58.8951 73.8335 58.8951Z" fill="#019AFF" fill-opacity="0.07"/>
<path d="M88.2186 36.0215H85.4648V86.4414H88.2186V36.0215Z" fill="#999999"/>
<path d="M88.2186 36.0215H85.4648V86.4414H88.2186V36.0215Z" fill="white"/>
<path d="M119.979 36.0215H117.226V86.4414H119.979V36.0215Z" fill="white"/>
<path d="M71.0016 86.8613H134.44C142.708 86.8613 149.411 93.564 149.411 101.832V202.952C149.411 211.22 142.708 217.923 134.44 217.923H71.0016C62.7334 217.923 56.0307 211.22 56.0307 202.952V101.832C56.0307 93.564 62.7334 86.8613 71.0016 86.8613Z" fill="#F1F1F1" stroke="#DFDFDF" stroke-width="1.00484"/>
<path d="M66.2512 141.54L66.2512 141.54C66.2504 141.11 66.3383 140.683 66.5101 140.285C66.6819 139.887 66.9344 139.525 67.2538 139.219C67.5732 138.913 67.9531 138.669 68.3721 138.503C68.7912 138.337 69.2407 138.251 69.695 138.251H136.299C137.217 138.251 138.096 138.6 138.742 139.218C139.388 139.836 139.749 140.672 139.749 141.54V212.749H66.2512L66.2512 141.54Z" fill="white" stroke="#DFDFDF" stroke-width="0.50242"/>
<path d="M65.07 208.911H55.4858C55.2801 208.911 55.0827 208.992 54.9372 209.138C54.7917 209.283 54.71 209.481 54.71 209.687C54.7116 212.001 55.6324 214.221 57.2697 215.857C58.9071 217.493 61.1271 218.412 63.4419 218.412H71.5187V215.347C71.5154 213.639 70.8345 212.002 69.6254 210.795C68.4164 209.588 66.7781 208.911 65.07 208.911Z" fill="#DFDFDF"/>
<path d="M140.349 208.911H149.939C150.145 208.911 150.342 208.992 150.488 209.138C150.633 209.283 150.715 209.481 150.715 209.687C150.713 212.001 149.793 214.221 148.155 215.857C146.518 217.493 144.298 218.412 141.983 218.412H133.906V215.347C133.91 213.64 134.59 212.004 135.797 210.797C137.005 209.591 138.642 208.912 140.349 208.911Z" fill="#DFDFDF"/>
<path d="M74.1833 218.418H68.6885V219.563H74.1833V218.418Z" fill="#4D4D4D"/>
<path d="M75.0538 219.563H67.8164V221.115H75.0538V219.563Z" fill="black"/>
<path d="M70.8058 231.19C73.3229 230.031 74.4236 227.051 73.2643 224.534C72.1049 222.017 69.1246 220.916 66.6074 222.075C64.0903 223.234 62.9896 226.215 64.149 228.732C65.3083 231.249 68.2887 232.35 70.8058 231.19Z" fill="black"/>
<path d="M74.5197 221.115H68.1599L66.322 225.293C66.0942 225.699 65.9759 226.157 65.9786 226.622C65.9773 227.233 66.1809 227.826 66.5568 228.308C66.9328 228.789 67.4593 229.13 68.0521 229.277C68.6449 229.423 69.2698 229.367 69.8266 229.116C70.3835 228.865 70.8402 228.435 71.1236 227.894L74.5197 221.115Z" fill="#4D4D4D"/>
<path d="M70.0685 226.623C70.0685 226.883 69.9913 227.138 69.8466 227.354C69.702 227.57 69.4964 227.739 69.2558 227.839C69.0152 227.939 68.7506 227.965 68.4952 227.914C68.2398 227.863 68.0052 227.738 67.8211 227.554C67.637 227.369 67.5116 227.135 67.4608 226.879C67.41 226.624 67.4361 226.359 67.5358 226.119C67.6354 225.878 67.8041 225.673 68.0206 225.528C68.2371 225.383 68.4916 225.306 68.752 225.306C69.1012 225.306 69.436 225.445 69.6829 225.692C69.9298 225.939 70.0685 226.273 70.0685 226.623Z" fill="white"/>
<path d="M131.097 219.569H136.592V218.425H131.097V219.569Z" fill="#4D4D4D"/>
<path d="M130.225 221.115H137.462V219.563H130.225V221.115Z" fill="black"/>
<path d="M141.191 228.528C142.256 225.97 141.046 223.032 138.488 221.967C135.929 220.902 132.992 222.112 131.926 224.67C130.861 227.228 132.071 230.166 134.629 231.231C137.188 232.297 140.125 231.087 141.191 228.528Z" fill="black"/>
<path d="M130.791 221.115H137.106L138.951 225.293C139.141 225.61 139.266 225.961 139.317 226.327C139.368 226.693 139.344 227.065 139.247 227.422C139.15 227.778 138.982 228.111 138.752 228.401C138.523 228.691 138.238 228.931 137.913 229.107C137.588 229.284 137.231 229.392 136.864 229.427C136.496 229.461 136.125 229.421 135.773 229.308C135.421 229.195 135.096 229.013 134.817 228.771C134.538 228.529 134.311 228.233 134.149 227.901L130.791 221.115Z" fill="#4D4D4D"/>
<path d="M135.25 226.623C135.25 226.883 135.327 227.138 135.472 227.355C135.617 227.571 135.823 227.74 136.064 227.839C136.305 227.939 136.57 227.965 136.826 227.913C137.081 227.862 137.316 227.736 137.5 227.551C137.683 227.367 137.808 227.131 137.858 226.876C137.908 226.62 137.882 226.355 137.781 226.114C137.68 225.874 137.511 225.669 137.293 225.525C137.076 225.381 136.821 225.305 136.56 225.306C136.388 225.306 136.217 225.34 136.057 225.407C135.898 225.473 135.753 225.57 135.631 225.692C135.51 225.814 135.413 225.96 135.348 226.119C135.282 226.279 135.249 226.45 135.25 226.623Z" fill="white"/>
<path d="M136.369 98.2524L136.376 98.2522C136.99 98.2348 137.584 98.4536 138.028 98.8583C138.471 99.2618 138.729 99.8167 138.749 100.401V124.698C138.729 125.256 138.482 125.785 138.058 126.17C137.633 126.557 137.065 126.765 136.479 126.748L136.479 126.748H136.471H68.5286V126.748L68.5212 126.748C67.9349 126.765 67.3669 126.557 66.9418 126.17C66.5179 125.785 66.2707 125.256 66.2512 124.698V100.401C66.2722 99.8166 66.5314 99.2616 66.9754 98.8581C67.4207 98.4535 68.0154 98.2347 68.6294 98.2522L68.6294 98.2523H68.6366L136.369 98.2524Z" fill="white" stroke="#DFDFDF" stroke-width="0.50242"/>
<path d="M55.5295 141.186V131.646C55.0887 131.646 54.6659 131.821 54.3536 132.132C54.0413 132.443 53.865 132.865 53.8633 133.306V139.551C53.8732 139.987 54.053 140.402 54.3642 140.707C54.6754 141.012 55.0936 141.184 55.5295 141.186Z" fill="#4D4D4D"/>
<path d="M55.5295 173.15V163.61C55.0881 163.612 54.6653 163.788 54.3532 164.1C54.041 164.412 53.865 164.835 53.8633 165.277V171.509C53.87 171.947 54.0485 172.364 54.3602 172.671C54.672 172.978 55.092 173.15 55.5295 173.15Z" fill="#4D4D4D"/>
<path d="M53.8631 133.039C53.8631 133.039 48.292 139.297 48.292 152.041C48.292 164.786 53.8631 171.35 53.8631 171.35V165.429C53.8631 165.429 51.4846 163.006 51.4846 152.073C51.4846 141.141 53.8631 139.449 53.8631 139.449V133.039Z" fill="#019AFF"/>
<path d="M91.5191 86.3596H81.9795C81.9795 86.1408 82.0226 85.9241 82.1063 85.722C82.1901 85.5198 82.3128 85.3361 82.4675 85.1814C82.6223 85.0267 82.8059 84.9039 83.0081 84.8202C83.2103 84.7365 83.4269 84.6934 83.6458 84.6934H89.8719C90.3105 84.6984 90.7295 84.8761 91.0378 85.1881C91.3462 85.5 91.5191 85.921 91.5191 86.3596Z" fill="#4D4D4D"/>
<path d="M123.49 86.3586H113.95C113.949 86.1401 113.992 85.9236 114.075 85.7215C114.158 85.5193 114.28 85.3356 114.434 85.1808C114.588 85.026 114.772 84.9031 114.973 84.8193C115.175 84.7355 115.392 84.6924 115.61 84.6924H121.843C122.281 84.6974 122.7 84.8752 123.009 85.1871C123.317 85.4991 123.49 85.92 123.49 86.3586Z" fill="#4D4D4D"/>
<path d="M83.3721 84.6922C83.3721 84.6922 89.6364 79.1338 102.375 79.1338C115.114 79.1338 121.664 84.7113 121.664 84.7113H115.743C115.743 84.7113 113.314 82.3137 102.375 82.3137C91.4362 82.3137 89.7827 84.6922 89.7827 84.6922H83.3721Z" fill="#019AFF"/>
<path d="M86 139H84V212H86V139Z" fill="#F1F1F1"/>
<path d="M119 139H117V212H119V139Z" fill="#F1F1F1"/>
<path d="M117.677 19.3525H87.7866C87.1771 19.3525 86.5925 19.5942 86.1609 20.0246C85.7294 20.455 85.4861 21.0389 85.4844 21.6484V35.9959H88.2381V23.6581C88.2397 23.2463 88.4023 22.8515 88.691 22.558C88.9798 22.2645 89.3719 22.0955 89.7836 22.0872H115.649C116.065 22.0872 116.465 22.2527 116.759 22.5473C117.054 22.8419 117.219 23.2415 117.219 23.6581V35.9959H119.973V21.6357C119.968 21.0295 119.724 20.4498 119.294 20.0223C118.865 19.5949 118.284 19.3542 117.677 19.3525Z" fill="#019AFF"/>
<path d="M188.742 232.937C225.01 232.937 254.411 203.536 254.411 167.268C254.411 131 225.01 101.599 188.742 101.599C152.473 101.599 123.072 131 123.072 167.268C123.072 203.536 152.473 232.937 188.742 232.937Z" fill="#F1F1F1"/>
<path d="M188.742 224.149C220.156 224.149 245.623 198.683 245.623 167.269C245.623 135.854 220.156 110.388 188.742 110.388C157.328 110.388 131.861 135.854 131.861 167.269C131.861 198.683 157.328 224.149 188.742 224.149Z" fill="white"/>
<path d="M187.405 116.53L187.321 127.178C187.314 128.138 188.086 128.923 189.046 128.93C190.007 128.938 190.791 128.165 190.799 127.205L190.882 116.558C190.89 115.597 190.118 114.813 189.157 114.805C188.197 114.798 187.412 115.57 187.405 116.53Z" fill="#DFDFDF"/>
<path d="M187.179 207.87L187.072 218.518C187.062 219.478 187.833 220.264 188.793 220.274C189.754 220.283 190.54 219.513 190.55 218.552L190.656 207.905C190.666 206.944 189.895 206.158 188.935 206.148C187.974 206.139 187.188 206.91 187.179 207.87Z" fill="#DFDFDF"/>
<path d="M228.83 165.848C227.869 165.84 227.085 166.613 227.077 167.573C227.07 168.533 227.842 169.318 228.802 169.325L239.45 169.409C240.41 169.416 241.194 168.644 241.202 167.684C241.21 166.723 240.437 165.939 239.477 165.931L228.83 165.848Z" fill="#DFDFDF"/>
<path d="M138.034 165.129C137.073 165.122 136.289 165.894 136.281 166.855C136.274 167.815 137.046 168.599 138.006 168.607L148.654 168.691C149.614 168.698 150.399 167.926 150.406 166.965C150.414 166.005 149.641 165.221 148.681 165.213L138.034 165.129Z" fill="#DFDFDF"/>
<path d="M212.389 128.775C213.349 128.775 214.128 127.996 214.128 127.036C214.128 126.076 213.349 125.297 212.389 125.297C211.429 125.297 210.65 126.076 210.65 127.036C210.65 127.996 211.429 128.775 212.389 128.775Z" fill="#DFDFDF"/>
<path d="M165.087 209.239C166.048 209.239 166.826 208.461 166.826 207.501C166.826 206.54 166.048 205.762 165.087 205.762C164.127 205.762 163.349 206.54 163.349 207.501C163.349 208.461 164.127 209.239 165.087 209.239Z" fill="#DFDFDF"/>
<path d="M229.334 145.992C230.295 145.992 231.073 145.214 231.073 144.253C231.073 143.293 230.295 142.515 229.334 142.515C228.374 142.515 227.596 143.293 227.596 144.253C227.596 145.214 228.374 145.992 229.334 145.992Z" fill="#DFDFDF"/>
<path d="M148.144 192.022C149.104 192.022 149.883 191.244 149.883 190.283C149.883 189.323 149.104 188.544 148.144 188.544C147.184 188.544 146.405 189.323 146.405 190.283C146.405 191.244 147.184 192.022 148.144 192.022Z" fill="#DFDFDF"/>
<path d="M228.969 192.654C229.93 192.654 230.708 191.876 230.708 190.916C230.708 189.955 229.93 189.177 228.969 189.177C228.009 189.177 227.23 189.955 227.23 190.916C227.23 191.876 228.009 192.654 228.969 192.654Z" fill="#DFDFDF"/>
<path d="M148.508 145.359C149.469 145.359 150.247 144.58 150.247 143.62C150.247 142.66 149.469 141.881 148.508 141.881C147.548 141.881 146.77 142.66 146.77 143.62C146.77 144.58 147.548 145.359 148.508 145.359Z" fill="#DFDFDF"/>
<path d="M211.759 209.606C212.72 209.606 213.498 208.828 213.498 207.868C213.498 206.907 212.72 206.129 211.759 206.129C210.799 206.129 210.021 206.907 210.021 207.868C210.021 208.828 210.799 209.606 211.759 209.606Z" fill="#DFDFDF"/>
<path d="M165.725 128.408C166.685 128.408 167.464 127.629 167.464 126.669C167.464 125.709 166.685 124.93 165.725 124.93C164.765 124.93 163.986 125.709 163.986 126.669C163.986 127.629 164.765 128.408 165.725 128.408Z" fill="#DFDFDF"/>
<path d="M206.383 154.199C211.58 152.169 235.847 141.73 235.847 141.73L235.936 141.894L236.113 142.223L236.201 142.388C236.201 142.388 214.122 156.899 209.544 160.104C204.966 163.31 188.824 168.356 188.824 168.356L188.527 167.812L188.35 167.483L188.053 166.933C188.053 166.933 201.192 156.222 206.383 154.199Z" fill="#019AFF"/>
<path d="M172.239 170.809C168.256 170.176 149.369 168.172 149.369 168.172V167.426C149.369 167.426 168.192 164.84 172.132 164.106C176.071 163.373 188.046 166.383 188.046 166.383V168.001C188.046 168.001 176.222 171.441 172.239 170.809Z" fill="#019AFF"/>
<path d="M188.743 170.745C190.664 170.745 192.221 169.188 192.221 167.268C192.221 165.347 190.664 163.79 188.743 163.79C186.823 163.79 185.266 165.347 185.266 167.268C185.266 169.188 186.823 170.745 188.743 170.745Z" fill="#DFDFDF"/>
<path d="M255.957 127.065C259.171 118.599 242.417 104.386 218.537 95.3198C194.657 86.2533 172.692 85.7662 169.478 94.2319C166.264 102.698 183.017 116.91 206.898 125.977C230.778 135.044 252.743 135.531 255.957 127.065Z" fill="#DFDFDF"/>
<path d="M214.22 110.508C199 105.294 191.81 96.665 191.81 96.665L190.795 100.587C190.668 101.224 190.7 101.883 190.89 102.504C191.079 103.125 191.419 103.69 191.879 104.148C195.317 107.993 202.015 112.93 210.167 116.299C216.804 119.037 228.14 119.806 233.654 118.352C236.992 117.476 237.592 112.884 237.592 112.884C237.592 112.884 224.264 113.961 214.22 110.508Z" fill="#4D4D4D"/>
<path d="M214.22 110.507C224.279 113.96 237.592 112.891 237.592 112.891L237.553 113.099C237.592 113.045 237.63 112.991 237.661 112.937C239.184 110.332 240.126 107.429 240.422 104.426C240.719 101.423 240.362 98.3919 239.378 95.5395C238.393 92.6872 236.804 90.0815 234.718 87.9009C232.632 85.7202 230.1 84.0163 227.294 82.9058C214.22 77.5224 202.907 75.5075 195.947 88.0354C195.64 88.5891 191.825 96.6718 191.825 96.6718L193.233 98.1407C195.97 100.832 202.853 106.616 214.22 110.507Z" fill="#DFDFDF"/>
</svg>
