<svg width="288" height="240" viewBox="0 0 288 240" fill="none" xmlns="http://www.w3.org/2000/svg">
<path d="M73.1766 58.6114C73.1766 58.6114 20.6205 40.3934 4.9126 68.0673C-10.7953 95.7412 15.5758 127.165 22.5593 148.235C29.5428 169.306 9.62488 181.568 8.7544 209.397C25.3082 260.542 82.9893 227.063 122.895 230.42C179.965 235.221 218.079 244.73 256.56 233.782C266.523 230.948 282.478 204.48 252.718 181.496C222.958 158.512 239.278 118.49 262.611 103.024C285.944 87.5592 309.116 46.0654 252.744 13.2018C196.373 -19.6618 141.48 15.7966 128.128 43.9052C114.776 72.0137 73.1766 58.6114 73.1766 58.6114Z" fill="#019AFF" fill-opacity="0.07"/>
<path d="M41.0272 41.7998H221.901C224.509 41.7998 227.009 42.8344 228.855 44.6765C230.7 46.5186 231.739 49.0176 231.744 51.625V215.512C231.744 218.122 230.707 220.626 228.861 222.472C227.015 224.318 224.512 225.355 221.901 225.355H41.0272C38.4168 225.355 35.9133 224.318 34.0674 222.472L33.7139 222.825L34.0674 222.472C32.2216 220.626 31.1846 218.122 31.1846 215.512V51.6424C31.1846 49.032 32.2216 46.5285 34.0674 44.6826C35.9133 42.8368 38.4168 41.7998 41.0272 41.7998ZM79.0872 58.2195C80.099 58.897 81.2889 59.2593 82.5066 59.2606C83.3158 59.2614 84.1173 59.1028 84.8652 58.7937C85.6131 58.4846 86.2927 58.0312 86.8652 57.4593C87.4378 56.8874 87.892 56.2082 88.2018 55.4607C88.5117 54.7131 88.6712 53.9118 88.6712 53.1026C88.6712 51.8849 88.3102 50.6946 87.6339 49.682C86.9575 48.6695 85.9961 47.8802 84.8713 47.4139C83.7465 46.9476 82.5086 46.8253 81.3143 47.0624C80.1199 47.2995 79.0227 47.8853 78.1612 48.7458C77.2997 49.6064 76.7127 50.703 76.4743 51.8971C76.236 53.0912 76.357 54.3292 76.822 55.4545C77.2871 56.5799 78.0754 57.5421 79.0872 58.2195ZM177.038 58.2195C178.05 58.897 179.24 59.2593 180.457 59.2606C181.266 59.2614 182.068 59.1028 182.816 58.7937C183.564 58.4846 184.243 58.0312 184.816 57.4593C185.388 56.8874 185.843 56.2082 186.152 55.4607C186.462 54.7131 186.622 53.9118 186.622 53.1026C186.622 51.8849 186.261 50.6946 185.584 49.682C184.908 48.6695 183.947 47.8802 182.822 47.4139C181.697 46.9476 180.459 46.8253 179.265 47.0624C178.071 47.2995 176.973 47.8853 176.112 48.7458C175.25 49.6064 174.663 50.703 174.425 51.8971C174.187 53.0912 174.308 54.3292 174.773 55.4545C175.238 56.5799 176.026 57.5421 177.038 58.2195Z" fill="white" stroke="#F1F1F1"/>
<path d="M118.14 117.507H93.3301V135.899H118.14V117.507Z" fill="#F1F1F1"/>
<path d="M143.346 117.507H118.536V135.899H143.346V117.507Z" fill="#F1F1F1"/>
<path d="M92.7164 117.507H67.9062V135.899H92.7164V117.507Z" fill="#F1F1F1"/>
<path d="M221.901 41.2998H41.0272C38.2841 41.2998 35.6535 42.3895 33.7139 44.3291C31.7742 46.2687 30.6846 48.8994 30.6846 51.6424V67.1442H232.226V51.6242C232.221 48.8875 231.131 46.2642 229.196 44.3291C227.261 42.3939 224.638 41.3046 221.901 41.2998ZM82.5071 58.7606C81.3883 58.7594 80.295 58.4265 79.3654 57.8041C78.4357 57.1816 77.7115 56.2975 77.2841 55.2636C76.8568 54.2296 76.7457 53.0921 76.9647 51.995C77.1837 50.8979 77.723 49.8903 78.5145 49.0996C79.3061 48.3089 80.3142 47.7706 81.4116 47.5528C82.509 47.335 83.6463 47.4474 84.6798 47.8758C85.7134 48.3042 86.5967 49.0294 87.2181 49.9598C87.8395 50.8901 88.1712 51.9838 88.1712 53.1026C88.1712 53.8461 88.0247 54.5823 87.74 55.2692C87.4552 55.956 87.0379 56.58 86.5119 57.1055C85.9858 57.631 85.3614 58.0476 84.6742 58.3316C83.9871 58.6156 83.2507 58.7614 82.5071 58.7606ZM180.458 58.7606C179.339 58.7594 178.246 58.4265 177.316 57.8041C176.386 57.1816 175.662 56.2975 175.235 55.2636C174.807 54.2296 174.696 53.0921 174.915 51.995C175.134 50.8979 175.674 49.8903 176.465 49.0996C177.257 48.3089 178.265 47.7706 179.362 47.5528C180.46 47.335 181.597 47.4474 182.63 47.8758C183.664 48.3042 184.547 49.0294 185.169 49.9598C185.79 50.8901 186.122 51.9838 186.122 53.1026C186.122 53.8461 185.975 54.5823 185.691 55.2692C185.406 55.956 184.989 56.58 184.462 57.1055C183.936 57.631 183.312 58.0476 182.625 58.3316C181.938 58.6156 181.201 58.7614 180.458 58.7606Z" fill="#019AFF"/>
<path d="M221.403 213.171H41.5205V91.6089H221.403V213.171ZM42.2749 212.423H220.654V92.3572H42.2749V212.423Z" fill="#F9F9F9"/>
<path d="M221.031 116.771H41.8975V117.507H221.031V116.771Z" fill="#F9F9F9"/>
<path d="M221.031 135.905H41.8975V136.641H221.031V135.905Z" fill="#F9F9F9"/>
<path d="M221.031 155.033H41.8975V155.769H221.031V155.033Z" fill="#F9F9F9"/>
<path d="M221.031 174.167H41.8975V174.903H221.031V174.167Z" fill="#F9F9F9"/>
<path d="M221.031 193.294H41.8975V194.031H221.031V193.294Z" fill="#F9F9F9"/>
<path d="M67.7955 91.9795H67.0654V212.793H67.7955V91.9795Z" fill="#F9F9F9"/>
<path d="M93.3355 91.9795H92.6055V212.793H93.3355V91.9795Z" fill="#F9F9F9"/>
<path d="M118.877 91.9795H118.146V212.793H118.877V91.9795Z" fill="#F9F9F9"/>
<path d="M144.417 91.9795H143.687V212.793H144.417V91.9795Z" fill="#F9F9F9"/>
<path d="M169.956 91.9795H169.226V212.793H169.956V91.9795Z" fill="#F9F9F9"/>
<path d="M195.497 91.9795H194.767V212.793H195.497V91.9795Z" fill="#F9F9F9"/>
<path d="M85.5487 122.703L78.8564 129.395L75.8145 126.353" stroke="#019AFF" stroke-width="1.5" stroke-linecap="round" stroke-linejoin="round"/>
<path d="M111.71 122.703L105.018 129.395L101.976 126.353" stroke="#019AFF" stroke-width="1.5" stroke-linecap="round" stroke-linejoin="round"/>
<path d="M137.263 122.703L130.57 129.395L127.528 126.353" stroke="#019AFF" stroke-width="1.5" stroke-linecap="round" stroke-linejoin="round"/>
<path d="M53.6602 129.378C53.3143 129.378 53.006 129.318 52.7352 129.199C52.4661 129.081 52.2521 128.916 52.0931 128.704C51.9359 128.491 51.8502 128.244 51.8363 127.962H52.4967C52.5107 128.135 52.5701 128.285 52.6749 128.411C52.7797 128.535 52.9169 128.631 53.0863 128.699C53.2558 128.767 53.4436 128.801 53.6498 128.801C53.8804 128.801 54.0848 128.761 54.263 128.681C54.4412 128.6 54.581 128.488 54.6823 128.345C54.7836 128.202 54.8343 128.036 54.8343 127.847C54.8343 127.65 54.7854 127.476 54.6875 127.326C54.5897 127.174 54.4464 127.055 54.2578 126.969C54.0691 126.884 53.8384 126.841 53.5659 126.841H53.1361V126.264H53.5659C53.779 126.264 53.966 126.226 54.1267 126.149C54.2892 126.072 54.4159 125.964 54.5067 125.824C54.5993 125.684 54.6456 125.52 54.6456 125.331C54.6456 125.15 54.6054 124.992 54.5251 124.857C54.4447 124.722 54.3311 124.618 54.1844 124.543C54.0394 124.467 53.8681 124.43 53.6707 124.43C53.4855 124.43 53.3108 124.464 53.1466 124.532C52.9841 124.598 52.8513 124.695 52.7483 124.823C52.6452 124.949 52.5893 125.101 52.5805 125.279H51.9516C51.9621 124.998 52.0468 124.751 52.2058 124.54C52.3648 124.327 52.5727 124.161 52.8295 124.042C53.0881 123.923 53.372 123.864 53.6812 123.864C54.0132 123.864 54.2979 123.931 54.5355 124.066C54.7731 124.198 54.9557 124.374 55.0833 124.592C55.2108 124.811 55.2746 125.047 55.2746 125.3C55.2746 125.602 55.1951 125.86 55.0361 126.073C54.8788 126.286 54.6648 126.434 54.394 126.516V126.558C54.733 126.614 54.9977 126.758 55.1881 126.99C55.3785 127.221 55.4737 127.506 55.4737 127.847C55.4737 128.139 55.3942 128.401 55.2353 128.633C55.078 128.864 54.8631 129.046 54.5906 129.178C54.318 129.311 54.0079 129.378 53.6602 129.378Z" fill="#DFDFDF"/>
<path d="M58.4325 123.937V129.304H57.7825V124.619H57.7511L56.4408 125.489V124.828L57.7825 123.937H58.4325Z" fill="#DFDFDF"/>
<path d="M53.5973 148.572C53.2025 148.572 52.8662 148.465 52.5884 148.25C52.3106 148.033 52.0983 147.72 51.9516 147.309C51.8048 146.897 51.7314 146.399 51.7314 145.815C51.7314 145.235 51.8048 144.74 51.9516 144.329C52.1001 143.917 52.3132 143.603 52.591 143.386C52.8706 143.168 53.206 143.058 53.5973 143.058C53.9887 143.058 54.3233 143.168 54.6011 143.386C54.8806 143.603 55.0937 143.917 55.2405 144.329C55.389 144.74 55.4633 145.235 55.4633 145.815C55.4633 146.399 55.3899 146.897 55.2431 147.309C55.0964 147.72 54.8841 148.033 54.6063 148.25C54.3285 148.465 53.9922 148.572 53.5973 148.572ZM53.5973 147.996C53.9887 147.996 54.2927 147.807 54.5093 147.43C54.726 147.052 54.8343 146.514 54.8343 145.815C54.8343 145.351 54.7845 144.955 54.6849 144.628C54.5871 144.301 54.4456 144.052 54.2604 143.881C54.0769 143.71 53.8559 143.624 53.5973 143.624C53.2095 143.624 52.9064 143.816 52.688 144.198C52.4696 144.579 52.3604 145.118 52.3604 145.815C52.3604 146.28 52.4093 146.675 52.5072 147C52.605 147.325 52.7456 147.572 52.9291 147.741C53.1143 147.911 53.337 147.996 53.5973 147.996Z" fill="#DFDFDF"/>
<path d="M56.4827 148.499L58.8832 143.75V143.708H56.1158V143.132H59.5541V143.74L57.1641 148.499H56.4827Z" fill="#DFDFDF"/>
<path d="M78.9429 148.572C78.5481 148.572 78.2118 148.465 77.934 148.25C77.6562 148.033 77.4439 147.72 77.2971 147.309C77.1504 146.897 77.077 146.399 77.077 145.815C77.077 145.235 77.1504 144.74 77.2971 144.329C77.4457 143.917 77.6588 143.603 77.9366 143.386C78.2161 143.168 78.5516 143.058 78.9429 143.058C79.3343 143.058 79.6688 143.168 79.9466 143.386C80.2262 143.603 80.4393 143.917 80.5861 144.329C80.7346 144.74 80.8088 145.235 80.8088 145.815C80.8088 146.399 80.7354 146.897 80.5887 147.309C80.4419 147.72 80.2297 148.033 79.9519 148.25C79.6741 148.465 79.3378 148.572 78.9429 148.572ZM78.9429 147.996C79.3343 147.996 79.6383 147.807 79.8549 147.43C80.0715 147.052 80.1799 146.514 80.1799 145.815C80.1799 145.351 80.1301 144.955 80.0305 144.628C79.9327 144.301 79.7911 144.052 79.6059 143.881C79.4225 143.71 79.2015 143.624 78.9429 143.624C78.5551 143.624 78.2519 143.816 78.0336 144.198C77.8152 144.579 77.706 145.118 77.706 145.815C77.706 146.28 77.7549 146.675 77.8527 147C77.9506 147.325 78.0912 147.572 78.2747 147.741C78.4598 147.911 78.6826 147.996 78.9429 147.996Z" fill="#9397A0"/>
<path d="M83.5238 148.572C83.1639 148.572 82.8459 148.508 82.5699 148.381C82.2956 148.252 82.0816 148.074 81.9278 147.849C81.7741 147.622 81.6981 147.363 81.6998 147.073C81.6981 146.846 81.7426 146.636 81.8335 146.444C81.9243 146.25 82.0484 146.089 82.2056 145.959C82.3646 145.828 82.5419 145.745 82.7376 145.71V145.679C82.4808 145.613 82.2764 145.468 82.1244 145.247C81.9724 145.023 81.8973 144.769 81.899 144.484C81.8973 144.211 81.9663 143.968 82.106 143.753C82.2458 143.538 82.438 143.368 82.6826 143.244C82.9289 143.12 83.2093 143.058 83.5238 143.058C83.8348 143.058 84.1126 143.12 84.3572 143.244C84.6018 143.368 84.794 143.538 84.9337 143.753C85.0752 143.968 85.1469 144.211 85.1486 144.484C85.1469 144.769 85.0691 145.023 84.9154 145.247C84.7634 145.468 84.5616 145.613 84.31 145.679V145.71C84.5039 145.745 84.6787 145.828 84.8341 145.959C84.9896 146.089 85.1137 146.25 85.2063 146.444C85.2989 146.636 85.346 146.846 85.3478 147.073C85.346 147.363 85.2674 147.622 85.1119 147.849C84.9582 148.074 84.7442 148.252 84.4699 148.381C84.1973 148.508 83.882 148.572 83.5238 148.572ZM83.5238 147.996C83.7667 147.996 83.9763 147.956 84.1528 147.878C84.3292 147.799 84.4655 147.688 84.5616 147.545C84.6577 147.402 84.7066 147.234 84.7084 147.042C84.7066 146.839 84.6542 146.66 84.5511 146.504C84.448 146.349 84.3074 146.227 84.1292 146.138C83.9527 146.048 83.7509 146.004 83.5238 146.004C83.2949 146.004 83.0905 146.048 82.9106 146.138C82.7324 146.227 82.5917 146.349 82.4887 146.504C82.3873 146.66 82.3375 146.839 82.3393 147.042C82.3375 147.234 82.3838 147.402 82.4782 147.545C82.5743 147.688 82.7114 147.799 82.8896 147.878C83.0678 147.956 83.2792 147.996 83.5238 147.996ZM83.5238 145.448C83.716 145.448 83.8863 145.41 84.0348 145.333C84.1851 145.256 84.303 145.149 84.3886 145.011C84.4742 144.873 84.5179 144.711 84.5197 144.526C84.5179 144.344 84.4751 144.186 84.3913 144.052C84.3074 143.915 84.1912 143.81 84.0427 143.737C83.8942 143.662 83.7212 143.624 83.5238 143.624C83.3229 143.624 83.1473 143.662 82.9971 143.737C82.8468 143.81 82.7306 143.915 82.6485 144.052C82.5664 144.186 82.5262 144.344 82.528 144.526C82.5262 144.711 82.5673 144.873 82.6511 145.011C82.7367 145.149 82.8547 145.256 83.0049 145.333C83.1552 145.41 83.3281 145.448 83.5238 145.448Z" fill="#9397A0"/>
<path d="M104.411 148.572C104.016 148.572 103.68 148.465 103.402 148.25C103.124 148.033 102.912 147.72 102.765 147.309C102.618 146.897 102.545 146.399 102.545 145.815C102.545 145.235 102.618 144.74 102.765 144.329C102.914 143.917 103.127 143.603 103.405 143.386C103.684 143.168 104.02 143.058 104.411 143.058C104.802 143.058 105.137 143.168 105.415 143.386C105.694 143.603 105.907 143.917 106.054 144.329C106.203 144.74 106.277 145.235 106.277 145.815C106.277 146.399 106.203 146.897 106.057 147.309C105.91 147.72 105.698 148.033 105.42 148.25C105.142 148.465 104.806 148.572 104.411 148.572ZM104.411 147.996C104.802 147.996 105.106 147.807 105.323 147.43C105.54 147.052 105.648 146.514 105.648 145.815C105.648 145.351 105.598 144.955 105.498 144.628C105.401 144.301 105.259 144.052 105.074 143.881C104.89 143.71 104.669 143.624 104.411 143.624C104.023 143.624 103.72 143.816 103.502 144.198C103.283 144.579 103.174 145.118 103.174 145.815C103.174 146.28 103.223 146.675 103.321 147C103.419 147.325 103.559 147.572 103.743 147.741C103.928 147.911 104.151 147.996 104.411 147.996Z" fill="#9397A0"/>
<path d="M108.981 143.058C109.201 143.06 109.422 143.102 109.642 143.184C109.862 143.266 110.063 143.402 110.244 143.593C110.426 143.782 110.572 144.039 110.682 144.366C110.792 144.693 110.847 145.102 110.847 145.595C110.847 146.072 110.802 146.496 110.711 146.866C110.622 147.235 110.493 147.546 110.323 147.799C110.155 148.052 109.951 148.245 109.71 148.376C109.47 148.507 109.2 148.572 108.897 148.572C108.597 148.572 108.329 148.513 108.093 148.394C107.859 148.273 107.667 148.107 107.516 147.893C107.368 147.679 107.273 147.43 107.231 147.147H107.87C107.928 147.393 108.042 147.596 108.213 147.757C108.386 147.916 108.614 147.996 108.897 147.996C109.312 147.996 109.638 147.815 109.878 147.453C110.119 147.091 110.239 146.58 110.239 145.92H110.197C110.099 146.067 109.983 146.193 109.849 146.3C109.714 146.407 109.565 146.489 109.401 146.546C109.236 146.604 109.062 146.633 108.876 146.633C108.569 146.633 108.287 146.557 108.03 146.405C107.775 146.251 107.571 146.041 107.417 145.773C107.265 145.504 107.189 145.197 107.189 144.851C107.189 144.522 107.262 144.222 107.409 143.949C107.557 143.675 107.765 143.457 108.033 143.294C108.302 143.132 108.618 143.053 108.981 143.058ZM108.981 143.635C108.761 143.635 108.563 143.69 108.386 143.8C108.212 143.908 108.073 144.055 107.97 144.24C107.868 144.424 107.818 144.627 107.818 144.851C107.818 145.074 107.867 145.278 107.964 145.461C108.064 145.643 108.199 145.788 108.371 145.896C108.544 146.003 108.74 146.056 108.96 146.056C109.126 146.056 109.281 146.024 109.424 145.959C109.567 145.893 109.692 145.803 109.799 145.689C109.907 145.574 109.992 145.444 110.053 145.299C110.114 145.152 110.145 144.999 110.145 144.84C110.145 144.631 110.094 144.434 109.993 144.251C109.893 144.067 109.755 143.919 109.579 143.805C109.404 143.692 109.205 143.635 108.981 143.635Z" fill="#9397A0"/>
<path d="M130.014 143.132V148.499H129.364V143.813H129.333L128.022 144.683V144.023L129.364 143.132H130.014Z" fill="#9397A0"/>
<path d="M133.308 148.572C132.913 148.572 132.577 148.465 132.299 148.25C132.021 148.033 131.809 147.72 131.662 147.309C131.516 146.897 131.442 146.399 131.442 145.815C131.442 145.235 131.516 144.74 131.662 144.329C131.811 143.917 132.024 143.603 132.302 143.386C132.581 143.168 132.917 143.058 133.308 143.058C133.699 143.058 134.034 143.168 134.312 143.386C134.591 143.603 134.804 143.917 134.951 144.329C135.1 144.74 135.174 145.235 135.174 145.815C135.174 146.399 135.101 146.897 134.954 147.309C134.807 147.72 134.595 148.033 134.317 148.25C134.039 148.465 133.703 148.572 133.308 148.572ZM133.308 147.996C133.699 147.996 134.003 147.807 134.22 147.43C134.437 147.052 134.545 146.514 134.545 145.815C134.545 145.351 134.495 144.955 134.396 144.628C134.298 144.301 134.156 144.052 133.971 143.881C133.788 143.71 133.567 143.624 133.308 143.624C132.92 143.624 132.617 143.816 132.399 144.198C132.18 144.579 132.071 145.118 132.071 145.815C132.071 146.28 132.12 146.675 132.218 147C132.316 147.325 132.456 147.572 132.64 147.741C132.825 147.911 133.048 147.996 133.308 147.996Z" fill="#9397A0"/>
<path d="M53.7336 162.077V167.444H53.0837V162.758H53.0523L51.7419 163.628V162.968L53.0837 162.077H53.7336Z" fill="#DFDFDF"/>
<path d="M55.1514 166.343V165.809L57.51 162.077H57.8978V162.905H57.6358L55.8537 165.725V165.767H59.03V166.343H55.1514ZM57.6777 167.444V162.077H58.2962V167.444H57.6777Z" fill="#DFDFDF"/>
<path d="M79.0792 162.077V167.444H78.4293V162.758H78.3978L77.0875 163.628V162.968L78.4293 162.077H79.0792Z" fill="#9397A0"/>
<path d="M82.3 167.517C81.9925 167.517 81.7156 167.456 81.4692 167.334C81.2229 167.211 81.0255 167.044 80.877 166.831C80.7285 166.617 80.6472 166.375 80.6332 166.102H81.2622C81.2867 166.345 81.3967 166.546 81.5924 166.705C81.7898 166.862 82.0257 166.941 82.3 166.941C82.5201 166.941 82.7158 166.889 82.887 166.786C83.06 166.683 83.1954 166.541 83.2932 166.361C83.3928 166.18 83.4426 165.974 83.4426 165.746C83.4426 165.512 83.391 165.303 83.288 165.119C83.1866 164.934 83.0469 164.788 82.8687 164.682C82.6905 164.575 82.4869 164.521 82.258 164.519C82.0938 164.517 81.9252 164.543 81.7523 164.595C81.5793 164.646 81.4369 164.711 81.3251 164.792L80.7171 164.718L81.0421 162.077H83.8304V162.653H81.5872L81.3985 164.236H81.4299C81.54 164.149 81.678 164.076 81.844 164.019C82.01 163.961 82.1829 163.932 82.3629 163.932C82.6913 163.932 82.984 164.011 83.2408 164.168C83.4994 164.323 83.702 164.537 83.8488 164.807C83.9973 165.078 84.0715 165.387 84.0715 165.735C84.0715 166.078 83.9947 166.383 83.8409 166.652C83.6889 166.92 83.4793 167.131 83.212 167.287C82.9447 167.44 82.6407 167.517 82.3 167.517Z" fill="#9397A0"/>
<path d="M104.547 162.077V167.444H103.897V162.758H103.866L102.555 163.628V162.968L103.897 162.077H104.547Z" fill="#9397A0"/>
<path d="M107.873 167.517C107.653 167.514 107.432 167.472 107.212 167.391C106.992 167.311 106.791 167.176 106.61 166.985C106.428 166.793 106.282 166.534 106.172 166.207C106.062 165.878 106.007 165.466 106.007 164.97C106.007 164.495 106.051 164.074 106.141 163.707C106.23 163.338 106.359 163.028 106.528 162.776C106.698 162.523 106.902 162.331 107.142 162.2C107.383 162.069 107.654 162.003 107.957 162.003C108.257 162.003 108.524 162.064 108.759 162.184C108.994 162.303 109.187 162.469 109.335 162.682C109.484 162.895 109.58 163.141 109.623 163.418H108.984C108.925 163.177 108.809 162.977 108.638 162.818C108.467 162.659 108.24 162.58 107.957 162.58C107.541 162.58 107.213 162.761 106.974 163.122C106.736 163.484 106.617 163.992 106.615 164.645H106.657C106.755 164.496 106.871 164.37 107.005 164.265C107.142 164.158 107.292 164.076 107.456 164.019C107.62 163.961 107.794 163.932 107.978 163.932C108.285 163.932 108.566 164.009 108.821 164.163C109.077 164.315 109.281 164.525 109.435 164.794C109.588 165.062 109.665 165.368 109.665 165.714C109.665 166.046 109.591 166.35 109.443 166.626C109.294 166.9 109.085 167.119 108.816 167.281C108.549 167.442 108.234 167.521 107.873 167.517ZM107.873 166.941C108.093 166.941 108.29 166.886 108.465 166.776C108.641 166.665 108.78 166.518 108.882 166.333C108.985 166.147 109.036 165.941 109.036 165.714C109.036 165.492 108.987 165.291 108.887 165.109C108.789 164.925 108.654 164.779 108.481 164.671C108.31 164.563 108.114 164.509 107.894 164.509C107.728 164.509 107.573 164.542 107.43 164.608C107.287 164.673 107.161 164.762 107.052 164.876C106.946 164.989 106.862 165.119 106.801 165.266C106.74 165.411 106.709 165.564 106.709 165.725C106.709 165.938 106.759 166.137 106.859 166.322C106.96 166.507 107.098 166.657 107.273 166.77C107.449 166.884 107.649 166.941 107.873 166.941Z" fill="#9397A0"/>
<path d="M51.8468 186.638V186.167L53.6183 184.227C53.8262 184 53.9974 183.803 54.132 183.635C54.2665 183.466 54.3661 183.307 54.4307 183.158C54.4971 183.008 54.5303 182.851 54.5303 182.686C54.5303 182.498 54.4849 182.334 54.394 182.196C54.3049 182.058 54.1826 181.952 54.0271 181.877C53.8716 181.801 53.6969 181.764 53.503 181.764C53.2968 181.764 53.1169 181.807 52.9632 181.892C52.8112 181.976 52.6932 182.094 52.6094 182.246C52.5272 182.398 52.4862 182.576 52.4862 182.781H51.8677C51.8677 182.466 51.9402 182.19 52.0852 181.953C52.2302 181.715 52.4277 181.53 52.6775 181.397C52.9291 181.264 53.2112 181.198 53.524 181.198C53.8384 181.198 54.1171 181.264 54.36 181.397C54.6028 181.53 54.7932 181.709 54.9313 181.934C55.0693 182.16 55.1383 182.41 55.1383 182.686C55.1383 182.884 55.1025 183.077 55.0308 183.266C54.961 183.453 54.8387 183.661 54.664 183.892C54.491 184.121 54.2508 184.4 53.9433 184.731L52.7378 186.02V186.062H55.2326V186.638H51.8468Z" fill="#DFDFDF"/>
<path d="M58.2018 181.271V186.638H57.5519V181.953H57.5205L56.2101 182.823V182.162L57.5519 181.271H58.2018Z" fill="#DFDFDF"/>
<path d="M77.1923 186.638V186.167L78.9639 184.227C79.1718 184 79.343 183.803 79.4775 183.635C79.6121 183.466 79.7116 183.307 79.7763 183.158C79.8427 183.008 79.8759 182.851 79.8759 182.686C79.8759 182.498 79.8304 182.334 79.7396 182.196C79.6505 182.058 79.5282 181.952 79.3727 181.877C79.2172 181.801 79.0425 181.764 78.8486 181.764C78.6424 181.764 78.4625 181.807 78.3087 181.892C78.1567 181.976 78.0388 182.094 77.9549 182.246C77.8728 182.398 77.8318 182.576 77.8318 182.781H77.2133C77.2133 182.466 77.2858 182.19 77.4308 181.953C77.5758 181.715 77.7732 181.53 78.0231 181.397C78.2747 181.264 78.5568 181.198 78.8695 181.198C79.184 181.198 79.4627 181.264 79.7055 181.397C79.9484 181.53 80.1388 181.709 80.2768 181.934C80.4149 182.16 80.4839 182.41 80.4839 182.686C80.4839 182.884 80.448 183.077 80.3764 183.266C80.3065 183.453 80.1842 183.661 80.0095 183.892C79.8366 184.121 79.5963 184.4 79.2888 184.731L78.0833 186.02V186.062H80.5782V186.638H77.1923Z" fill="#9397A0"/>
<path d="M81.6605 186.638V186.167L83.4321 184.227C83.64 184 83.8112 183.803 83.9457 183.635C84.0803 183.466 84.1799 183.307 84.2445 183.158C84.3109 183.008 84.3441 182.851 84.3441 182.686C84.3441 182.498 84.2987 182.334 84.2078 182.196C84.1187 182.058 83.9964 181.952 83.8409 181.877C83.6854 181.801 83.5107 181.764 83.3168 181.764C83.1106 181.764 82.9307 181.807 82.7769 181.892C82.6249 181.976 82.507 182.094 82.4231 182.246C82.341 182.398 82.3 182.576 82.3 182.781H81.6815C81.6815 182.466 81.754 182.19 81.899 181.953C82.044 181.715 82.2414 181.53 82.4913 181.397C82.7429 181.264 83.025 181.198 83.3378 181.198C83.6522 181.198 83.9309 181.264 84.1737 181.397C84.4166 181.53 84.607 181.709 84.745 181.934C84.8831 182.16 84.9521 182.41 84.9521 182.686C84.9521 182.884 84.9163 183.077 84.8446 183.266C84.7747 183.453 84.6524 183.661 84.4777 183.892C84.3048 184.121 84.0645 184.4 83.7571 184.731L82.5516 186.02V186.062H85.0464V186.638H81.6605Z" fill="#9397A0"/>
<path d="M102.66 186.638V186.167L104.432 184.227C104.64 184 104.811 183.803 104.945 183.635C105.08 183.466 105.18 183.307 105.244 183.158C105.311 183.008 105.344 182.851 105.344 182.686C105.344 182.498 105.298 182.334 105.208 182.196C105.118 182.058 104.996 181.952 104.841 181.877C104.685 181.801 104.51 181.764 104.317 181.764C104.11 181.764 103.93 181.807 103.777 181.892C103.625 181.976 103.507 182.094 103.423 182.246C103.341 182.398 103.3 182.576 103.3 182.781H102.681C102.681 182.466 102.754 182.19 102.899 181.953C103.044 181.715 103.241 181.53 103.491 181.397C103.743 181.264 104.025 181.198 104.338 181.198C104.652 181.198 104.931 181.264 105.173 181.397C105.416 181.53 105.607 181.709 105.745 181.934C105.883 182.16 105.952 182.41 105.952 182.686C105.952 182.884 105.916 183.077 105.844 183.266C105.774 183.453 105.652 183.661 105.477 183.892C105.305 184.121 105.064 184.4 104.757 184.731L103.551 186.02V186.062H106.046V186.638H102.66Z" fill="#9397A0"/>
<path d="M108.942 186.712C108.596 186.712 108.288 186.652 108.017 186.534C107.748 186.415 107.534 186.25 107.375 186.038C107.218 185.825 107.132 185.578 107.118 185.297H107.778C107.792 185.47 107.852 185.619 107.957 185.745C108.061 185.869 108.199 185.965 108.368 186.033C108.538 186.101 108.725 186.135 108.931 186.135C109.162 186.135 109.367 186.095 109.545 186.015C109.723 185.934 109.863 185.822 109.964 185.679C110.065 185.536 110.116 185.37 110.116 185.181C110.116 184.984 110.067 184.81 109.969 184.66C109.871 184.508 109.728 184.389 109.539 184.303C109.351 184.218 109.12 184.175 108.848 184.175H108.418V183.598H108.848C109.061 183.598 109.248 183.56 109.408 183.483C109.571 183.406 109.698 183.298 109.788 183.158C109.881 183.018 109.927 182.854 109.927 182.665C109.927 182.484 109.887 182.326 109.807 182.191C109.726 182.057 109.613 181.952 109.466 181.877C109.321 181.801 109.15 181.764 108.952 181.764C108.767 181.764 108.593 181.798 108.428 181.866C108.266 181.933 108.133 182.029 108.03 182.157C107.927 182.283 107.871 182.435 107.862 182.613H107.233C107.244 182.332 107.329 182.085 107.488 181.874C107.647 181.661 107.854 181.495 108.111 181.376C108.37 181.257 108.654 181.198 108.963 181.198C109.295 181.198 109.58 181.265 109.817 181.4C110.055 181.532 110.237 181.708 110.365 181.926C110.493 182.145 110.556 182.381 110.556 182.634C110.556 182.936 110.477 183.194 110.318 183.407C110.161 183.62 109.947 183.768 109.676 183.85V183.892C110.015 183.948 110.279 184.092 110.47 184.324C110.66 184.555 110.755 184.841 110.755 185.181C110.755 185.473 110.676 185.735 110.517 185.967C110.36 186.198 110.145 186.38 109.872 186.513C109.6 186.645 109.29 186.712 108.942 186.712Z" fill="#9397A0"/>
<path d="M51.8468 205.432V204.96L53.6183 203.021C53.8262 202.794 53.9974 202.596 54.132 202.429C54.2665 202.259 54.3661 202.1 54.4307 201.952C54.4971 201.801 54.5303 201.644 54.5303 201.48C54.5303 201.291 54.4849 201.128 54.394 200.99C54.3049 200.852 54.1826 200.745 54.0271 200.67C53.8716 200.595 53.6969 200.557 53.503 200.557C53.2968 200.557 53.1169 200.6 52.9632 200.686C52.8112 200.77 52.6932 200.888 52.6094 201.04C52.5272 201.192 52.4862 201.37 52.4862 201.574H51.8677C51.8677 201.26 51.9402 200.984 52.0852 200.746C52.2302 200.509 52.4277 200.323 52.6775 200.191C52.9291 200.058 53.2112 199.991 53.524 199.991C53.8384 199.991 54.1171 200.058 54.36 200.191C54.6028 200.323 54.7932 200.502 54.9313 200.728C55.0693 200.953 55.1383 201.204 55.1383 201.48C55.1383 201.677 55.1025 201.87 55.0308 202.059C54.961 202.246 54.8387 202.455 54.664 202.685C54.491 202.914 54.2508 203.194 53.9433 203.524L52.7378 204.813V204.855H55.2326V205.432H51.8468Z" fill="#DFDFDF"/>
<path d="M58.0341 205.505C57.6742 205.505 57.3562 205.441 57.0802 205.314C56.8059 205.185 56.5919 205.007 56.4381 204.782C56.2844 204.555 56.2084 204.296 56.2101 204.006C56.2084 203.779 56.2529 203.569 56.3438 203.377C56.4346 203.183 56.5587 203.022 56.7159 202.892C56.8749 202.761 57.0522 202.678 57.2479 202.643V202.612C56.9911 202.546 56.7867 202.402 56.6347 202.18C56.4827 201.956 56.4076 201.702 56.4093 201.417C56.4076 201.144 56.4766 200.901 56.6163 200.686C56.7561 200.471 56.9483 200.301 57.1929 200.177C57.4392 200.053 57.7196 199.991 58.0341 199.991C58.3451 199.991 58.6229 200.053 58.8675 200.177C59.1121 200.301 59.3043 200.471 59.444 200.686C59.5855 200.901 59.6572 201.144 59.6589 201.417C59.6572 201.702 59.5794 201.956 59.4257 202.18C59.2737 202.402 59.0719 202.546 58.8203 202.612V202.643C59.0142 202.678 59.1889 202.761 59.3444 202.892C59.4999 203.022 59.624 203.183 59.7166 203.377C59.8092 203.569 59.8563 203.779 59.8581 204.006C59.8563 204.296 59.7777 204.555 59.6222 204.782C59.4685 205.007 59.2545 205.185 58.9802 205.314C58.7076 205.441 58.3923 205.505 58.0341 205.505ZM58.0341 204.929C58.277 204.929 58.4866 204.889 58.6631 204.811C58.8395 204.732 58.9758 204.621 59.0719 204.478C59.168 204.335 59.2169 204.167 59.2186 203.975C59.2169 203.772 59.1645 203.593 59.0614 203.438C58.9583 203.282 58.8177 203.16 58.6395 203.071C58.463 202.982 58.2612 202.937 58.0341 202.937C57.8052 202.937 57.6008 202.982 57.4209 203.071C57.2427 203.16 57.102 203.282 56.999 203.438C56.8976 203.593 56.8478 203.772 56.8496 203.975C56.8478 204.167 56.8941 204.335 56.9885 204.478C57.0846 204.621 57.2217 204.732 57.3999 204.811C57.5781 204.889 57.7895 204.929 58.0341 204.929ZM58.0341 202.381C58.2263 202.381 58.3966 202.343 58.5451 202.266C58.6954 202.189 58.8133 202.082 58.8989 201.944C58.9845 201.806 59.0282 201.644 59.03 201.459C59.0282 201.277 58.9854 201.119 58.9015 200.985C58.8177 200.848 58.7015 200.744 58.553 200.67C58.4045 200.595 58.2315 200.557 58.0341 200.557C57.8332 200.557 57.6576 200.595 57.5074 200.67C57.3571 200.744 57.2409 200.848 57.1588 200.985C57.0767 201.119 57.0365 201.277 57.0383 201.459C57.0365 201.644 57.0776 201.806 57.1614 201.944C57.247 202.082 57.365 202.189 57.5152 202.266C57.6655 202.343 57.8384 202.381 58.0341 202.381Z" fill="#DFDFDF"/>
<path d="M77.1923 205.432V204.96L78.9639 203.021C79.1718 202.794 79.343 202.596 79.4775 202.429C79.6121 202.259 79.7116 202.1 79.7763 201.952C79.8427 201.801 79.8759 201.644 79.8759 201.48C79.8759 201.291 79.8304 201.128 79.7396 200.99C79.6505 200.852 79.5282 200.745 79.3727 200.67C79.2172 200.595 79.0425 200.557 78.8486 200.557C78.6424 200.557 78.4625 200.6 78.3087 200.686C78.1567 200.77 78.0388 200.888 77.9549 201.04C77.8728 201.192 77.8318 201.37 77.8318 201.574H77.2133C77.2133 201.26 77.2858 200.984 77.4308 200.746C77.5758 200.509 77.7732 200.323 78.0231 200.191C78.2747 200.058 78.5568 199.991 78.8695 199.991C79.184 199.991 79.4627 200.058 79.7055 200.191C79.9484 200.323 80.1388 200.502 80.2768 200.728C80.4149 200.953 80.4839 201.204 80.4839 201.48C80.4839 201.677 80.448 201.87 80.3764 202.059C80.3065 202.246 80.1842 202.455 80.0095 202.685C79.8366 202.914 79.5963 203.194 79.2888 203.524L78.0833 204.813V204.855H80.5782V205.432H77.1923Z" fill="#9397A0"/>
<path d="M83.3692 199.991C83.5893 199.993 83.8095 200.035 84.0296 200.117C84.2497 200.199 84.4507 200.336 84.6324 200.526C84.8141 200.715 84.9599 200.972 85.07 201.299C85.1801 201.626 85.2351 202.035 85.2351 202.528C85.2351 203.005 85.1897 203.429 85.0988 203.799C85.0097 204.168 84.8804 204.479 84.711 204.732C84.5433 204.985 84.3388 205.178 84.0977 205.309C83.8584 205.44 83.5876 205.505 83.2853 205.505C82.9848 205.505 82.7167 205.446 82.4808 205.327C82.2467 205.206 82.0545 205.04 81.9043 204.826C81.7558 204.612 81.6605 204.363 81.6186 204.08H82.258C82.3157 204.326 82.4301 204.529 82.6013 204.69C82.7743 204.849 83.0023 204.929 83.2853 204.929C83.6994 204.929 84.0261 204.748 84.2655 204.386C84.5066 204.025 84.6271 203.514 84.6271 202.853H84.5852C84.4873 203 84.3712 203.127 84.2366 203.233C84.1021 203.34 83.9527 203.422 83.7885 203.479C83.6243 203.537 83.4496 203.566 83.2644 203.566C82.9569 203.566 82.6747 203.49 82.4179 203.338C82.1628 203.184 81.9584 202.974 81.8047 202.706C81.6527 202.437 81.5767 202.13 81.5767 201.784C81.5767 201.455 81.6501 201.155 81.7968 200.882C81.9453 200.608 82.1532 200.39 82.4205 200.227C82.6896 200.065 83.0058 199.986 83.3692 199.991ZM83.3692 200.568C83.1491 200.568 82.9508 200.623 82.7743 200.733C82.5996 200.841 82.4607 200.988 82.3576 201.173C82.2563 201.357 82.2056 201.56 82.2056 201.784C82.2056 202.008 82.2545 202.211 82.3524 202.395C82.452 202.576 82.5874 202.721 82.7586 202.83C82.9316 202.936 83.1281 202.989 83.3482 202.989C83.5142 202.989 83.6688 202.957 83.8121 202.892C83.9554 202.826 84.0803 202.736 84.1868 202.623C84.2952 202.507 84.3799 202.377 84.441 202.232C84.5022 202.085 84.5328 201.932 84.5328 201.773C84.5328 201.564 84.4821 201.367 84.3808 201.184C84.2812 201 84.1432 200.852 83.9667 200.738C83.792 200.625 83.5928 200.568 83.3692 200.568Z" fill="#9397A0"/>
<path d="M104.474 205.505C104.128 205.505 103.819 205.446 103.549 205.327C103.28 205.208 103.066 205.043 102.907 204.832C102.749 204.619 102.664 204.371 102.65 204.09H103.31C103.324 204.263 103.384 204.412 103.488 204.538C103.593 204.662 103.73 204.758 103.9 204.826C104.069 204.895 104.257 204.929 104.463 204.929C104.694 204.929 104.898 204.889 105.077 204.808C105.255 204.728 105.394 204.616 105.496 204.473C105.597 204.329 105.648 204.163 105.648 203.975C105.648 203.777 105.599 203.604 105.501 203.453C105.403 203.301 105.26 203.182 105.071 203.097C104.883 203.011 104.652 202.968 104.379 202.968H103.95V202.392H104.379C104.593 202.392 104.78 202.353 104.94 202.277C105.103 202.2 105.229 202.091 105.32 201.952C105.413 201.812 105.459 201.648 105.459 201.459C105.459 201.277 105.419 201.119 105.339 200.985C105.258 200.85 105.145 200.745 104.998 200.67C104.853 200.595 104.682 200.557 104.484 200.557C104.299 200.557 104.124 200.592 103.96 200.66C103.798 200.726 103.665 200.823 103.562 200.951C103.459 201.076 103.403 201.228 103.394 201.407H102.765C102.776 201.125 102.86 200.879 103.019 200.668C103.178 200.454 103.386 200.288 103.643 200.17C103.902 200.051 104.186 199.991 104.495 199.991C104.827 199.991 105.111 200.059 105.349 200.193C105.587 200.326 105.769 200.502 105.897 200.72C106.024 200.938 106.088 201.174 106.088 201.428C106.088 201.73 106.009 201.987 105.85 202.201C105.692 202.414 105.478 202.561 105.208 202.643V202.685C105.546 202.741 105.811 202.885 106.002 203.118C106.192 203.348 106.287 203.634 106.287 203.975C106.287 204.267 106.208 204.529 106.049 204.761C105.892 204.992 105.677 205.173 105.404 205.306C105.132 205.439 104.821 205.505 104.474 205.505Z" fill="#9397A0"/>
<path d="M109.11 205.505C108.715 205.505 108.379 205.398 108.101 205.183C107.823 204.966 107.611 204.653 107.464 204.242C107.317 203.83 107.244 203.332 107.244 202.748C107.244 202.168 107.317 201.673 107.464 201.262C107.612 200.85 107.826 200.536 108.103 200.319C108.383 200.101 108.718 199.991 109.11 199.991C109.501 199.991 109.836 200.101 110.113 200.319C110.393 200.536 110.606 200.85 110.753 201.262C110.901 201.673 110.976 202.168 110.976 202.748C110.976 203.332 110.902 203.83 110.755 204.242C110.609 204.653 110.396 204.966 110.119 205.183C109.841 205.398 109.505 205.505 109.11 205.505ZM109.11 204.929C109.501 204.929 109.805 204.74 110.022 204.363C110.238 203.985 110.347 203.447 110.347 202.748C110.347 202.284 110.297 201.888 110.197 201.561C110.099 201.234 109.958 200.985 109.773 200.814C109.589 200.643 109.368 200.557 109.11 200.557C108.722 200.557 108.419 200.749 108.2 201.131C107.982 201.512 107.873 202.051 107.873 202.748C107.873 203.213 107.922 203.608 108.02 203.933C108.117 204.258 108.258 204.505 108.441 204.674C108.627 204.844 108.849 204.929 109.11 204.929Z" fill="#9397A0"/>
<path d="M129.941 205.505C129.595 205.505 129.286 205.446 129.015 205.327C128.746 205.208 128.532 205.043 128.373 204.832C128.216 204.619 128.131 204.371 128.117 204.09H128.777C128.791 204.263 128.85 204.412 128.955 204.538C129.06 204.662 129.197 204.758 129.367 204.826C129.536 204.895 129.724 204.929 129.93 204.929C130.161 204.929 130.365 204.889 130.543 204.808C130.721 204.728 130.861 204.616 130.963 204.473C131.064 204.329 131.115 204.163 131.115 203.975C131.115 203.777 131.066 203.604 130.968 203.453C130.87 203.301 130.727 203.182 130.538 203.097C130.349 203.011 130.119 202.968 129.846 202.968H129.416V202.392H129.846C130.059 202.392 130.246 202.353 130.407 202.277C130.57 202.2 130.696 202.091 130.787 201.952C130.88 201.812 130.926 201.648 130.926 201.459C130.926 201.277 130.886 201.119 130.805 200.985C130.725 200.85 130.611 200.745 130.465 200.67C130.32 200.595 130.148 200.557 129.951 200.557C129.766 200.557 129.591 200.592 129.427 200.66C129.264 200.726 129.132 200.823 129.029 200.951C128.925 201.076 128.87 201.228 128.861 201.407H128.232C128.242 201.125 128.327 200.879 128.486 200.668C128.645 200.454 128.853 200.288 129.11 200.17C129.368 200.051 129.652 199.991 129.962 199.991C130.293 199.991 130.578 200.059 130.816 200.193C131.053 200.326 131.236 200.502 131.364 200.72C131.491 200.938 131.555 201.174 131.555 201.428C131.555 201.73 131.475 201.987 131.316 202.201C131.159 202.414 130.945 202.561 130.674 202.643V202.685C131.013 202.741 131.278 202.885 131.468 203.118C131.659 203.348 131.754 203.634 131.754 203.975C131.754 204.267 131.675 204.529 131.516 204.761C131.358 204.992 131.143 205.173 130.871 205.306C130.598 205.439 130.288 205.505 129.941 205.505Z" fill="#9397A0"/>
<path d="M134.713 200.065V205.432H134.063V200.746H134.031L132.721 201.616V200.956L134.063 200.065H134.713Z" fill="#9397A0"/>
<path d="M155.344 129.378C154.949 129.378 154.613 129.27 154.335 129.055C154.057 128.839 153.845 128.525 153.698 128.114C153.551 127.702 153.478 127.204 153.478 126.621C153.478 126.041 153.551 125.545 153.698 125.135C153.846 124.722 154.06 124.408 154.337 124.191C154.617 123.973 154.952 123.864 155.344 123.864C155.735 123.864 156.07 123.973 156.347 124.191C156.627 124.408 156.84 124.722 156.987 125.135C157.135 125.545 157.21 126.041 157.21 126.621C157.21 127.204 157.136 127.702 156.989 128.114C156.843 128.525 156.63 128.839 156.353 129.055C156.075 129.27 155.739 129.378 155.344 129.378ZM155.344 128.801C155.735 128.801 156.039 128.612 156.256 128.235C156.472 127.858 156.581 127.32 156.581 126.621C156.581 126.156 156.531 125.76 156.431 125.434C156.333 125.107 156.192 124.858 156.007 124.687C155.823 124.515 155.602 124.43 155.344 124.43C154.956 124.43 154.653 124.621 154.434 125.004C154.216 125.385 154.107 125.924 154.107 126.621C154.107 127.085 154.156 127.48 154.253 127.805C154.351 128.13 154.492 128.377 154.675 128.547C154.861 128.716 155.083 128.801 155.344 128.801Z" fill="#9397A0"/>
<path d="M158.08 128.204V127.669L160.438 123.937H160.826V124.765H160.564L158.782 127.585V127.627H161.958V128.204H158.08ZM160.606 129.304V123.937H161.224V129.304H160.606Z" fill="#9397A0"/>
<path d="M180.81 129.378C180.416 129.378 180.079 129.27 179.802 129.055C179.524 128.839 179.311 128.525 179.165 128.114C179.018 127.702 178.945 127.204 178.945 126.621C178.945 126.041 179.018 125.545 179.165 125.135C179.313 124.722 179.526 124.408 179.804 124.191C180.084 123.973 180.419 123.864 180.81 123.864C181.202 123.864 181.536 123.973 181.814 124.191C182.094 124.408 182.307 124.722 182.454 125.135C182.602 125.545 182.676 126.041 182.676 126.621C182.676 127.204 182.603 127.702 182.456 128.114C182.309 128.525 182.097 128.839 181.819 129.055C181.542 129.27 181.205 129.378 180.81 129.378ZM180.81 128.801C181.202 128.801 181.506 128.612 181.722 128.235C181.939 127.858 182.047 127.32 182.047 126.621C182.047 126.156 181.998 125.76 181.898 125.434C181.8 125.107 181.659 124.858 181.473 124.687C181.29 124.515 181.069 124.43 180.81 124.43C180.423 124.43 180.119 124.621 179.901 125.004C179.683 125.385 179.574 125.924 179.574 126.621C179.574 127.085 179.622 127.48 179.72 127.805C179.818 128.13 179.959 128.377 180.142 128.547C180.327 128.716 180.55 128.801 180.81 128.801Z" fill="#DFDFDF"/>
<path d="M185.349 129.378C185.042 129.378 184.765 129.316 184.519 129.194C184.272 129.072 184.075 128.904 183.926 128.691C183.778 128.478 183.697 128.235 183.683 127.962H184.312C184.336 128.205 184.446 128.406 184.642 128.565C184.839 128.722 185.075 128.801 185.349 128.801C185.57 128.801 185.765 128.75 185.936 128.646C186.109 128.543 186.245 128.402 186.343 128.222C186.442 128.04 186.492 127.835 186.492 127.606C186.492 127.372 186.44 127.163 186.337 126.98C186.236 126.795 186.096 126.649 185.918 126.542C185.74 126.436 185.536 126.381 185.307 126.38C185.143 126.378 184.975 126.403 184.802 126.456C184.629 126.506 184.486 126.572 184.375 126.652L183.767 126.579L184.092 123.937H186.88V124.514H184.637L184.448 126.097H184.479C184.589 126.009 184.727 125.937 184.893 125.879C185.059 125.821 185.232 125.793 185.412 125.793C185.741 125.793 186.033 125.871 186.29 126.028C186.549 126.184 186.751 126.397 186.898 126.668C187.047 126.939 187.121 127.248 187.121 127.596C187.121 127.938 187.044 128.244 186.89 128.513C186.738 128.78 186.529 128.992 186.261 129.147C185.994 129.301 185.69 129.378 185.349 129.378Z" fill="#DFDFDF"/>
<path d="M206.284 129.378C205.89 129.378 205.553 129.27 205.275 129.055C204.998 128.839 204.785 128.525 204.639 128.114C204.492 127.702 204.418 127.204 204.418 126.621C204.418 126.041 204.492 125.545 204.639 125.135C204.787 124.722 205 124.408 205.278 124.191C205.558 123.973 205.893 123.864 206.284 123.864C206.676 123.864 207.01 123.973 207.288 124.191C207.568 124.408 207.781 124.722 207.928 125.135C208.076 125.545 208.15 126.041 208.15 126.621C208.15 127.204 208.077 127.702 207.93 128.114C207.783 128.525 207.571 128.839 207.293 129.055C207.016 129.27 206.679 129.378 206.284 129.378ZM206.284 128.801C206.676 128.801 206.98 128.612 207.196 128.235C207.413 127.858 207.521 127.32 207.521 126.621C207.521 126.156 207.472 125.76 207.372 125.434C207.274 125.107 207.133 124.858 206.947 124.687C206.764 124.515 206.543 124.43 206.284 124.43C205.896 124.43 205.593 124.621 205.375 125.004C205.157 125.385 205.047 125.924 205.047 126.621C205.047 127.085 205.096 127.48 205.194 127.805C205.292 128.13 205.433 128.377 205.616 128.547C205.801 128.716 206.024 128.801 206.284 128.801Z" fill="#DFDFDF"/>
<path d="M210.928 129.378C210.708 129.374 210.488 129.332 210.268 129.252C210.048 129.171 209.847 129.036 209.665 128.846C209.483 128.653 209.337 128.394 209.227 128.067C209.117 127.739 209.062 127.327 209.062 126.83C209.062 126.355 209.107 125.934 209.196 125.567C209.285 125.199 209.414 124.888 209.584 124.637C209.753 124.384 209.958 124.191 210.197 124.06C210.438 123.929 210.71 123.864 211.012 123.864C211.313 123.864 211.58 123.924 211.814 124.045C212.05 124.163 212.242 124.329 212.39 124.543C212.539 124.756 212.635 125.001 212.679 125.279H212.039C211.98 125.038 211.865 124.838 211.693 124.679C211.522 124.52 211.295 124.44 211.012 124.44C210.596 124.44 210.269 124.621 210.029 124.983C209.792 125.344 209.672 125.852 209.67 126.505H209.712C209.81 126.357 209.926 126.23 210.061 126.125C210.197 126.019 210.347 125.937 210.511 125.879C210.676 125.821 210.85 125.793 211.033 125.793C211.34 125.793 211.622 125.869 211.877 126.023C212.132 126.175 212.336 126.386 212.49 126.655C212.644 126.922 212.721 127.229 212.721 127.575C212.721 127.907 212.646 128.211 212.498 128.487C212.349 128.761 212.141 128.979 211.872 129.142C211.604 129.302 211.29 129.381 210.928 129.378ZM210.928 128.801C211.148 128.801 211.346 128.746 211.52 128.636C211.697 128.526 211.836 128.378 211.937 128.193C212.04 128.008 212.092 127.802 212.092 127.575C212.092 127.353 212.042 127.151 211.942 126.969C211.845 126.786 211.709 126.64 211.536 126.532C211.365 126.423 211.169 126.369 210.949 126.369C210.783 126.369 210.629 126.402 210.485 126.469C210.342 126.533 210.216 126.622 210.108 126.736C210.001 126.85 209.917 126.98 209.856 127.126C209.795 127.271 209.765 127.424 209.765 127.585C209.765 127.798 209.814 127.997 209.914 128.183C210.015 128.368 210.153 128.517 210.328 128.631C210.504 128.744 210.705 128.801 210.928 128.801Z" fill="#DFDFDF"/>
<path d="M155.48 143.132V148.499H154.83V143.813H154.799L153.488 144.683V144.023L154.83 143.132H155.48Z" fill="#9397A0"/>
<path d="M158.91 143.132V148.499H158.26V143.813H158.229L156.919 144.683V144.023L158.26 143.132H158.91Z" fill="#9397A0"/>
<path d="M130.013 162.077V167.444H129.363V162.758H129.332L128.021 163.628V162.968L129.363 162.077H130.013Z" fill="#9397A0"/>
<path d="M131.724 167.444L134.125 162.695V162.653H131.358V162.077H134.796V162.685L132.406 167.444H131.724Z" fill="#9397A0"/>
<path d="M155.48 162.077V167.444H154.83V162.758H154.799L153.488 163.628V162.968L154.83 162.077H155.48Z" fill="#9397A0"/>
<path d="M158.743 167.517C158.383 167.517 158.065 167.453 157.789 167.326C157.514 167.197 157.3 167.019 157.147 166.794C156.993 166.567 156.917 166.308 156.919 166.018C156.917 165.791 156.961 165.581 157.052 165.389C157.143 165.195 157.267 165.034 157.424 164.904C157.583 164.773 157.761 164.69 157.956 164.655V164.624C157.7 164.558 157.495 164.413 157.343 164.192C157.191 163.968 157.116 163.714 157.118 163.429C157.116 163.156 157.185 162.913 157.325 162.698C157.465 162.483 157.657 162.313 157.901 162.189C158.148 162.065 158.428 162.003 158.743 162.003C159.054 162.003 159.331 162.065 159.576 162.189C159.821 162.313 160.013 162.483 160.153 162.698C160.294 162.913 160.366 163.156 160.367 163.429C160.366 163.714 160.288 163.968 160.134 164.192C159.982 164.413 159.78 164.558 159.529 164.624V164.655C159.723 164.69 159.898 164.773 160.053 164.904C160.208 165.034 160.333 165.195 160.425 165.389C160.518 165.581 160.565 165.791 160.567 166.018C160.565 166.308 160.486 166.567 160.331 166.794C160.177 167.019 159.963 167.197 159.689 167.326C159.416 167.453 159.101 167.517 158.743 167.517ZM158.743 166.941C158.986 166.941 159.195 166.901 159.372 166.823C159.548 166.744 159.684 166.633 159.78 166.49C159.877 166.347 159.925 166.179 159.927 165.987C159.925 165.784 159.873 165.605 159.77 165.449C159.667 165.294 159.526 165.172 159.348 165.083C159.172 164.993 158.97 164.949 158.743 164.949C158.514 164.949 158.309 164.993 158.129 165.083C157.951 165.172 157.811 165.294 157.708 165.449C157.606 165.605 157.556 165.784 157.558 165.987C157.556 166.179 157.603 166.347 157.697 166.49C157.793 166.633 157.93 166.744 158.108 166.823C158.287 166.901 158.498 166.941 158.743 166.941ZM158.743 164.393C158.935 164.393 159.105 164.355 159.254 164.278C159.404 164.201 159.522 164.094 159.607 163.956C159.693 163.818 159.737 163.656 159.739 163.471C159.737 163.289 159.694 163.131 159.61 162.997C159.526 162.86 159.41 162.755 159.262 162.682C159.113 162.607 158.94 162.569 158.743 162.569C158.542 162.569 158.366 162.607 158.216 162.682C158.066 162.755 157.949 162.86 157.867 162.997C157.785 163.131 157.745 163.289 157.747 163.471C157.745 163.656 157.786 163.818 157.87 163.956C157.956 164.094 158.074 164.201 158.224 164.278C158.374 164.355 158.547 164.393 158.743 164.393Z" fill="#9397A0"/>
<path d="M128.126 186.638V186.167L129.898 184.227C130.106 184 130.277 183.803 130.412 183.635C130.546 183.466 130.646 183.307 130.71 183.158C130.777 183.008 130.81 182.851 130.81 182.686C130.81 182.498 130.764 182.334 130.674 182.196C130.584 182.058 130.462 181.952 130.307 181.877C130.151 181.801 129.976 181.764 129.783 181.764C129.576 181.764 129.396 181.807 129.243 181.892C129.091 181.976 128.973 182.094 128.889 182.246C128.807 182.398 128.766 182.576 128.766 182.781H128.147C128.147 182.466 128.22 182.19 128.365 181.953C128.51 181.715 128.707 181.53 128.957 181.397C129.209 181.264 129.491 181.198 129.804 181.198C130.118 181.198 130.397 181.264 130.64 181.397C130.882 181.53 131.073 181.709 131.211 181.934C131.349 182.16 131.418 182.41 131.418 182.686C131.418 182.884 131.382 183.077 131.31 183.266C131.241 183.453 131.118 183.661 130.944 183.892C130.771 184.121 130.53 184.4 130.223 184.731L129.017 186.02V186.062H131.512V186.638H128.126Z" fill="#9397A0"/>
<path d="M132.353 185.538V185.003L134.712 181.271H135.1V182.099H134.838L133.056 184.919V184.961H136.232V185.538H132.353ZM134.88 186.638V181.271H135.498V186.638H134.88Z" fill="#9397A0"/>
<path d="M153.593 186.638V186.167L155.365 184.227C155.573 184 155.744 183.803 155.878 183.635C156.013 183.466 156.112 183.307 156.177 183.158C156.243 183.008 156.277 182.851 156.277 182.686C156.277 182.498 156.231 182.334 156.14 182.196C156.051 182.058 155.929 181.952 155.773 181.877C155.618 181.801 155.443 181.764 155.249 181.764C155.043 181.764 154.863 181.807 154.709 181.892C154.557 181.976 154.44 182.094 154.356 182.246C154.274 182.398 154.233 182.576 154.233 182.781H153.614C153.614 182.466 153.687 182.19 153.832 181.953C153.977 181.715 154.174 181.53 154.424 181.397C154.675 181.264 154.958 181.198 155.27 181.198C155.585 181.198 155.863 181.264 156.106 181.397C156.349 181.53 156.54 181.709 156.678 181.934C156.816 182.16 156.885 182.41 156.885 182.686C156.885 182.884 156.849 183.077 156.777 183.266C156.707 183.453 156.585 183.661 156.41 183.892C156.237 184.121 155.997 184.4 155.69 184.731L154.484 186.02V186.062H156.979V186.638H153.593Z" fill="#9397A0"/>
<path d="M159.739 186.712C159.431 186.712 159.154 186.651 158.908 186.528C158.661 186.406 158.464 186.238 158.316 186.025C158.167 185.812 158.086 185.569 158.072 185.297H158.701C158.725 185.539 158.835 185.74 159.031 185.899C159.228 186.057 159.464 186.135 159.739 186.135C159.959 186.135 160.154 186.084 160.326 185.981C160.499 185.877 160.634 185.736 160.732 185.556C160.831 185.374 160.881 185.169 160.881 184.94C160.881 184.706 160.83 184.497 160.726 184.314C160.625 184.129 160.485 183.983 160.307 183.876C160.129 183.77 159.925 183.715 159.697 183.714C159.532 183.712 159.364 183.737 159.191 183.79C159.018 183.84 158.875 183.906 158.764 183.986L158.156 183.913L158.481 181.271H161.269V181.848H159.026L158.837 183.431H158.868C158.979 183.343 159.117 183.271 159.283 183.213C159.448 183.156 159.621 183.127 159.801 183.127C160.13 183.127 160.423 183.205 160.679 183.363C160.938 183.518 161.141 183.731 161.287 184.002C161.436 184.273 161.51 184.582 161.51 184.93C161.51 185.272 161.433 185.578 161.279 185.847C161.127 186.114 160.918 186.326 160.651 186.481C160.383 186.635 160.079 186.712 159.739 186.712Z" fill="#9397A0"/>
<path d="M155.344 205.505C154.949 205.505 154.613 205.398 154.335 205.183C154.057 204.966 153.845 204.653 153.698 204.242C153.551 203.83 153.478 203.332 153.478 202.748C153.478 202.168 153.551 201.673 153.698 201.262C153.846 200.85 154.06 200.536 154.337 200.319C154.617 200.101 154.952 199.991 155.344 199.991C155.735 199.991 156.07 200.101 156.347 200.319C156.627 200.536 156.84 200.85 156.987 201.262C157.135 201.673 157.21 202.168 157.21 202.748C157.21 203.332 157.136 203.83 156.989 204.242C156.843 204.653 156.63 204.966 156.353 205.183C156.075 205.398 155.739 205.505 155.344 205.505ZM155.344 204.929C155.735 204.929 156.039 204.74 156.256 204.363C156.472 203.985 156.581 203.447 156.581 202.748C156.581 202.284 156.531 201.888 156.431 201.561C156.333 201.234 156.192 200.985 156.007 200.814C155.823 200.643 155.602 200.557 155.344 200.557C154.956 200.557 154.653 200.749 154.434 201.131C154.216 201.512 154.107 202.051 154.107 202.748C154.107 203.213 154.156 203.608 154.253 203.933C154.351 204.258 154.492 204.505 154.675 204.674C154.861 204.844 155.083 204.929 155.344 204.929Z" fill="#9397A0"/>
<path d="M160.092 200.065V205.432H159.442V200.746H159.411L158.101 201.616V200.956L159.442 200.065H160.092Z" fill="#9397A0"/>
<path d="M46.5957 84.6733V76.0579H50.3619C51.2972 76.0579 52.1178 76.2385 52.8234 76.5995C53.529 76.9605 54.0788 77.461 54.4726 78.101C54.8665 78.741 55.0634 79.4959 55.0634 80.3656C55.0634 81.2272 54.8665 81.982 54.4726 82.6303C54.0788 83.2703 53.529 83.7708 52.8234 84.1318C52.1178 84.4928 51.2972 84.6733 50.3619 84.6733H46.5957ZM48.1957 83.3195H50.288C50.9362 83.3195 51.4942 83.1964 51.9619 82.9503C52.4378 82.7041 52.8029 82.3595 53.0572 81.9164C53.3198 81.4733 53.4511 80.9564 53.4511 80.3656C53.4511 79.7667 53.3198 79.2497 53.0572 78.8149C52.8029 78.3718 52.4378 78.0272 51.9619 77.781C51.4942 77.5349 50.9362 77.4118 50.288 77.4118H48.1957V83.3195Z" fill="#019AFF"/>
<path d="M59.7055 84.7595C58.9753 84.7595 58.3353 84.6159 57.7855 84.3287C57.244 84.0333 56.8214 83.6313 56.5178 83.1226C56.2224 82.6138 56.0748 82.0354 56.0748 81.3872C56.0748 80.7308 56.2183 80.1523 56.5055 79.6518C56.8009 79.1431 57.203 78.7451 57.7117 78.4579C58.2286 78.1708 58.8153 78.0272 59.4717 78.0272C60.1117 78.0272 60.6819 78.1667 61.1824 78.4456C61.683 78.7246 62.0768 79.1185 62.364 79.6272C62.6512 80.1359 62.7948 80.7349 62.7948 81.4241C62.7948 81.4897 62.7907 81.5636 62.7824 81.6456C62.7824 81.7277 62.7783 81.8056 62.7701 81.8795H57.2932V80.8579H61.9578L61.3548 81.1779C61.363 80.8005 61.285 80.4682 61.1209 80.181C60.9568 79.8938 60.7312 79.6682 60.444 79.5041C60.165 79.34 59.8409 79.2579 59.4717 79.2579C59.0942 79.2579 58.7619 79.34 58.4748 79.5041C58.1958 79.6682 57.9742 79.8979 57.8101 80.1933C57.6542 80.4805 57.5763 80.821 57.5763 81.2149V81.461C57.5763 81.8549 57.6665 82.2036 57.8471 82.5072C58.0276 82.8108 58.2819 83.0446 58.6101 83.2087C58.9383 83.3728 59.3158 83.4549 59.7424 83.4549C60.1117 83.4549 60.444 83.3974 60.7394 83.2826C61.0348 83.1677 61.2973 82.9872 61.5271 82.741L62.3517 83.6887C62.0563 84.0333 61.683 84.3 61.2317 84.4887C60.7886 84.6692 60.2799 84.7595 59.7055 84.7595Z" fill="#019AFF"/>
<path d="M67.2879 84.7595C66.5987 84.7595 65.9833 84.6159 65.4418 84.3287C64.9084 84.0333 64.49 83.6313 64.1864 83.1226C63.8828 82.6138 63.731 82.0354 63.731 81.3872C63.731 80.7308 63.8828 80.1523 64.1864 79.6518C64.49 79.1431 64.9084 78.7451 65.4418 78.4579C65.9833 78.1708 66.5987 78.0272 67.2879 78.0272C67.9279 78.0272 68.49 78.1585 68.9741 78.421C69.4664 78.6754 69.8397 79.0528 70.0941 79.5533L68.9126 80.2426C68.7156 79.9308 68.4736 79.701 68.1864 79.5533C67.9074 79.4056 67.6038 79.3318 67.2756 79.3318C66.8982 79.3318 66.5577 79.4138 66.2541 79.5779C65.9505 79.742 65.7125 79.98 65.5402 80.2918C65.3679 80.5954 65.2818 80.9605 65.2818 81.3872C65.2818 81.8138 65.3679 82.1831 65.5402 82.4949C65.7125 82.7985 65.9505 83.0323 66.2541 83.1964C66.5577 83.3605 66.8982 83.4426 67.2756 83.4426C67.6038 83.4426 67.9074 83.3687 68.1864 83.221C68.4736 83.0733 68.7156 82.8436 68.9126 82.5318L70.0941 83.221C69.8397 83.7133 69.4664 84.0949 68.9741 84.3656C68.49 84.6282 67.9279 84.7595 67.2879 84.7595Z" fill="#019AFF"/>
<path d="M74.4171 84.7595C73.6868 84.7595 73.0468 84.6159 72.4971 84.3287C71.9555 84.0333 71.533 83.6313 71.2294 83.1226C70.934 82.6138 70.7863 82.0354 70.7863 81.3872C70.7863 80.7308 70.9299 80.1523 71.2171 79.6518C71.5125 79.1431 71.9145 78.7451 72.4232 78.4579C72.9402 78.1708 73.5268 78.0272 74.1832 78.0272C74.8232 78.0272 75.3935 78.1667 75.894 78.4456C76.3945 78.7246 76.7884 79.1185 77.0755 79.6272C77.3627 80.1359 77.5063 80.7349 77.5063 81.4241C77.5063 81.4897 77.5022 81.5636 77.494 81.6456C77.494 81.7277 77.4899 81.8056 77.4817 81.8795H72.0048V80.8579H76.6694L76.0663 81.1779C76.0745 80.8005 75.9966 80.4682 75.8325 80.181C75.6684 79.8938 75.4427 79.6682 75.1555 79.5041C74.8766 79.34 74.5525 79.2579 74.1832 79.2579C73.8058 79.2579 73.4735 79.34 73.1863 79.5041C72.9073 79.6682 72.6858 79.8979 72.5217 80.1933C72.3658 80.4805 72.2878 80.821 72.2878 81.2149V81.461C72.2878 81.8549 72.3781 82.2036 72.5586 82.5072C72.7391 82.8108 72.9935 83.0446 73.3217 83.2087C73.6499 83.3728 74.0273 83.4549 74.454 83.4549C74.8232 83.4549 75.1555 83.3974 75.4509 83.2826C75.7463 83.1677 76.0089 82.9872 76.2386 82.741L77.0632 83.6887C76.7679 84.0333 76.3945 84.3 75.9432 84.4887C75.5002 84.6692 74.9914 84.7595 74.4171 84.7595Z" fill="#019AFF"/>
<path d="M87.2795 78.0272C87.8046 78.0272 88.2682 78.1297 88.6703 78.3349C89.0805 78.54 89.4005 78.8559 89.6303 79.2826C89.86 79.701 89.9749 80.2426 89.9749 80.9072V84.6733H88.4364V81.1041C88.4364 80.5215 88.3092 80.0867 88.0549 79.7995C87.8005 79.5123 87.4354 79.3687 86.9595 79.3687C86.6231 79.3687 86.3236 79.4426 86.061 79.5903C85.8067 79.7379 85.6056 79.9554 85.458 80.2426C85.3185 80.5297 85.2487 80.8949 85.2487 81.3379V84.6733H83.7103V81.1041C83.7103 80.5215 83.5831 80.0867 83.3287 79.7995C83.0744 79.5123 82.7092 79.3687 82.2333 79.3687C81.8969 79.3687 81.5974 79.4426 81.3349 79.5903C81.0805 79.7379 80.8795 79.9554 80.7318 80.2426C80.5923 80.5297 80.5226 80.8949 80.5226 81.3379V84.6733H78.9841V78.101H80.4487V79.8487L80.1903 79.3318C80.4118 78.9051 80.7318 78.581 81.1503 78.3595C81.5769 78.1379 82.061 78.0272 82.6026 78.0272C83.218 78.0272 83.7513 78.179 84.2026 78.4826C84.6621 78.7861 84.9656 79.2456 85.1133 79.861L84.5103 79.6518C84.7236 79.1595 85.0764 78.7656 85.5687 78.4702C86.061 78.1749 86.6313 78.0272 87.2795 78.0272Z" fill="#019AFF"/>
<path d="M95.5839 84.7595C95.026 84.7595 94.5296 84.6364 94.0947 84.3903C93.6598 84.1441 93.3152 83.7749 93.0608 83.2826C92.8147 82.782 92.6916 82.1503 92.6916 81.3872C92.6916 80.6159 92.8188 79.9841 93.0732 79.4918C93.3357 78.9995 93.6844 78.6344 94.1193 78.3964C94.5624 78.1502 95.0506 78.0272 95.5839 78.0272C96.2321 78.0272 96.8024 78.1667 97.2947 78.4456C97.7952 78.7246 98.1891 79.1144 98.4762 79.6149C98.7716 80.1154 98.9193 80.7061 98.9193 81.3872C98.9193 82.0682 98.7716 82.659 98.4762 83.1595C98.1891 83.66 97.7952 84.0538 97.2947 84.341C96.8024 84.62 96.2321 84.7595 95.5839 84.7595ZM91.9408 84.6733V75.541H93.4793V79.6272L93.3562 81.3749L93.4055 83.1226V84.6733H91.9408ZM95.4116 83.4426C95.7808 83.4426 96.1091 83.3605 96.3962 83.1964C96.6916 83.0323 96.9255 82.7944 97.0978 82.4826C97.2701 82.1708 97.3562 81.8056 97.3562 81.3872C97.3562 80.9605 97.2701 80.5954 97.0978 80.2918C96.9255 79.98 96.6916 79.742 96.3962 79.5779C96.1091 79.4138 95.7808 79.3318 95.4116 79.3318C95.0424 79.3318 94.7101 79.4138 94.4147 79.5779C94.1193 79.742 93.8855 79.98 93.7132 80.2918C93.5408 80.5954 93.4547 80.9605 93.4547 81.3872C93.4547 81.8056 93.5408 82.1708 93.7132 82.4826C93.8855 82.7944 94.1193 83.0323 94.4147 83.1964C94.7101 83.3605 95.0424 83.4426 95.4116 83.4426Z" fill="#019AFF"/>
<path d="M103.468 84.7595C102.737 84.7595 102.097 84.6159 101.548 84.3287C101.006 84.0333 100.583 83.6313 100.28 83.1226C99.9845 82.6138 99.8368 82.0354 99.8368 81.3872C99.8368 80.7308 99.9804 80.1523 100.268 79.6518C100.563 79.1431 100.965 78.7451 101.474 78.4579C101.991 78.1708 102.577 78.0272 103.234 78.0272C103.874 78.0272 104.444 78.1667 104.945 78.4456C105.445 78.7246 105.839 79.1185 106.126 79.6272C106.413 80.1359 106.557 80.7349 106.557 81.4241C106.557 81.4897 106.553 81.5636 106.545 81.6456C106.545 81.7277 106.54 81.8056 106.532 81.8795H101.055V80.8579H105.72L105.117 81.1779C105.125 80.8005 105.047 80.4682 104.883 80.181C104.719 79.8938 104.493 79.6682 104.206 79.5041C103.927 79.34 103.603 79.2579 103.234 79.2579C102.856 79.2579 102.524 79.34 102.237 79.5041C101.958 79.6682 101.736 79.8979 101.572 80.1933C101.416 80.4805 101.338 80.821 101.338 81.2149V81.461C101.338 81.8549 101.429 82.2036 101.609 82.5072C101.79 82.8108 102.044 83.0446 102.372 83.2087C102.7 83.3728 103.078 83.4549 103.505 83.4549C103.874 83.4549 104.206 83.3974 104.501 83.2826C104.797 83.1677 105.059 82.9872 105.289 82.741L106.114 83.6887C105.818 84.0333 105.445 84.3 104.994 84.4887C104.551 84.6692 104.042 84.7595 103.468 84.7595Z" fill="#019AFF"/>
<path d="M108.035 84.6733V78.101H109.499V79.9103L109.327 79.381C109.524 78.9379 109.832 78.6015 110.25 78.3718C110.677 78.142 111.206 78.0272 111.838 78.0272V79.4918C111.772 79.4754 111.711 79.4672 111.653 79.4672C111.596 79.459 111.538 79.4549 111.481 79.4549C110.898 79.4549 110.435 79.6272 110.09 79.9718C109.745 80.3082 109.573 80.8128 109.573 81.4856V84.6733H108.035Z" fill="#019AFF"/>
<path d="M53.3657 108.092C52.9217 108.092 52.4966 108.03 52.0905 107.905C51.6844 107.775 51.3623 107.61 51.124 107.41L51.4895 106.59C51.7169 106.768 51.9985 106.917 52.3342 107.036C52.6699 107.155 53.0137 107.215 53.3657 107.215C53.6635 107.215 53.9045 107.182 54.0885 107.117C54.2726 107.052 54.408 106.966 54.4946 106.858C54.5813 106.744 54.6246 106.617 54.6246 106.476C54.6246 106.303 54.5623 106.164 54.4378 106.062C54.3133 105.953 54.1508 105.869 53.9505 105.81C53.7555 105.745 53.5363 105.685 53.2926 105.631C53.0543 105.577 52.8134 105.515 52.5697 105.444C52.3315 105.369 52.1122 105.274 51.9119 105.16C51.7169 105.041 51.5572 104.884 51.4327 104.689C51.3081 104.494 51.2459 104.245 51.2459 103.942C51.2459 103.633 51.3271 103.352 51.4895 103.097C51.6574 102.837 51.9091 102.631 52.2449 102.48C52.586 102.323 53.0164 102.244 53.5363 102.244C53.8774 102.244 54.2158 102.288 54.5515 102.374C54.8872 102.461 55.1796 102.585 55.4287 102.748L55.0957 103.568C54.8412 103.417 54.5786 103.306 54.3078 103.235C54.0371 103.159 53.7772 103.121 53.5281 103.121C53.2357 103.121 52.9975 103.157 52.8134 103.227C52.6347 103.297 52.5021 103.389 52.4154 103.503C52.3342 103.617 52.2936 103.747 52.2936 103.893C52.2936 104.066 52.3532 104.207 52.4723 104.315C52.5968 104.418 52.7565 104.499 52.9515 104.559C53.1518 104.619 53.3738 104.678 53.6175 104.738C53.8611 104.792 54.1021 104.854 54.3403 104.925C54.584 104.995 54.8033 105.087 54.9982 105.201C55.1986 105.314 55.3583 105.469 55.4774 105.664C55.6019 105.859 55.6642 106.105 55.6642 106.403C55.6642 106.706 55.5803 106.988 55.4124 107.247C55.25 107.502 54.9982 107.708 54.6571 107.865C54.316 108.016 53.8855 108.092 53.3657 108.092Z" fill="#4D4D4D"/>
<path d="M58.4493 108.068C58.0811 108.068 57.7562 108 57.4747 107.865C57.1931 107.724 56.9738 107.513 56.8168 107.231C56.6598 106.944 56.5812 106.584 56.5812 106.151V103.674H57.5965V106.013C57.5965 106.403 57.6831 106.695 57.8564 106.89C58.0351 107.08 58.2869 107.174 58.6117 107.174C58.85 107.174 59.0557 107.126 59.229 107.028C59.4077 106.931 59.5458 106.784 59.6432 106.59C59.7461 106.395 59.7975 106.154 59.7975 105.867V103.674H60.8128V108.011H59.8463V106.841L60.0168 107.199C59.8706 107.48 59.6568 107.697 59.3752 107.848C59.0936 107.995 58.785 108.068 58.4493 108.068Z" fill="#4D4D4D"/>
<path d="M75.6714 108.011V102.325H76.5405L79.0258 106.476H78.571L81.0157 102.325H81.8847L81.8929 108.011H80.8939L80.8857 103.893H81.0969L79.0177 107.361H78.5466L76.4349 103.893H76.6785V108.011H75.6714Z" fill="#4D4D4D"/>
<path d="M85.2804 108.068C84.8364 108.068 84.4411 107.973 84.0946 107.783C83.748 107.589 83.4746 107.323 83.2742 106.988C83.0739 106.652 82.9737 106.27 82.9737 105.842C82.9737 105.409 83.0739 105.027 83.2742 104.697C83.4746 104.361 83.748 104.099 84.0946 103.909C84.4411 103.72 84.8364 103.625 85.2804 103.625C85.7298 103.625 86.1278 103.72 86.4743 103.909C86.8262 104.099 87.0997 104.359 87.2946 104.689C87.495 105.019 87.5951 105.404 87.5951 105.842C87.5951 106.27 87.495 106.652 87.2946 106.988C87.0997 107.323 86.8262 107.589 86.4743 107.783C86.1278 107.973 85.7298 108.068 85.2804 108.068ZM85.2804 107.199C85.5294 107.199 85.7514 107.145 85.9464 107.036C86.1413 106.928 86.2929 106.771 86.4012 106.565C86.5149 106.359 86.5718 106.118 86.5718 105.842C86.5718 105.561 86.5149 105.32 86.4012 105.119C86.2929 104.914 86.1413 104.757 85.9464 104.648C85.7514 104.54 85.5321 104.486 85.2885 104.486C85.0394 104.486 84.8174 104.54 84.6225 104.648C84.433 104.757 84.2814 104.914 84.1676 105.119C84.0539 105.32 83.9971 105.561 83.9971 105.842C83.9971 106.118 84.0539 106.359 84.1676 106.565C84.2814 106.771 84.433 106.928 84.6225 107.036C84.8174 107.145 85.0367 107.199 85.2804 107.199Z" fill="#4D4D4D"/>
<path d="M103.734 108.011V103.219H101.85V102.325H106.674V103.219H104.79V108.011H103.734Z" fill="#4D4D4D"/>
<path d="M109.102 108.068C108.733 108.068 108.409 108 108.127 107.865C107.845 107.724 107.626 107.513 107.469 107.231C107.312 106.944 107.234 106.584 107.234 106.151V103.674H108.249V106.013C108.249 106.403 108.335 106.695 108.509 106.89C108.687 107.08 108.939 107.174 109.264 107.174C109.502 107.174 109.708 107.126 109.881 107.028C110.06 106.931 110.198 106.784 110.296 106.59C110.398 106.395 110.45 106.154 110.45 105.867V103.674H111.465V108.011H110.499V106.841L110.669 107.199C110.523 107.48 110.309 107.697 110.028 107.848C109.746 107.995 109.437 108.068 109.102 108.068Z" fill="#4D4D4D"/>
<path d="M128.128 108.011L126.244 102.325H127.34L129.021 107.467H128.477L130.224 102.325H131.198L132.896 107.467H132.368L134.09 102.325H135.097L133.212 108.011H132.092L130.54 103.373H130.833L129.257 108.011H128.128Z" fill="#4D4D4D"/>
<path d="M137.573 108.068C137.091 108.068 136.669 107.973 136.306 107.783C135.948 107.589 135.67 107.323 135.469 106.988C135.274 106.652 135.177 106.27 135.177 105.842C135.177 105.409 135.272 105.027 135.461 104.697C135.656 104.361 135.921 104.099 136.257 103.909C136.598 103.72 136.985 103.625 137.419 103.625C137.841 103.625 138.217 103.717 138.548 103.901C138.878 104.085 139.138 104.345 139.327 104.681C139.517 105.017 139.611 105.412 139.611 105.867C139.611 105.91 139.609 105.959 139.603 106.013C139.603 106.067 139.601 106.118 139.595 106.167H135.981V105.493H139.059L138.661 105.704C138.667 105.455 138.615 105.236 138.507 105.046C138.399 104.857 138.25 104.708 138.06 104.6C137.876 104.491 137.662 104.437 137.419 104.437C137.169 104.437 136.95 104.491 136.761 104.6C136.577 104.708 136.43 104.86 136.322 105.054C136.219 105.244 136.168 105.469 136.168 105.729V105.891C136.168 106.151 136.227 106.381 136.346 106.581C136.466 106.782 136.633 106.936 136.85 107.044C137.067 107.153 137.316 107.207 137.597 107.207C137.841 107.207 138.06 107.169 138.255 107.093C138.45 107.017 138.623 106.898 138.775 106.736L139.319 107.361C139.124 107.589 138.878 107.765 138.58 107.889C138.288 108.008 137.952 108.068 137.573 108.068Z" fill="#4D4D4D"/>
<path d="M154.504 108.011V103.219H152.619V102.325H157.444V103.219H155.559V108.011H154.504Z" fill="#4D4D4D"/>
<path d="M160.6 103.625C160.946 103.625 161.255 103.693 161.526 103.828C161.802 103.963 162.018 104.172 162.175 104.453C162.332 104.73 162.411 105.087 162.411 105.526V108.011H161.396V105.656C161.396 105.271 161.304 104.984 161.119 104.795C160.941 104.605 160.689 104.51 160.364 104.51C160.126 104.51 159.915 104.559 159.731 104.657C159.547 104.754 159.403 104.9 159.3 105.095C159.203 105.285 159.154 105.526 159.154 105.818V108.011H158.139V101.984H159.154V104.843L158.935 104.486C159.086 104.21 159.306 103.999 159.593 103.852C159.885 103.701 160.221 103.625 160.6 103.625Z" fill="#4D4D4D"/>
<path d="M180.824 104.941H183.659V105.834H180.824V104.941ZM180.914 108.011H179.858V102.325H184.008V103.211H180.914V108.011Z" fill="#4D4D4D"/>
<path d="M184.853 108.011V103.674H185.819V104.868L185.705 104.518C185.835 104.226 186.038 104.004 186.315 103.852C186.596 103.701 186.945 103.625 187.362 103.625V104.592C187.319 104.581 187.278 104.575 187.24 104.575C187.203 104.57 187.165 104.567 187.127 104.567C186.742 104.567 186.436 104.681 186.209 104.908C185.982 105.13 185.868 105.463 185.868 105.907V108.011H184.853Z" fill="#4D4D4D"/>
<path d="M206.315 108.092C205.871 108.092 205.446 108.03 205.04 107.905C204.634 107.775 204.311 107.61 204.073 107.41L204.439 106.59C204.666 106.768 204.948 106.917 205.283 107.036C205.619 107.155 205.963 107.215 206.315 107.215C206.613 107.215 206.854 107.182 207.038 107.117C207.222 107.052 207.357 106.966 207.444 106.858C207.53 106.744 207.574 106.617 207.574 106.476C207.574 106.303 207.512 106.164 207.387 106.062C207.262 105.953 207.1 105.869 206.9 105.81C206.705 105.745 206.485 105.685 206.242 105.631C206.004 105.577 205.763 105.515 205.519 105.444C205.281 105.369 205.061 105.274 204.861 105.16C204.666 105.041 204.506 104.884 204.382 104.689C204.257 104.494 204.195 104.245 204.195 103.942C204.195 103.633 204.276 103.352 204.439 103.097C204.607 102.837 204.858 102.631 205.194 102.48C205.535 102.323 205.966 102.244 206.485 102.244C206.827 102.244 207.165 102.288 207.501 102.374C207.836 102.461 208.129 102.585 208.378 102.748L208.045 103.568C207.79 103.417 207.528 103.306 207.257 103.235C206.986 103.159 206.726 103.121 206.477 103.121C206.185 103.121 205.947 103.157 205.763 103.227C205.584 103.297 205.451 103.389 205.365 103.503C205.283 103.617 205.243 103.747 205.243 103.893C205.243 104.066 205.302 104.207 205.421 104.315C205.546 104.418 205.706 104.499 205.901 104.559C206.101 104.619 206.323 104.678 206.567 104.738C206.81 104.792 207.051 104.854 207.289 104.925C207.533 104.995 207.752 105.087 207.947 105.201C208.148 105.314 208.307 105.469 208.427 105.664C208.551 105.859 208.613 106.105 208.613 106.403C208.613 106.706 208.529 106.988 208.362 107.247C208.199 107.502 207.947 107.708 207.606 107.865C207.265 108.016 206.835 108.092 206.315 108.092Z" fill="#4D4D4D"/>
<path d="M212.235 108.011V107.134L212.178 106.947V105.412C212.178 105.114 212.089 104.884 211.91 104.721C211.731 104.554 211.461 104.47 211.098 104.47C210.854 104.47 210.613 104.508 210.375 104.583C210.142 104.659 209.945 104.765 209.782 104.9L209.384 104.161C209.617 103.982 209.893 103.85 210.213 103.763C210.538 103.671 210.873 103.625 211.22 103.625C211.848 103.625 212.333 103.777 212.674 104.08C213.02 104.378 213.193 104.841 213.193 105.469V108.011H212.235ZM210.871 108.068C210.546 108.068 210.261 108.014 210.018 107.905C209.774 107.792 209.585 107.637 209.449 107.442C209.319 107.242 209.254 107.017 209.254 106.768C209.254 106.525 209.311 106.305 209.425 106.11C209.544 105.915 209.736 105.761 210.001 105.647C210.267 105.534 210.619 105.477 211.057 105.477H212.316V106.151H211.13C210.784 106.151 210.551 106.208 210.432 106.322C210.313 106.43 210.253 106.565 210.253 106.728C210.253 106.912 210.326 107.058 210.473 107.166C210.619 107.274 210.822 107.329 211.082 107.329C211.331 107.329 211.553 107.272 211.748 107.158C211.948 107.044 212.092 106.877 212.178 106.655L212.349 107.264C212.251 107.518 212.075 107.716 211.821 107.857C211.572 107.997 211.255 108.068 210.871 108.068Z" fill="#4D4D4D"/>
<path d="M86.4979 32.436C86.4979 30.2956 84.7628 28.5605 82.6225 28.5605C80.4822 28.5605 78.7471 30.2956 78.7471 32.436V53.6566C78.7471 55.7969 80.4822 57.532 82.6225 57.532C84.7628 57.532 86.4979 55.7969 86.4979 53.6566V32.436Z" fill="#DFDFDF"/>
<path d="M184.43 32.436C184.43 30.2956 182.694 28.5605 180.554 28.5605C178.414 28.5605 176.679 30.2956 176.679 32.436V53.6566C176.679 55.7969 178.414 57.532 180.554 57.532C182.694 57.532 184.43 55.7969 184.43 53.6566V32.436Z" fill="#DFDFDF"/>
<path d="M211.399 240C241.438 240 265.789 215.649 265.789 185.61C265.789 155.571 241.438 131.22 211.399 131.22C181.36 131.22 157.009 155.571 157.009 185.61C157.009 215.649 181.36 240 211.399 240Z" fill="#F1F1F1"/>
<path d="M211.399 232.721C237.417 232.721 258.51 211.629 258.51 185.61C258.51 159.592 237.417 138.5 211.399 138.5C185.38 138.5 164.288 159.592 164.288 185.61C164.288 211.629 185.38 232.721 211.399 232.721Z" fill="white"/>
<path d="M210.292 143.587L210.222 152.406C210.216 153.201 210.856 153.851 211.651 153.857C212.446 153.863 213.096 153.224 213.102 152.428L213.172 143.61C213.178 142.814 212.538 142.164 211.743 142.158C210.948 142.152 210.298 142.792 210.292 143.587Z" fill="#DFDFDF"/>
<path d="M210.106 219.239L210.017 228.057C210.009 228.853 210.648 229.504 211.443 229.512C212.238 229.52 212.89 228.882 212.898 228.086L212.986 219.267C212.994 218.472 212.355 217.821 211.56 217.813C210.765 217.805 210.113 218.443 210.106 219.239Z" fill="#DFDFDF"/>
<path d="M244.6 184.433C243.805 184.427 243.155 185.066 243.149 185.862C243.143 186.657 243.782 187.307 244.578 187.313L253.396 187.382C254.192 187.389 254.842 186.749 254.848 185.954C254.854 185.158 254.214 184.508 253.419 184.502L244.6 184.433Z" fill="#DFDFDF"/>
<path d="M169.399 183.839C168.604 183.832 167.954 184.472 167.948 185.267C167.942 186.063 168.581 186.713 169.377 186.719L178.195 186.788C178.991 186.794 179.64 186.155 179.647 185.359C179.653 184.564 179.013 183.914 178.218 183.908L169.399 183.839Z" fill="#DFDFDF"/>
<path d="M230.985 153.729C231.78 153.729 232.425 153.084 232.425 152.289C232.425 151.493 231.78 150.849 230.985 150.849C230.19 150.849 229.545 151.493 229.545 152.289C229.545 153.084 230.19 153.729 230.985 153.729Z" fill="#DFDFDF"/>
<path d="M191.807 220.372C192.603 220.372 193.247 219.728 193.247 218.932C193.247 218.137 192.603 217.492 191.807 217.492C191.012 217.492 190.367 218.137 190.367 218.932C190.367 219.728 191.012 220.372 191.807 220.372Z" fill="#DFDFDF"/>
<path d="M245.019 167.988C245.815 167.988 246.459 167.343 246.459 166.548C246.459 165.753 245.815 165.108 245.019 165.108C244.224 165.108 243.579 165.753 243.579 166.548C243.579 167.343 244.224 167.988 245.019 167.988Z" fill="#DFDFDF"/>
<path d="M177.774 206.113C178.569 206.113 179.214 205.468 179.214 204.673C179.214 203.877 178.569 203.232 177.774 203.232C176.979 203.232 176.334 203.877 176.334 204.673C176.334 205.468 176.979 206.113 177.774 206.113Z" fill="#DFDFDF"/>
<path d="M244.716 206.636C245.511 206.636 246.156 205.991 246.156 205.196C246.156 204.401 245.511 203.756 244.716 203.756C243.92 203.756 243.275 204.401 243.275 205.196C243.275 205.991 243.92 206.636 244.716 206.636Z" fill="#DFDFDF"/>
<path d="M178.077 167.464C178.872 167.464 179.517 166.819 179.517 166.024C179.517 165.229 178.872 164.584 178.077 164.584C177.281 164.584 176.637 165.229 176.637 166.024C176.637 166.819 177.281 167.464 178.077 167.464Z" fill="#DFDFDF"/>
<path d="M230.462 220.677C231.257 220.677 231.902 220.032 231.902 219.237C231.902 218.441 231.257 217.796 230.462 217.796C229.666 217.796 229.021 218.441 229.021 219.237C229.021 220.032 229.666 220.677 230.462 220.677Z" fill="#DFDFDF"/>
<path d="M192.336 153.425C193.131 153.425 193.776 152.78 193.776 151.985C193.776 151.189 193.131 150.544 192.336 150.544C191.54 150.544 190.896 151.189 190.896 151.985C190.896 152.78 191.54 153.425 192.336 153.425Z" fill="#DFDFDF"/>
<path d="M226.009 174.785C230.313 173.104 250.413 164.458 250.413 164.458L250.486 164.594L250.632 164.866L250.706 165.003C250.706 165.003 232.419 177.021 228.627 179.676C224.836 182.331 211.466 186.51 211.466 186.51L211.22 186.06L211.073 185.788L210.827 185.332C210.827 185.332 221.709 176.461 226.009 174.785Z" fill="#019AFF"/>
<path d="M197.73 188.543C194.431 188.019 178.788 186.359 178.788 186.359V185.741C178.788 185.741 194.378 183.599 197.641 182.992C200.903 182.384 210.822 184.877 210.822 184.877V186.218C210.822 186.218 201.029 189.067 197.73 188.543Z" fill="#019AFF"/>
<path d="M211.399 188.491C212.99 188.491 214.279 187.201 214.279 185.61C214.279 184.02 212.99 182.73 211.399 182.73C209.808 182.73 208.519 184.02 208.519 185.61C208.519 187.201 209.808 188.491 211.399 188.491Z" fill="#DFDFDF"/>
</svg>
