<svg width="24" height="24" viewBox="0 0 24 24" fill="none" xmlns="http://www.w3.org/2000/svg">
<path fill-rule="evenodd" clip-rule="evenodd" d="M0 0.872726C0 0.390733 0.390733 0 0.872727 0H12C18.6274 0 24 5.37258 24 12C24 18.6274 18.6274 24 12 24H9.17813L9.17801 23.9999H9.81806V18.1729C10.5005 18.4141 11.2349 18.5453 11.9999 18.5453C15.6148 18.5453 18.5453 15.6148 18.5453 11.9999C18.5453 8.38493 15.6148 5.45443 11.9999 5.45443C11.2349 5.45443 10.5005 5.58567 9.81806 5.82688V5.45443H5.45443V11.9999V20.3482L0 14.9991V0.872726Z" fill="#019AFF"/>
<circle cx="11.9999" cy="11.9999" r="2.18182" fill="#7E7E7E"/>
</svg>
