<svg width="26" height="26" viewBox="0 0 26 26" fill="none" xmlns="http://www.w3.org/2000/svg">
<path d="M21.7406 11.5536L21.882 12.4627C22.2123 14.5937 21.8449 16.7743 20.8346 18.6794C19.8242 20.5845 18.2252 22.112 16.2758 23.034C14.3264 23.9561 12.1312 24.2233 10.0176 23.7958C7.904 23.3683 5.98518 22.269 4.54735 20.6619C3.10952 19.0548 2.22971 17.026 2.03914 14.878C1.84856 12.73 2.35744 10.578 3.48987 8.74283C4.6223 6.90769 6.31761 5.48777 8.32296 4.69484C10.3283 3.90191 12.5363 3.77846 14.6175 4.3429" stroke="#4D4D4D" stroke-width="1.5" stroke-linecap="round" stroke-linejoin="round"/>
<path d="M12.1927 18.6611V17.6611" stroke="#4D4D4D" stroke-width="1.5" stroke-linecap="round" stroke-linejoin="round"/>
<path d="M12.1927 8.66113V9.66113" stroke="#4D4D4D" stroke-width="1.5" stroke-linecap="round" stroke-linejoin="round"/>
<path d="M14.4655 10.4793H11.0564C10.6344 10.4793 10.2298 10.6469 9.93142 10.9453C9.63307 11.2436 9.46545 11.6483 9.46545 12.0702C9.46545 12.4922 9.63307 12.8968 9.93142 13.1952C10.2298 13.4935 10.6344 13.6611 11.0564 13.6611H13.3291C13.751 13.6611 14.1557 13.8287 14.454 14.1271C14.7524 14.4254 14.92 14.8301 14.92 15.252C14.92 15.674 14.7524 16.0786 14.454 16.377C14.1557 16.6753 13.751 16.8429 13.3291 16.8429H9.46545" stroke="#4D4D4D" stroke-width="1.5" stroke-linecap="round" stroke-linejoin="round"/>
<path d="M21.4655 1.66113V7.66113" stroke="#4D4D4D" stroke-width="1.5" stroke-linecap="round" stroke-linejoin="round"/>
<path d="M18.4655 4.66113H24.4655" stroke="#4D4D4D" stroke-width="1.5" stroke-linecap="round" stroke-linejoin="round"/>
</svg>
