<svg width="26" height="24" viewBox="0 0 26 24" fill="none" xmlns="http://www.w3.org/2000/svg">
<path d="M21.7406 9.55363L21.882 10.4627C22.2123 12.5937 21.8449 14.7743 20.8346 16.6794C19.8242 18.5845 18.2252 20.112 16.2758 21.034C14.3264 21.9561 12.1312 22.2233 10.0176 21.7958C7.904 21.3683 5.98518 20.269 4.54735 18.6619C3.10952 17.0548 2.22971 15.026 2.03914 12.878C1.84856 10.73 2.35744 8.57798 3.48987 6.74283C4.6223 4.90769 6.31761 3.48777 8.32296 2.69484C10.3283 1.90191 12.5363 1.77846 14.6175 2.3429" stroke="#4D4D4D" stroke-width="1.5" stroke-linecap="round" stroke-linejoin="round"/>
<path d="M11.7273 16.6611V15.6611" stroke="#4D4D4D" stroke-width="1.5" stroke-linecap="round" stroke-linejoin="round"/>
<path d="M11.7273 6.66113V7.66113" stroke="#4D4D4D" stroke-width="1.5" stroke-linecap="round" stroke-linejoin="round"/>
<path d="M14 8.47929H10.5909C10.169 8.47929 9.76432 8.64691 9.46597 8.94526C9.16761 9.24361 9 9.64827 9 10.0702C9 10.4921 9.16761 10.8968 9.46597 11.1951C9.76432 11.4935 10.169 11.6611 10.5909 11.6611H12.8636C13.2856 11.6611 13.6902 11.8287 13.9886 12.1271C14.2869 12.4254 14.4545 12.8301 14.4545 13.252C14.4545 13.674 14.2869 14.0786 13.9886 14.377C13.6902 14.6753 13.2856 14.8429 12.8636 14.8429H9" stroke="#4D4D4D" stroke-width="1.5" stroke-linecap="round" stroke-linejoin="round"/>
<path d="M18.4655 5.66113H24.4655" stroke="#4D4D4D" stroke-width="1.5" stroke-linecap="round" stroke-linejoin="round"/>
</svg>
