<svg width="101" height="25" viewBox="0 0 101 25" fill="none" xmlns="http://www.w3.org/2000/svg">
<rect width="100.034" height="24" fill="white"/>
<path fill-rule="evenodd" clip-rule="evenodd" d="M0 3.89253C0 3.54135 0.284692 3.25665 0.635877 3.25665H8.74331C13.5721 3.25665 17.4866 7.17117 17.4866 12C17.4866 16.8288 13.5721 20.7433 8.7433 20.7433H6.68729L6.68709 20.7431H7.1535V16.4975C7.65073 16.6732 8.18579 16.7689 8.7432 16.7689C11.3771 16.7689 13.5123 14.6337 13.5123 11.9998C13.5123 9.36589 11.3771 7.2307 8.7432 7.2307C8.18579 7.2307 7.65073 7.32633 7.1535 7.50207V7.2307H3.97412V11.9998V18.0825L0 14.1851V3.89253Z" fill="#019AFF"/>
<ellipse cx="8.74326" cy="11.9999" rx="1.58969" ry="1.58969" fill="#7E7E7E"/>
<path d="M34.7003 9.77183C34.5711 10.5602 34.2673 11.284 33.7891 11.9432C33.3109 12.5894 32.6582 13.1128 31.8311 13.5135C31.0168 13.9142 30.0539 14.1145 28.9424 14.1145H26.8874L26.015 19H22.6998L25.1038 5.39039H30.474C31.8957 5.39039 32.9684 5.70704 33.6922 6.34035C34.416 6.96073 34.7779 7.80729 34.7779 8.88003C34.7779 9.20315 34.752 9.50042 34.7003 9.77183ZM29.1363 11.5167C30.377 11.5167 31.1073 10.935 31.327 9.77183C31.3529 9.56504 31.3658 9.41641 31.3658 9.32593C31.3658 8.91235 31.2301 8.59569 30.9587 8.37597C30.7002 8.14333 30.2995 8.02701 29.7567 8.02701H27.9537L27.3527 11.5167H29.1363ZM35.1079 13.5717C35.3018 12.4602 35.683 11.4843 36.2517 10.6442C36.8204 9.80414 37.5054 9.15791 38.3067 8.70555C39.1081 8.25319 39.9546 8.02701 40.8464 8.02701C41.609 8.02701 42.2487 8.18211 42.7657 8.4923C43.2827 8.80249 43.6575 9.20961 43.8902 9.71367L44.1616 8.18211H47.4767L45.5574 19H42.2423L42.5331 17.4684C42.1195 17.9725 41.5961 18.3796 40.9627 18.6898C40.3294 19 39.6315 19.1551 38.869 19.1551C38.1064 19.1551 37.4279 18.9806 36.8333 18.6316C36.2517 18.2827 35.7994 17.7915 35.4763 17.1582C35.1531 16.512 34.9916 15.7559 34.9916 14.89C34.9916 14.4764 35.0304 14.037 35.1079 13.5717ZM43.2116 13.5911C43.2504 13.3584 43.2698 13.1452 43.2698 12.9513C43.2698 12.318 43.0824 11.8204 42.7076 11.4585C42.3457 11.0966 41.8804 10.9157 41.3117 10.9157C40.6526 10.9157 40.0516 11.1548 39.5087 11.633C38.9659 12.0983 38.6234 12.7445 38.4812 13.5717C38.4424 13.8043 38.4231 14.0176 38.4231 14.2114C38.4231 14.8447 38.604 15.3488 38.9659 15.7236C39.3407 16.0855 39.806 16.2664 40.3618 16.2664C41.0209 16.2664 41.6219 16.0273 42.1647 15.5491C42.7076 15.0709 43.0565 14.4182 43.2116 13.5911ZM52.3373 8.18211L53.6556 14.9481L57.3391 8.18211H60.9257L51.3291 24.1375H47.7619L51.2128 18.6316L48.6537 8.18211H52.3373Z" fill="#019AFF"/>
<path d="M67.7079 5.39039C68.9616 5.39039 70.0408 5.61657 70.9455 6.06893C71.8632 6.50837 72.5611 7.13521 73.0393 7.94946C73.5304 8.75079 73.776 9.69428 73.776 10.78C73.776 11.1548 73.7308 11.6265 73.6403 12.1952C73.4076 13.5264 72.9036 14.709 72.1281 15.743C71.3656 16.777 70.3897 17.5783 69.2007 18.147C68.0245 18.7157 66.7256 19 65.3039 19H60.2052L62.6091 5.39039H67.7079ZM65.5947 16.1695C66.8484 16.1695 67.8888 15.8205 68.716 15.1226C69.5432 14.4247 70.0602 13.4489 70.267 12.1952C70.3316 11.8075 70.3639 11.4843 70.3639 11.2259C70.3639 10.2694 70.0731 9.53273 69.4915 9.01574C68.9099 8.48583 68.0827 8.22088 67.01 8.22088H65.4202L64.0244 16.1695H65.5947ZM74.6011 13.5717C74.795 12.4602 75.1763 11.4843 75.745 10.6442C76.3137 9.80414 76.9987 9.15791 77.8 8.70555C78.6013 8.25319 79.4479 8.02701 80.3397 8.02701C81.1022 8.02701 81.742 8.18211 82.259 8.4923C82.776 8.80249 83.1508 9.20961 83.3834 9.71367L83.6548 8.18211H86.97L85.0507 19H81.7355L82.0263 17.4684C81.6127 17.9725 81.0893 18.3796 80.456 18.6898C79.8227 19 79.1248 19.1551 78.3622 19.1551C77.5997 19.1551 76.9211 18.9806 76.3266 18.6316C75.745 18.2827 75.2926 17.7915 74.9695 17.1582C74.6464 16.512 74.4848 15.7559 74.4848 14.89C74.4848 14.4764 74.5236 14.037 74.6011 13.5717ZM82.7049 13.5911C82.7436 13.3584 82.763 13.1452 82.763 12.9513C82.763 12.318 82.5756 11.8204 82.2008 11.4585C81.8389 11.0966 81.3736 10.9157 80.805 10.9157C80.1458 10.9157 79.5448 11.1548 79.002 11.633C78.4591 12.0983 78.1166 12.7445 77.9745 13.5717C77.9357 13.8043 77.9163 14.0176 77.9163 14.2114C77.9163 14.8447 78.0973 15.3488 78.4591 15.7236C78.834 16.0855 79.2992 16.2664 79.855 16.2664C80.5142 16.2664 81.1151 16.0273 81.658 15.5491C82.2008 15.0709 82.5498 14.4182 82.7049 13.5911ZM91.8305 8.18211L93.1488 14.9481L96.8323 8.18211H100.419L90.8224 24.1375H87.2552L90.7061 18.6316L88.147 8.18211H91.8305Z" fill="#7E7E7E"/>
</svg>
