<svg width="155" height="100" viewBox="0 0 155 100" fill="none" xmlns="http://www.w3.org/2000/svg">
<path d="M123.238 24.4484C123.454 23.2869 123.821 22.1588 124.331 21.0933L122.389 18.4714L125.904 14.354L128.817 15.8786C129.789 15.209 130.845 14.6718 131.959 14.2811L132.444 11.0425L137.839 10.6201L138.81 13.7422C139.972 13.9568 141.101 14.3258 142.165 14.8395L144.787 12.8973L148.904 16.4175L147.38 19.3308C148.052 20.3034 148.591 21.3615 148.982 22.4771L152.216 22.9627L152.638 28.3619L149.516 29.333C149.303 30.4957 148.934 31.6242 148.419 32.6881L150.361 35.3149L146.846 39.4275L143.932 37.9029C142.96 38.575 141.902 39.1139 140.786 39.5052L140.301 42.7437L134.906 43.1662L133.935 40.0393C132.773 39.8263 131.645 39.4589 130.58 38.9468L127.953 40.889L123.845 37.3299L125.37 34.4167C124.699 33.4435 124.16 32.3855 123.768 31.2703L120.534 30.7848L120.112 25.3855L123.234 24.4144L123.238 24.4484ZM130.556 26.0847C130.44 27.299 130.709 28.5188 131.324 29.5722C131.939 30.6256 132.869 31.4595 133.983 31.9564C135.097 32.4532 136.338 32.588 137.533 32.3416C138.728 32.0953 139.815 31.4802 140.641 30.5832C141.468 29.6862 141.992 28.5524 142.14 27.3417C142.288 26.131 142.052 24.9043 141.466 23.8347C140.879 22.7651 139.972 21.9065 138.872 21.3798C137.772 20.8531 136.534 20.685 135.333 20.8991C134.08 21.1226 132.934 21.7507 132.071 22.6871C131.208 23.6236 130.676 24.817 130.556 26.0847Z" fill="#F1F1F1"/>
<path d="M4.99326 78.65C5.03253 77.2551 5.25954 75.8718 5.66817 74.5375L2.91513 71.8524L6.28481 66.424L9.9361 67.6865C10.9559 66.7295 12.0989 65.913 13.3349 65.2587L13.3058 61.3987L19.5305 59.942L21.2153 63.4137C22.6103 63.4525 23.9936 63.6795 25.3279 64.0886L28.0421 61.3355L33.4704 64.7052L32.208 68.3565C33.165 69.3763 33.9815 70.5193 34.6358 71.7553L38.4958 71.7262L39.9525 77.946L36.476 79.6211C36.4327 81.0161 36.2041 82.399 35.7962 83.7337L38.5492 86.443L35.1796 91.8763L31.5283 90.6139C30.5094 91.5719 29.3662 92.3885 28.1295 93.0416L28.1586 96.9017L21.9388 98.3583L20.2491 94.8867C18.8579 94.8382 17.4796 94.6031 16.1511 94.1875L13.4417 96.9405L8.00849 93.5708L9.27091 89.9195C8.31393 88.8998 7.49747 87.7567 6.84319 86.5207L2.95883 86.5499L1.5022 80.33L4.97384 78.6403L4.99326 78.65ZM13.9904 80.398C14.3023 81.7168 14.998 82.9135 15.9897 83.8371C16.9814 84.7607 18.2245 85.3696 19.5621 85.5871C20.8997 85.8045 22.2717 85.6207 23.5049 85.0588C24.738 84.497 25.777 83.5822 26.4906 82.4302C27.2042 81.2782 27.5603 79.9405 27.5141 78.5861C27.4679 77.2318 27.0213 75.9215 26.2308 74.8208C25.4404 73.7201 24.3414 72.8784 23.0728 72.4019C21.8042 71.9254 20.4228 71.8356 19.1032 72.1438C18.2233 72.3488 17.3926 72.7257 16.6589 73.2528C15.9252 73.7799 15.3029 74.4468 14.8277 75.2152C14.3526 75.9836 14.034 76.8384 13.8903 77.7303C13.7466 78.6223 13.7806 79.5338 13.9904 80.4126V80.398Z" fill="#F1F1F1"/>
<path d="M16.1648 26.784C16.3234 25.9071 16.6011 25.056 16.9902 24.2544L15.5336 22.2733L18.1847 19.1707L20.3696 20.3214C21.1026 19.8157 21.8994 19.4092 22.7391 19.1124L23.0984 16.6847L27.1672 16.3643L27.8955 18.7192C28.7713 18.8822 29.6218 19.1597 30.4252 19.5446L32.4062 18.0879L35.504 20.739L34.3581 22.924C34.8642 23.656 35.2693 24.453 35.5623 25.2934L37.99 25.6479L38.3105 29.7167L35.9604 30.4256C35.7998 31.3014 35.5239 32.152 35.1399 32.9553L36.5965 34.9315L33.9454 38.0341L31.7605 36.8834C31.0286 37.391 30.2316 37.7977 29.391 38.0924L29.0366 40.5201L24.9677 40.8357L24.2345 38.4808C23.3578 38.3214 22.5068 38.0438 21.7048 37.6554L19.7287 39.112L16.626 36.4609L17.7719 34.276C17.2658 33.5439 16.8608 32.7469 16.5678 31.9065L14.1401 31.5472L13.8245 27.4784L16.1793 26.7501L16.1648 26.784ZM21.6757 28.7602C21.7444 29.621 22.0666 30.4422 22.6016 31.1201C23.1367 31.7979 23.8606 32.3021 24.6819 32.5688C25.5033 32.8356 26.3852 32.853 27.2164 32.6189C28.0477 32.3848 28.7909 31.9096 29.3523 31.2534C29.9137 30.5972 30.2681 29.7894 30.3707 28.932C30.4733 28.0745 30.3196 27.2059 29.9289 26.4357C29.5383 25.6656 28.9281 25.0284 28.1756 24.6048C27.4231 24.1811 26.562 23.9899 25.7009 24.0553C25.1273 24.0988 24.5679 24.2552 24.0549 24.5155C23.5418 24.7757 23.0852 25.1347 22.7112 25.5719C22.3373 26.009 22.0533 26.5156 21.8756 27.0628C21.6979 27.6099 21.63 28.1868 21.6757 28.7602Z" fill="#F1F1F1"/>
<path d="M123.445 70.6042C123.585 69.8513 123.824 69.12 124.154 68.4289L122.886 66.7295L125.164 64.0639L127.043 65.035C127.671 64.5992 128.356 64.2498 129.077 63.9959L129.383 61.8984L132.879 61.6265L133.505 63.6512C134.259 63.7894 134.99 64.0278 135.681 64.3601L137.38 63.0928L140.046 65.37L139.074 67.2442C139.51 67.8746 139.86 68.5604 140.114 69.2835L142.211 69.5894L142.483 73.0853L140.458 73.7117C140.32 74.4651 140.082 75.1967 139.749 75.8869L141.017 77.5863L138.739 80.2471L136.865 79.276C136.234 79.7099 135.548 80.0592 134.826 80.3151L134.52 82.4078L131.024 82.6797L130.398 80.6598C129.645 80.5194 128.914 80.281 128.223 79.9509L126.523 81.2182L123.848 78.941L124.819 77.0668C124.383 76.4381 124.034 75.7539 123.78 75.0323L121.687 74.7265L121.41 71.2305L123.435 70.6042H123.445ZM128.179 72.2987C128.236 73.0418 128.513 73.7511 128.974 74.3366C129.435 74.9222 130.06 75.3577 130.769 75.5879C131.477 75.818 132.239 75.8325 132.956 75.6295C133.673 75.4265 134.313 75.0151 134.796 74.4475C135.279 73.8799 135.583 73.1817 135.669 72.4414C135.754 71.701 135.618 70.9519 135.278 70.289C134.937 69.6261 134.407 69.0793 133.755 68.7179C133.104 68.3565 132.359 68.1968 131.617 68.259C130.626 68.3407 129.708 68.8117 129.063 69.5689C128.419 70.326 128.101 71.3076 128.179 72.2987Z" fill="#F1F1F1"/>
<path d="M125.675 58.0332C131.769 32.8073 116.259 7.41796 91.0329 1.3245C65.8071 -4.76897 40.4177 10.7409 34.3243 35.9668C28.2308 61.1927 43.7407 86.582 68.9666 92.6755C94.1924 98.769 119.582 83.2591 125.675 58.0332Z" fill="#019AFF"/>
<path d="M90.0705 5.30898C113.096 10.8709 127.253 34.0454 121.691 57.0707C116.129 80.096 92.9543 94.2529 69.929 88.691C46.9037 83.1291 32.7468 59.9546 38.3087 36.9293C43.8706 13.904 67.0452 -0.252924 90.0705 5.30898Z" stroke="#F1F1F1" stroke-width="0.2"/>
<path d="M83.7465 67.7969C83.7446 68.5632 83.5154 69.3117 83.0879 69.9476C82.6605 70.5836 82.0539 71.0784 81.3451 71.3695C80.6362 71.6606 79.857 71.7348 79.1059 71.5828C78.3548 71.4308 77.6658 71.0594 77.1259 70.5156C76.586 69.9718 76.2197 69.28 76.0732 68.5279C75.9266 67.7757 76.0066 66.997 76.3028 66.2903C76.5991 65.5836 77.0983 64.9807 77.7374 64.5579C78.3765 64.1351 79.1266 63.9114 79.8929 63.9151C80.9175 63.9225 81.8976 64.3348 82.6195 65.062C83.3414 65.7892 83.7465 66.7723 83.7465 67.7969Z" fill="white"/>
<path d="M72.1391 62.8229C73.1271 61.7593 74.3207 60.9072 75.6475 60.3182C76.9743 59.7293 78.4068 59.4156 79.8583 59.3962C81.3099 59.3768 82.7503 59.6521 84.0924 60.2055C85.4344 60.7589 86.6502 61.5788 87.6663 62.6156C89.6449 64.613 92.7352 61.5509 90.7566 59.5535C89.3344 58.1201 87.6397 56.9857 85.7725 56.2171C83.9052 55.4484 81.9031 55.061 79.8838 55.0777C77.8646 55.0943 75.8691 55.5148 74.0148 56.3142C72.1605 57.1136 70.4849 58.2758 69.0864 59.7325C67.155 61.7582 70.2171 64.858 72.158 62.8229H72.1391Z" fill="white"/>
<path d="M58.986 44.8267C64.8747 39.7389 71.9034 36.5354 79.7706 36.5166C87.6242 36.4045 95.2241 39.2962 101.017 44.6005C103.052 46.4849 106.152 43.4605 104.107 41.5384C97.5039 35.4225 88.8179 32.0533 79.8177 32.1166C70.7633 32.1166 62.7171 35.8853 55.9428 41.6986C53.8228 43.5359 56.8849 46.6168 59.0143 44.789L58.986 44.8267Z" fill="white"/>
<path d="M64.1777 54.7858C66.1409 52.5947 68.5369 50.8343 71.2146 49.6154C73.8922 48.3966 76.7933 47.7459 79.735 47.7043C82.6767 47.6627 85.5951 48.2311 88.3061 49.3737C91.0171 50.5163 93.462 52.2083 95.4864 54.343C97.4462 56.3498 100.537 53.2877 98.5768 51.2715C96.1479 48.733 93.2235 46.7204 89.9849 45.3585C86.7463 43.9967 83.2625 43.3144 79.7495 43.3542C76.2364 43.3939 72.7689 44.1548 69.562 45.5896C66.355 47.0245 63.477 49.1027 61.1061 51.6954C59.2218 53.7494 62.265 56.8492 64.1777 54.7858Z" fill="white"/>
<path d="M115.058 36.6276C116.2 30.1662 111.889 24.0018 105.427 22.859C98.966 21.7162 92.8016 26.0278 91.6588 32.4891C90.516 38.9505 94.8276 45.1149 101.289 46.2577C107.75 47.4005 113.915 43.089 115.058 36.6276Z" fill="white"/>
<path d="M108.256 31.2266L106.57 29.541L99.0217 37.0893L100.707 38.7749L108.256 31.2266Z" fill="#019AFF"/>
<path d="M100.712 29.5415L99.0261 31.2271L106.574 38.7754L108.26 37.0898L100.712 29.5415Z" fill="#019AFF"/>
</svg>
