<svg width="335" height="200" viewBox="0 0 335 200" fill="none" xmlns="http://www.w3.org/2000/svg">
<path d="M191.04 42.4206C191.312 41.6779 191.803 41.0351 192.447 40.5766C193.092 40.1181 193.86 39.8655 194.651 39.8521H219.334C219.76 39.8362 220.185 39.914 220.578 40.0802C220.971 40.2463 221.323 40.4967 221.609 40.8137C221.895 41.1307 222.107 41.5065 222.232 41.9147C222.357 42.3229 222.39 42.7535 222.331 43.1761L215.954 96.6768C215.819 97.5876 215.364 98.4205 214.671 99.0267C213.978 99.6328 213.091 99.9726 212.171 99.9853H133.852C133.427 100.001 133.003 99.9243 132.611 99.7592C132.219 99.5941 131.868 99.3451 131.583 99.0297C131.297 98.7143 131.084 98.3402 130.959 97.9337C130.834 97.5271 130.799 97.0981 130.858 96.6768L136.204 51.7264C136.34 50.8157 136.795 49.9827 137.488 49.3766C138.181 48.7704 139.067 48.4306 139.988 48.4179H182.607C184.454 48.3864 186.248 47.7967 187.753 46.7262C189.258 45.6558 190.404 44.1548 191.04 42.4206Z" fill="#019AFF"/>
<path d="M132.267 97.5212H214.104L218.766 42.4541H136.932L132.267 97.5212Z" fill="#F1F1F1"/>
<path d="M132.267 97.5212H214.104L217.477 42.4541H136.932L132.267 97.5212Z" fill="#DFDFDF"/>
<path d="M132.267 97.5213H214.104L216.916 40.709H135.082L132.267 97.5213Z" fill="#F1F1F1"/>
<path d="M132.267 97.5213H214.104L215.217 40.709H135.082L132.267 97.5213Z" fill="#DFDFDF"/>
<path d="M132.267 97.521H214.104L214.591 39.167H132.757L132.267 97.521Z" fill="#F1F1F1"/>
<path d="M132.266 97.5216H214.104L212.423 40.2715H131.116L132.266 97.5216Z" fill="#DFDFDF"/>
<path d="M132.266 97.5213H214.103L211.673 40.709H129.839L132.266 97.5213Z" fill="#F1F1F1"/>
<path d="M155.43 75.8098C160.285 74.1695 164.349 70.3525 164.73 65.8916C165.574 56.0558 153.597 50.6239 154.834 39.2589C156.014 28.4173 167.386 27.6431 171.945 29.1407C176.98 30.7969 175.254 35.6355 170.695 35.0104C162.791 33.9285 157.823 25.3365 161.576 15.5896C164.381 8.30795 171.374 5.56028 174.214 4.72266" stroke="#019AFF" stroke-width="0.684789" stroke-miterlimit="10" stroke-dasharray="2.59 2.59"/>
<path d="M180.473 2.6567C179.664 0.150165 174.245 1.05125 175.301 4.32878C176.358 7.6063 181.282 5.1664 180.473 2.6567Z" fill="#4D4D4D"/>
<path d="M172.354 1.65444C172.396 0.553472 173.925 -0.293674 176.089 0.0965837C178.253 0.486841 180.286 1.94634 180.286 1.94634C180.286 1.94634 178.151 3.24085 175.965 3.47882C173.779 3.71678 172.313 2.75224 172.354 1.65444Z" fill="#DFDFDF"/>
<path d="M180.287 1.94035C179.164 1.94035 178.044 1.90862 176.924 1.87372C175.804 1.83882 174.681 1.78171 173.561 1.69287C174.684 1.69287 175.807 1.72143 176.927 1.75633C178.047 1.79123 179.17 1.84834 180.287 1.94035Z" fill="#4D4D4D"/>
<path d="M174.528 0.673828C175.166 0.978869 175.767 1.35456 176.321 1.79384C176.002 1.6441 175.692 1.47455 175.394 1.28618C175.094 1.09911 174.805 0.894645 174.528 0.673828Z" fill="#4D4D4D"/>
<path d="M177.469 1.83447C176.895 2.29964 176.273 2.70173 175.613 3.0338C176.19 2.56806 176.816 2.16595 177.479 1.83447H177.469Z" fill="#4D4D4D"/>
<path d="M177.796 1.21729C178.116 1.37102 178.396 1.59692 178.614 1.87723C178.454 1.80167 178.304 1.70684 178.167 1.59485C178.029 1.48356 177.905 1.35688 177.796 1.21729Z" fill="#4D4D4D"/>
<path d="M174.416 8.17497C175.092 9.04433 176.827 8.83492 178.353 7.25485C179.879 5.67479 180.688 3.29834 180.688 3.29834C180.688 3.29834 178.188 3.48871 176.281 4.56747C174.375 5.64623 173.737 7.30245 174.416 8.17497Z" fill="#DFDFDF"/>
<path d="M180.689 3.29834C179.775 3.93291 178.887 4.63727 177.996 5.31943C177.104 6.00159 176.231 6.70595 175.378 7.43253C176.292 6.79797 177.18 6.09677 178.068 5.41461C178.957 4.73246 179.823 4.02809 180.689 3.29834Z" fill="#4D4D4D"/>
<path d="M176.75 7.68298C176.92 7.37478 177.071 7.05696 177.204 6.73113C177.339 6.40439 177.453 6.06954 177.546 5.72852C177.376 6.03646 177.225 6.35431 177.093 6.68036C176.959 7.00759 176.845 7.34237 176.75 7.68298Z" fill="#4D4D4D"/>
<path d="M178.469 5.02912C177.727 4.98943 176.982 5.02878 176.248 5.14651C176.618 5.16872 176.989 5.16872 177.359 5.14651C177.731 5.12837 178.101 5.08917 178.469 5.02912Z" fill="#4D4D4D"/>
<path d="M179.081 5.34514C179.166 5.18845 179.232 5.02232 179.278 4.85018C179.325 4.6793 179.352 4.5037 179.36 4.32666C179.192 4.64075 179.096 4.98893 179.081 5.34514Z" fill="#4D4D4D"/>
<path d="M180.474 2.65746C180.295 2.71564 180.103 2.71934 179.921 2.66809C179.74 2.61684 179.578 2.51294 179.456 2.36956C179.334 2.22617 179.257 2.04974 179.235 1.86262C179.213 1.67549 179.247 1.48609 179.333 1.31839C179.419 1.15069 179.553 1.01224 179.717 0.92057C179.882 0.828901 180.07 0.788136 180.258 0.803439C180.445 0.818742 180.624 0.889423 180.772 1.00653C180.92 1.12364 181.029 1.28191 181.087 1.4613C181.164 1.70113 181.142 1.96169 181.028 2.18589C180.913 2.41009 180.714 2.57967 180.474 2.65746Z" fill="#4D4D4D"/>
<path d="M181.056 4.4683C180.877 4.52625 180.685 4.5298 180.504 4.47851C180.323 4.42722 180.161 4.32338 180.039 4.18012C179.917 4.03687 179.84 3.86063 179.818 3.67369C179.796 3.48674 179.83 3.29749 179.916 3.12985C180.001 2.96221 180.135 2.82371 180.299 2.73186C180.463 2.64001 180.651 2.59893 180.839 2.61382C181.026 2.62871 181.205 2.6989 181.353 2.81552C181.501 2.93213 181.611 3.08993 181.669 3.26897C181.707 3.38793 181.722 3.51332 181.712 3.63799C181.702 3.76265 181.668 3.88415 181.611 3.99553C181.554 4.10691 181.476 4.20599 181.381 4.28711C181.286 4.36823 181.175 4.4298 181.056 4.4683Z" fill="#4D4D4D"/>
<path d="M132.266 97.5217H214.103L210.234 41.5635H128.399L132.266 97.5217Z" fill="#DFDFDF"/>
<path d="M132.267 97.5211H214.104L209.617 42.0439H127.783L132.267 97.5211Z" fill="#F1F1F1"/>
<path d="M173.248 45.8957C173.253 45.538 173.329 45.1848 173.473 44.8572C173.617 44.5296 173.825 44.2344 174.086 43.989C174.346 43.7436 174.653 43.553 174.989 43.4288C175.324 43.3045 175.681 43.249 176.039 43.2656H200.721C201.677 43.3022 202.593 43.6552 203.327 44.2691C204.06 44.883 204.569 45.723 204.773 46.6573L214.526 96.609C214.89 98.4806 213.669 100.001 211.797 100.001H133.478C131.603 100.001 129.778 98.4806 129.423 96.609L121.379 55.4297C121.015 53.5581 122.236 52.0379 124.107 52.0379H166.73C170.43 52.0379 173.122 49.491 173.248 45.8957Z" fill="#019AFF"/>
<path opacity="0.35" d="M217.219 60.826C224.337 53.7075 224.337 42.166 217.219 35.0474C210.1 27.9289 198.559 27.9289 191.44 35.0474C184.322 42.166 184.322 53.7075 191.44 60.826C198.559 67.9446 210.1 67.9446 217.219 60.826Z" fill="white"/>
<path opacity="0.4" d="M190.048 49.2476C189.742 49.2476 189.449 49.1262 189.233 48.9102C189.017 48.6941 188.896 48.4011 188.896 48.0956C188.9 43.6732 190.658 39.4331 193.784 36.3049C196.91 33.1768 201.149 31.4158 205.571 31.4082C205.877 31.4082 206.17 31.5296 206.386 31.7456C206.602 31.9617 206.723 32.2547 206.723 32.5602C206.723 32.8658 206.602 33.1588 206.386 33.3749C206.17 33.5909 205.877 33.7123 205.571 33.7123C201.762 33.7199 198.111 35.2365 195.417 37.9301C192.724 40.6237 191.207 44.2748 191.2 48.084C191.201 48.2363 191.172 48.3874 191.115 48.5285C191.058 48.6696 190.973 48.7979 190.866 48.9061C190.759 49.0143 190.632 49.1002 190.491 49.1588C190.351 49.2174 190.2 49.2476 190.048 49.2476Z" fill="white"/>
<path d="M204.332 66.7451C200.613 66.7457 196.976 65.6432 193.883 63.577C190.79 61.5107 188.379 58.5737 186.955 55.1372C185.531 51.7007 185.158 47.9191 185.883 44.2707C186.609 40.6223 188.4 37.2709 191.03 34.6404C193.66 32.0099 197.011 30.2184 200.659 29.4925C204.308 28.7665 208.089 29.1388 211.526 30.5622C214.963 31.9856 217.9 34.3961 219.967 37.489C222.033 40.5819 223.137 44.2182 223.137 47.938C223.131 52.9238 221.148 57.704 217.623 61.2297C214.098 64.7555 209.318 66.739 204.332 66.7451ZM204.332 30.2858C200.84 30.2852 197.427 31.3203 194.523 33.26C191.619 35.1998 189.356 37.9571 188.019 41.1832C186.682 44.4094 186.332 47.9595 187.014 51.3845C187.695 54.8095 189.376 57.9556 191.846 60.4249C194.315 62.8942 197.461 64.5757 200.886 65.2569C204.311 65.938 207.861 65.5881 211.087 64.2515C214.313 62.9149 217.071 60.6515 219.01 57.7477C220.95 54.8439 221.985 51.4301 221.984 47.938C221.978 43.2582 220.117 38.7718 216.808 35.4627C213.498 32.1536 209.012 30.2919 204.332 30.2858Z" fill="#019AFF"/>
<path d="M221.086 60.9985C221.113 60.9739 221.142 60.9508 221.172 60.9293C224.484 56.6471 226.042 51.2651 225.53 45.8759C225.018 40.4867 222.475 35.4943 218.416 31.912C214.358 28.3297 209.088 26.4261 203.677 26.5876C198.266 26.7491 193.119 28.9636 189.281 32.7816C185.444 36.5996 183.203 41.7348 183.013 47.1449C182.824 52.5551 184.7 57.8345 188.261 61.9117C191.822 65.9888 196.802 68.5579 202.188 69.0976C207.574 69.6373 212.964 68.107 217.264 64.8175L219.723 62.355L221.086 60.9985ZM204.332 66.1683C200.726 66.1688 197.201 65.1001 194.203 63.0972C191.204 61.0943 188.867 58.2472 187.487 54.9159C186.106 51.5847 185.745 47.9189 186.448 44.3822C187.151 40.8455 188.887 37.5968 191.437 35.0468C193.986 32.4969 197.235 30.7603 200.771 30.0566C204.308 29.3529 207.974 29.7138 211.305 31.0935C214.637 32.4733 217.484 34.81 219.487 37.8082C221.491 40.8064 222.56 44.3313 222.56 47.9372C222.56 52.7719 220.64 57.4086 217.221 60.8275C213.803 64.2464 209.167 66.1675 204.332 66.1683Z" fill="#4D4D4D"/>
<path d="M220.557 64.3255L219.734 63.5018C219.582 63.3486 219.496 63.1416 219.496 62.9258C219.496 62.71 219.582 62.503 219.734 62.3498L217.222 64.8584C217.146 64.9336 217.085 65.0233 217.044 65.1222C217.003 65.2211 216.981 65.3272 216.981 65.4344C216.981 65.5416 217.003 65.6477 217.044 65.7465C217.085 65.8454 217.146 65.9351 217.222 66.0104L218.222 67.0127C218.564 66.4511 219.529 65.3653 220.557 64.3255Z" fill="#019AFF"/>
<path d="M219.734 62.3498C219.582 62.503 219.496 62.71 219.496 62.9258C219.496 63.1416 219.582 63.3486 219.734 63.5018L220.557 64.3255C221.374 63.4703 222.255 62.6788 223.193 61.958L222.234 60.9989C222.095 60.8607 221.911 60.7776 221.715 60.7649C221.52 60.7522 221.326 60.8108 221.171 60.9298C221.141 60.9512 221.112 60.9743 221.084 60.9989L219.734 62.3498Z" fill="#019AFF"/>
<path d="M238.627 76.9147L223.65 61.771C223.596 61.7192 223.432 61.7912 223.195 61.9496C222.258 62.6704 221.377 63.4619 220.56 64.317C219.532 65.3568 218.567 66.4426 218.236 66.9955C218.129 67.1741 218.089 67.3008 218.135 67.3469L233.112 82.4905C233.472 82.8558 233.901 83.1459 234.375 83.3439C234.848 83.5419 235.356 83.6438 235.869 83.6438C236.382 83.6438 236.89 83.5419 237.364 83.3439C237.837 83.1459 238.267 82.8558 238.627 82.4905C239.359 81.7474 239.77 80.746 239.77 79.7026C239.77 78.6592 239.359 77.6578 238.627 76.9147Z" fill="#DFDFDF"/>
<path opacity="0.4" d="M128 57.4854L150 57.4854" stroke="white" stroke-width="1.6179" stroke-linecap="round"/>
<path d="M132.581 48.3704C129.668 47.7109 126.983 46.287 124.802 44.2451C128.421 41.4908 130.892 37.4952 131.741 33.0278C132.589 28.5604 131.755 23.937 129.399 20.0478C127.043 16.1585 123.331 13.2784 118.978 11.962C114.626 10.6456 109.94 10.9859 105.824 12.9175C101.707 14.8491 98.4503 18.2354 96.6809 22.4243C94.9115 26.6132 94.7544 31.3087 96.2397 35.6065C97.7251 39.9044 100.748 43.5008 104.726 45.7034C108.704 47.9059 113.357 48.5588 117.788 47.5364C122.475 49.5148 127.702 49.8095 132.581 48.3704Z" fill="#DFDFDF"/>
<path d="M108.291 25.1545C108.008 25.0368 107.753 24.8543 107.546 24.6204C107.339 24.3864 107.184 24.107 107.093 23.8023C107.002 23.4977 106.977 23.1756 107.021 22.8597C107.064 22.5437 107.174 22.2418 107.342 21.9761C108.183 20.6563 109.733 19.2404 112.603 19.0232C116.277 18.7434 119.736 21.0155 119.987 24.6366C120.163 27.1425 118.477 28.8132 116.197 30.0661C115.655 30.229 115.476 30.9432 115.44 31.6825C115.411 32.1981 115.204 32.685 114.857 33.0517C114.51 33.4185 114.047 33.64 113.555 33.6747C113.289 33.6952 113.021 33.6604 112.768 33.5724C112.514 33.4844 112.279 33.3449 112.077 33.1618C111.875 32.9787 111.71 32.7556 111.59 32.5054C111.47 32.2551 111.398 31.9826 111.379 31.7034L111.355 31.0268C111.276 29.8949 111.26 28.9677 112.312 28.1366C113.739 27.0214 115.133 26.8376 115.006 25.0166C114.995 24.739 114.931 24.4665 114.816 24.2157C114.702 23.965 114.54 23.7412 114.341 23.558C114.141 23.3749 113.908 23.236 113.656 23.15C113.404 23.0641 113.138 23.0327 112.874 23.0578C112.449 23.0848 112.035 23.217 111.668 23.4435C111.301 23.67 110.99 23.9844 110.762 24.3609C110.501 24.7665 110.116 25.0663 109.67 25.2107C109.224 25.355 108.744 25.3352 108.311 25.1545H108.291ZM116.66 37.8555C116.697 38.436 116.569 39.015 116.292 39.5196C116.016 40.0242 115.603 40.4317 115.106 40.691C114.609 40.9503 114.05 41.0497 113.499 40.9767C112.949 40.9037 112.431 40.6616 112.011 40.2808C111.591 39.9 111.288 39.3976 111.14 38.8368C110.993 38.2759 111.006 37.6818 111.18 37.1292C111.354 36.5765 111.679 36.0901 112.116 35.731C112.553 35.372 113.081 35.1564 113.635 35.1115C114.007 35.0779 114.381 35.1227 114.736 35.2433C115.09 35.364 115.419 35.5579 115.701 35.8138C115.983 36.0696 116.213 36.3821 116.377 36.7328C116.542 37.0835 116.638 37.4652 116.66 37.8555Z" fill="white"/>
<path d="M100.82 146H98.02L91.68 136.42V146H88.88V132.02H91.68L98.02 141.62V132.02H100.82V146ZM108.507 146.18C107.44 146.18 106.48 145.947 105.627 145.48C104.774 145 104.1 144.327 103.607 143.46C103.127 142.594 102.887 141.594 102.887 140.46C102.887 139.327 103.134 138.327 103.627 137.46C104.134 136.594 104.82 135.927 105.687 135.46C106.554 134.98 107.52 134.74 108.587 134.74C109.654 134.74 110.62 134.98 111.487 135.46C112.354 135.927 113.034 136.594 113.527 137.46C114.034 138.327 114.287 139.327 114.287 140.46C114.287 141.594 114.027 142.594 113.507 143.46C113 144.327 112.307 145 111.427 145.48C110.56 145.947 109.587 146.18 108.507 146.18ZM108.507 143.74C109.014 143.74 109.487 143.62 109.927 143.38C110.38 143.127 110.74 142.754 111.007 142.26C111.274 141.767 111.407 141.167 111.407 140.46C111.407 139.407 111.127 138.6 110.567 138.04C110.02 137.467 109.347 137.18 108.547 137.18C107.747 137.18 107.074 137.467 106.527 138.04C105.994 138.6 105.727 139.407 105.727 140.46C105.727 141.514 105.987 142.327 106.507 142.9C107.04 143.46 107.707 143.74 108.507 143.74ZM120.387 140.42C120.387 139.3 120.607 138.307 121.047 137.44C121.5 136.574 122.113 135.907 122.887 135.44C123.66 134.974 124.52 134.74 125.467 134.74C126.187 134.74 126.873 134.9 127.527 135.22C128.18 135.527 128.7 135.94 129.087 136.46V131.2H131.927V146H129.087V144.36C128.74 144.907 128.253 145.347 127.627 145.68C127 146.014 126.273 146.18 125.447 146.18C124.513 146.18 123.66 145.94 122.887 145.46C122.113 144.98 121.5 144.307 121.047 143.44C120.607 142.56 120.387 141.554 120.387 140.42ZM129.107 140.46C129.107 139.78 128.973 139.2 128.707 138.72C128.44 138.227 128.08 137.854 127.627 137.6C127.173 137.334 126.687 137.2 126.167 137.2C125.647 137.2 125.167 137.327 124.727 137.58C124.287 137.834 123.927 138.207 123.647 138.7C123.38 139.18 123.247 139.754 123.247 140.42C123.247 141.087 123.38 141.674 123.647 142.18C123.927 142.674 124.287 143.054 124.727 143.32C125.18 143.587 125.66 143.72 126.167 143.72C126.687 143.72 127.173 143.594 127.627 143.34C128.08 143.074 128.44 142.7 128.707 142.22C128.973 141.727 129.107 141.14 129.107 140.46ZM133.941 140.42C133.941 139.3 134.161 138.307 134.601 137.44C135.055 136.574 135.661 135.907 136.421 135.44C137.195 134.974 138.055 134.74 139.001 134.74C139.828 134.74 140.548 134.907 141.161 135.24C141.788 135.574 142.288 135.994 142.661 136.5V134.92H145.481V146H142.661V144.38C142.301 144.9 141.801 145.334 141.161 145.68C140.535 146.014 139.808 146.18 138.981 146.18C138.048 146.18 137.195 145.94 136.421 145.46C135.661 144.98 135.055 144.307 134.601 143.44C134.161 142.56 133.941 141.554 133.941 140.42ZM142.661 140.46C142.661 139.78 142.528 139.2 142.261 138.72C141.995 138.227 141.635 137.854 141.181 137.6C140.728 137.334 140.241 137.2 139.721 137.2C139.201 137.2 138.721 137.327 138.281 137.58C137.841 137.834 137.481 138.207 137.201 138.7C136.935 139.18 136.801 139.754 136.801 140.42C136.801 141.087 136.935 141.674 137.201 142.18C137.481 142.674 137.841 143.054 138.281 143.32C138.735 143.587 139.215 143.72 139.721 143.72C140.241 143.72 140.728 143.594 141.181 143.34C141.635 143.074 141.995 142.7 142.261 142.22C142.528 141.727 142.661 141.14 142.661 140.46ZM151.476 137.22V142.58C151.476 142.954 151.563 143.227 151.736 143.4C151.923 143.56 152.229 143.64 152.656 143.64H153.956V146H152.196C149.836 146 148.656 144.854 148.656 142.56V137.22H147.336V134.92H148.656V132.18H151.476V134.92H153.956V137.22H151.476ZM155.25 140.42C155.25 139.3 155.47 138.307 155.91 137.44C156.363 136.574 156.97 135.907 157.73 135.44C158.503 134.974 159.363 134.74 160.31 134.74C161.137 134.74 161.857 134.907 162.47 135.24C163.097 135.574 163.597 135.994 163.97 136.5V134.92H166.79V146H163.97V144.38C163.61 144.9 163.11 145.334 162.47 145.68C161.843 146.014 161.117 146.18 160.29 146.18C159.357 146.18 158.503 145.94 157.73 145.46C156.97 144.98 156.363 144.307 155.91 143.44C155.47 142.56 155.25 141.554 155.25 140.42ZM163.97 140.46C163.97 139.78 163.837 139.2 163.57 138.72C163.303 138.227 162.943 137.854 162.49 137.6C162.037 137.334 161.55 137.2 161.03 137.2C160.51 137.2 160.03 137.327 159.59 137.58C159.15 137.834 158.79 138.207 158.51 138.7C158.243 139.18 158.11 139.754 158.11 140.42C158.11 141.087 158.243 141.674 158.51 142.18C158.79 142.674 159.15 143.054 159.59 143.32C160.043 143.587 160.523 143.72 161.03 143.72C161.55 143.72 162.037 143.594 162.49 143.34C162.943 143.074 163.303 142.7 163.57 142.22C163.837 141.727 163.97 141.14 163.97 140.46ZM179.37 137.22H177.43V146H174.59V137.22H173.33V134.92H174.59V134.36C174.59 133 174.977 132 175.75 131.36C176.523 130.72 177.69 130.42 179.25 130.46V132.82C178.57 132.807 178.097 132.92 177.83 133.16C177.563 133.4 177.43 133.834 177.43 134.46V134.92H179.37V137.22ZM186.105 146.18C185.038 146.18 184.078 145.947 183.225 145.48C182.371 145 181.698 144.327 181.205 143.46C180.725 142.594 180.485 141.594 180.485 140.46C180.485 139.327 180.731 138.327 181.225 137.46C181.731 136.594 182.418 135.927 183.285 135.46C184.151 134.98 185.118 134.74 186.185 134.74C187.251 134.74 188.218 134.98 189.085 135.46C189.951 135.927 190.631 136.594 191.125 137.46C191.631 138.327 191.885 139.327 191.885 140.46C191.885 141.594 191.625 142.594 191.105 143.46C190.598 144.327 189.905 145 189.025 145.48C188.158 145.947 187.185 146.18 186.105 146.18ZM186.105 143.74C186.611 143.74 187.085 143.62 187.525 143.38C187.978 143.127 188.338 142.754 188.605 142.26C188.871 141.767 189.005 141.167 189.005 140.46C189.005 139.407 188.725 138.6 188.165 138.04C187.618 137.467 186.945 137.18 186.145 137.18C185.345 137.18 184.671 137.467 184.125 138.04C183.591 138.6 183.325 139.407 183.325 140.46C183.325 141.514 183.585 142.327 184.105 142.9C184.638 143.46 185.305 143.74 186.105 143.74ZM204.399 134.92V146H201.579V144.6C201.219 145.08 200.745 145.46 200.159 145.74C199.585 146.007 198.959 146.14 198.279 146.14C197.412 146.14 196.645 145.96 195.979 145.6C195.312 145.227 194.785 144.687 194.399 143.98C194.025 143.26 193.839 142.407 193.839 141.42V134.92H196.639V141.02C196.639 141.9 196.859 142.58 197.299 143.06C197.739 143.527 198.339 143.76 199.099 143.76C199.872 143.76 200.479 143.527 200.919 143.06C201.359 142.58 201.579 141.9 201.579 141.02V134.92H204.399ZM213.301 134.76C214.621 134.76 215.688 135.18 216.501 136.02C217.315 136.847 217.721 138.007 217.721 139.5V146H214.921V139.88C214.921 139 214.701 138.327 214.261 137.86C213.821 137.38 213.221 137.14 212.461 137.14C211.688 137.14 211.075 137.38 210.621 137.86C210.181 138.327 209.961 139 209.961 139.88V146H207.161V134.92H209.961V136.3C210.335 135.82 210.808 135.447 211.381 135.18C211.968 134.9 212.608 134.76 213.301 134.76ZM219.664 140.42C219.664 139.3 219.884 138.307 220.324 137.44C220.777 136.574 221.391 135.907 222.164 135.44C222.937 134.974 223.797 134.74 224.744 134.74C225.464 134.74 226.151 134.9 226.804 135.22C227.457 135.527 227.977 135.94 228.364 136.46V131.2H231.204V146H228.364V144.36C228.017 144.907 227.531 145.347 226.904 145.68C226.277 146.014 225.551 146.18 224.724 146.18C223.791 146.18 222.937 145.94 222.164 145.46C221.391 144.98 220.777 144.307 220.324 143.44C219.884 142.56 219.664 141.554 219.664 140.42ZM228.384 140.46C228.384 139.78 228.251 139.2 227.984 138.72C227.717 138.227 227.357 137.854 226.904 137.6C226.451 137.334 225.964 137.2 225.444 137.2C224.924 137.2 224.444 137.327 224.004 137.58C223.564 137.834 223.204 138.207 222.924 138.7C222.657 139.18 222.524 139.754 222.524 140.42C222.524 141.087 222.657 141.674 222.924 142.18C223.204 142.674 223.564 143.054 224.004 143.32C224.457 143.587 224.937 143.72 225.444 143.72C225.964 143.72 226.451 143.594 226.904 143.34C227.357 143.074 227.717 142.7 227.984 142.22C228.251 141.727 228.384 141.14 228.384 140.46ZM237.559 131.8L237.239 141.46H234.879L234.539 131.8H237.559ZM236.119 146.14C235.612 146.14 235.192 145.987 234.859 145.68C234.539 145.36 234.379 144.967 234.379 144.5C234.379 144.034 234.539 143.647 234.859 143.34C235.192 143.02 235.612 142.86 236.119 142.86C236.612 142.86 237.019 143.02 237.339 143.34C237.659 143.647 237.819 144.034 237.819 144.5C237.819 144.967 237.659 145.36 237.339 145.68C237.019 145.987 236.612 146.14 236.119 146.14ZM244.629 131.8L244.309 141.46H241.949L241.609 131.8H244.629ZM243.189 146.14C242.682 146.14 242.262 145.987 241.929 145.68C241.609 145.36 241.449 144.967 241.449 144.5C241.449 144.034 241.609 143.647 241.929 143.34C242.262 143.02 242.682 142.86 243.189 142.86C243.682 142.86 244.089 143.02 244.409 143.34C244.729 143.647 244.889 144.034 244.889 144.5C244.889 144.967 244.729 145.36 244.409 145.68C244.089 145.987 243.682 146.14 243.189 146.14Z" fill="#4D4D4D"/>
<path d="M10.7608 163.242V164.278H8.10076V173H6.82676V164.278H4.15276V163.242H10.7608ZM16.137 165.188C16.7156 165.188 17.2383 165.314 17.705 165.566C18.1716 165.809 18.5356 166.178 18.797 166.672C19.0676 167.167 19.203 167.769 19.203 168.478V173H17.943V168.66C17.943 167.895 17.7516 167.312 17.369 166.91C16.9863 166.5 16.4636 166.294 15.801 166.294C15.129 166.294 14.5923 166.504 14.191 166.924C13.799 167.344 13.603 167.956 13.603 168.758V173H12.329V162.64H13.603V166.42C13.855 166.028 14.2003 165.725 14.639 165.51C15.087 165.296 15.5863 165.188 16.137 165.188ZM28.2841 168.87C28.2841 169.113 28.2701 169.37 28.2421 169.64H22.1101C22.1567 170.396 22.4134 170.989 22.8801 171.418C23.3561 171.838 23.9301 172.048 24.6021 172.048C25.1527 172.048 25.6101 171.922 25.9741 171.67C26.3474 171.409 26.6087 171.064 26.7581 170.634H28.1301C27.9247 171.372 27.5141 171.974 26.8981 172.44C26.2821 172.898 25.5167 173.126 24.6021 173.126C23.8741 173.126 23.2207 172.963 22.6421 172.636C22.0727 172.31 21.6247 171.848 21.2981 171.25C20.9714 170.644 20.8081 169.944 20.8081 169.15C20.8081 168.357 20.9667 167.662 21.2841 167.064C21.6014 166.467 22.0447 166.01 22.6141 165.692C23.1927 165.366 23.8554 165.202 24.6021 165.202C25.3301 165.202 25.9741 165.361 26.5341 165.678C27.0941 165.996 27.5234 166.434 27.8221 166.994C28.1301 167.545 28.2841 168.17 28.2841 168.87ZM26.9681 168.604C26.9681 168.119 26.8607 167.704 26.6461 167.358C26.4314 167.004 26.1374 166.738 25.7641 166.56C25.4001 166.374 24.9941 166.28 24.5461 166.28C23.9021 166.28 23.3514 166.486 22.8941 166.896C22.4461 167.307 22.1894 167.876 22.1241 168.604H26.9681ZM31.2397 166.574C31.4637 166.136 31.781 165.795 32.1917 165.552C32.6117 165.31 33.1204 165.188 33.7177 165.188V166.504H33.3817C31.9537 166.504 31.2397 167.279 31.2397 168.828V173H29.9657V165.328H31.2397V166.574ZM42.1884 168.87C42.1884 169.113 42.1744 169.37 42.1464 169.64H36.0144C36.061 170.396 36.3177 170.989 36.7844 171.418C37.2604 171.838 37.8344 172.048 38.5064 172.048C39.057 172.048 39.5144 171.922 39.8784 171.67C40.2517 171.409 40.513 171.064 40.6624 170.634H42.0344C41.829 171.372 41.4184 171.974 40.8024 172.44C40.1864 172.898 39.421 173.126 38.5064 173.126C37.7784 173.126 37.125 172.963 36.5464 172.636C35.977 172.31 35.529 171.848 35.2024 171.25C34.8757 170.644 34.7124 169.944 34.7124 169.15C34.7124 168.357 34.871 167.662 35.1884 167.064C35.5057 166.467 35.949 166.01 36.5184 165.692C37.097 165.366 37.7597 165.202 38.5064 165.202C39.2344 165.202 39.8784 165.361 40.4384 165.678C40.9984 165.996 41.4277 166.434 41.7264 166.994C42.0344 167.545 42.1884 168.17 42.1884 168.87ZM40.8724 168.604C40.8724 168.119 40.765 167.704 40.5504 167.358C40.3357 167.004 40.0417 166.738 39.6684 166.56C39.3044 166.374 38.8984 166.28 38.4504 166.28C37.8064 166.28 37.2557 166.486 36.7984 166.896C36.3504 167.307 36.0937 167.876 36.0284 168.604H40.8724ZM48.2604 164.082C48.0177 164.082 47.8124 163.998 47.6444 163.83C47.4764 163.662 47.3924 163.457 47.3924 163.214C47.3924 162.972 47.4764 162.766 47.6444 162.598C47.8124 162.43 48.0177 162.346 48.2604 162.346C48.4937 162.346 48.6897 162.43 48.8484 162.598C49.0164 162.766 49.1004 162.972 49.1004 163.214C49.1004 163.457 49.0164 163.662 48.8484 163.83C48.6897 163.998 48.4937 164.082 48.2604 164.082ZM48.8764 165.328V173H47.6024V165.328H48.8764ZM53.7637 173.126C53.1757 173.126 52.6484 173.028 52.1817 172.832C51.7151 172.627 51.3464 172.347 51.0757 171.992C50.8051 171.628 50.6557 171.213 50.6277 170.746H51.9437C51.9811 171.129 52.1584 171.442 52.4757 171.684C52.8024 171.927 53.2271 172.048 53.7497 172.048C54.2351 172.048 54.6177 171.941 54.8977 171.726C55.1777 171.512 55.3177 171.241 55.3177 170.914C55.3177 170.578 55.1684 170.331 54.8697 170.172C54.5711 170.004 54.1091 169.841 53.4837 169.682C52.9144 169.533 52.4477 169.384 52.0837 169.234C51.7291 169.076 51.4211 168.847 51.1597 168.548C50.9077 168.24 50.7817 167.839 50.7817 167.344C50.7817 166.952 50.8984 166.593 51.1317 166.266C51.3651 165.94 51.6964 165.683 52.1257 165.496C52.5551 165.3 53.0451 165.202 53.5957 165.202C54.4451 165.202 55.1311 165.417 55.6537 165.846C56.1764 166.276 56.4564 166.864 56.4937 167.61H55.2197C55.1917 167.209 55.0284 166.887 54.7297 166.644C54.4404 166.402 54.0484 166.28 53.5537 166.28C53.0964 166.28 52.7324 166.378 52.4617 166.574C52.1911 166.77 52.0557 167.027 52.0557 167.344C52.0557 167.596 52.1351 167.806 52.2937 167.974C52.4617 168.133 52.6671 168.264 52.9097 168.366C53.1617 168.46 53.5071 168.567 53.9457 168.688C54.4964 168.838 54.9444 168.987 55.2897 169.136C55.6351 169.276 55.9291 169.491 56.1717 169.78C56.4237 170.07 56.5544 170.448 56.5637 170.914C56.5637 171.334 56.4471 171.712 56.2137 172.048C55.9804 172.384 55.6491 172.65 55.2197 172.846C54.7997 173.033 54.3144 173.126 53.7637 173.126ZM65.8326 165.188C66.7659 165.188 67.5219 165.473 68.1006 166.042C68.6793 166.602 68.9686 167.414 68.9686 168.478V173H67.7086V168.66C67.7086 167.895 67.5173 167.312 67.1346 166.91C66.7519 166.5 66.2293 166.294 65.5666 166.294C64.8946 166.294 64.3579 166.504 63.9566 166.924C63.5646 167.344 63.3686 167.956 63.3686 168.758V173H62.0946V165.328H63.3686V166.42C63.6206 166.028 63.9613 165.725 64.3906 165.51C64.8293 165.296 65.3099 165.188 65.8326 165.188ZM74.3957 173.126C73.677 173.126 73.0237 172.963 72.4357 172.636C71.857 172.31 71.3997 171.848 71.0637 171.25C70.737 170.644 70.5737 169.944 70.5737 169.15C70.5737 168.366 70.7417 167.676 71.0777 167.078C71.423 166.472 71.8897 166.01 72.4777 165.692C73.0657 165.366 73.7237 165.202 74.4517 165.202C75.1797 165.202 75.8377 165.366 76.4257 165.692C77.0137 166.01 77.4757 166.467 77.8117 167.064C78.157 167.662 78.3297 168.357 78.3297 169.15C78.3297 169.944 78.1523 170.644 77.7977 171.25C77.4523 171.848 76.981 172.31 76.3837 172.636C75.7863 172.963 75.1237 173.126 74.3957 173.126ZM74.3957 172.006C74.853 172.006 75.2823 171.899 75.6837 171.684C76.085 171.47 76.407 171.148 76.6497 170.718C76.9017 170.289 77.0277 169.766 77.0277 169.15C77.0277 168.534 76.9063 168.012 76.6637 167.582C76.421 167.153 76.1037 166.836 75.7117 166.63C75.3197 166.416 74.895 166.308 74.4377 166.308C73.971 166.308 73.5417 166.416 73.1497 166.63C72.767 166.836 72.459 167.153 72.2257 167.582C71.9923 168.012 71.8757 168.534 71.8757 169.15C71.8757 169.776 71.9877 170.303 72.2117 170.732C72.445 171.162 72.753 171.484 73.1357 171.698C73.5183 171.904 73.9383 172.006 74.3957 172.006ZM83.2612 169.136C83.2612 168.352 83.4198 167.666 83.7372 167.078C84.0545 166.481 84.4885 166.019 85.0392 165.692C85.5992 165.366 86.2245 165.202 86.9152 165.202C87.5125 165.202 88.0678 165.342 88.5812 165.622C89.0945 165.893 89.4865 166.252 89.7572 166.7V162.64H91.0452V173H89.7572V171.558C89.5052 172.016 89.1318 172.394 88.6372 172.692C88.1425 172.982 87.5638 173.126 86.9012 173.126C86.2198 173.126 85.5992 172.958 85.0392 172.622C84.4885 172.286 84.0545 171.815 83.7372 171.208C83.4198 170.602 83.2612 169.911 83.2612 169.136ZM89.7572 169.15C89.7572 168.572 89.6405 168.068 89.4072 167.638C89.1738 167.209 88.8565 166.882 88.4552 166.658C88.0632 166.425 87.6292 166.308 87.1532 166.308C86.6772 166.308 86.2432 166.42 85.8512 166.644C85.4592 166.868 85.1465 167.195 84.9132 167.624C84.6798 168.054 84.5632 168.558 84.5632 169.136C84.5632 169.724 84.6798 170.238 84.9132 170.676C85.1465 171.106 85.4592 171.437 85.8512 171.67C86.2432 171.894 86.6772 172.006 87.1532 172.006C87.6292 172.006 88.0632 171.894 88.4552 171.67C88.8565 171.437 89.1738 171.106 89.4072 170.676C89.6405 170.238 89.7572 169.729 89.7572 169.15ZM92.7221 169.136C92.7221 168.352 92.8808 167.666 93.1981 167.078C93.5155 166.481 93.9495 166.019 94.5001 165.692C95.0601 165.366 95.6808 165.202 96.3621 165.202C97.0341 165.202 97.6175 165.347 98.1121 165.636C98.6068 165.926 98.9755 166.29 99.2181 166.728V165.328H100.506V173H99.2181V171.572C98.9661 172.02 98.5881 172.394 98.0841 172.692C97.5895 172.982 97.0108 173.126 96.3481 173.126C95.6668 173.126 95.0508 172.958 94.5001 172.622C93.9495 172.286 93.5155 171.815 93.1981 171.208C92.8808 170.602 92.7221 169.911 92.7221 169.136ZM99.2181 169.15C99.2181 168.572 99.1015 168.068 98.8681 167.638C98.6348 167.209 98.3175 166.882 97.9161 166.658C97.5241 166.425 97.0901 166.308 96.6141 166.308C96.1381 166.308 95.7041 166.42 95.3121 166.644C94.9201 166.868 94.6075 167.195 94.3741 167.624C94.1408 168.054 94.0241 168.558 94.0241 169.136C94.0241 169.724 94.1408 170.238 94.3741 170.676C94.6075 171.106 94.9201 171.437 95.3121 171.67C95.7041 171.894 96.1381 172.006 96.6141 172.006C97.0901 172.006 97.5241 171.894 97.9161 171.67C98.3175 171.437 98.6348 171.106 98.8681 170.676C99.1015 170.238 99.2181 169.729 99.2181 169.15ZM104.213 166.378V170.9C104.213 171.274 104.292 171.54 104.451 171.698C104.61 171.848 104.885 171.922 105.277 171.922H106.215V173H105.067C104.358 173 103.826 172.837 103.471 172.51C103.116 172.184 102.939 171.647 102.939 170.9V166.378H101.945V165.328H102.939V163.396H104.213V165.328H106.215V166.378H104.213ZM107.283 169.136C107.283 168.352 107.441 167.666 107.759 167.078C108.076 166.481 108.51 166.019 109.061 165.692C109.621 165.366 110.241 165.202 110.923 165.202C111.595 165.202 112.178 165.347 112.673 165.636C113.167 165.926 113.536 166.29 113.779 166.728V165.328H115.067V173H113.779V171.572C113.527 172.02 113.149 172.394 112.645 172.692C112.15 172.982 111.571 173.126 110.909 173.126C110.227 173.126 109.611 172.958 109.061 172.622C108.51 172.286 108.076 171.815 107.759 171.208C107.441 170.602 107.283 169.911 107.283 169.136ZM113.779 169.15C113.779 168.572 113.662 168.068 113.429 167.638C113.195 167.209 112.878 166.882 112.477 166.658C112.085 166.425 111.651 166.308 111.175 166.308C110.699 166.308 110.265 166.42 109.873 166.644C109.481 166.868 109.168 167.195 108.935 167.624C108.701 168.054 108.585 168.558 108.585 169.136C108.585 169.724 108.701 170.238 108.935 170.676C109.168 171.106 109.481 171.437 109.873 171.67C110.265 171.894 110.699 172.006 111.175 172.006C111.651 172.006 112.085 171.894 112.477 171.67C112.878 171.437 113.195 171.106 113.429 170.676C113.662 170.238 113.779 169.729 113.779 169.15ZM122.506 166.378V170.9C122.506 171.274 122.585 171.54 122.744 171.698C122.903 171.848 123.178 171.922 123.57 171.922H124.508V173H123.36C122.651 173 122.119 172.837 121.764 172.51C121.409 172.184 121.232 171.647 121.232 170.9V166.378H120.238V165.328H121.232V163.396H122.506V165.328H124.508V166.378H122.506ZM129.398 173.126C128.679 173.126 128.026 172.963 127.438 172.636C126.859 172.31 126.402 171.848 126.066 171.25C125.739 170.644 125.576 169.944 125.576 169.15C125.576 168.366 125.744 167.676 126.08 167.078C126.425 166.472 126.892 166.01 127.48 165.692C128.068 165.366 128.726 165.202 129.454 165.202C130.182 165.202 130.84 165.366 131.428 165.692C132.016 166.01 132.478 166.467 132.814 167.064C133.159 167.662 133.332 168.357 133.332 169.15C133.332 169.944 133.154 170.644 132.8 171.25C132.454 171.848 131.983 172.31 131.386 172.636C130.788 172.963 130.126 173.126 129.398 173.126ZM129.398 172.006C129.855 172.006 130.284 171.899 130.686 171.684C131.087 171.47 131.409 171.148 131.652 170.718C131.904 170.289 132.03 169.766 132.03 169.15C132.03 168.534 131.908 168.012 131.666 167.582C131.423 167.153 131.106 166.836 130.714 166.63C130.322 166.416 129.897 166.308 129.44 166.308C128.973 166.308 128.544 166.416 128.152 166.63C127.769 166.836 127.461 167.153 127.228 167.582C126.994 168.012 126.878 168.534 126.878 169.15C126.878 169.776 126.99 170.303 127.214 170.732C127.447 171.162 127.755 171.484 128.138 171.698C128.52 171.904 128.94 172.006 129.398 172.006ZM141.455 173.126C140.867 173.126 140.34 173.028 139.873 172.832C139.406 172.627 139.038 172.347 138.767 171.992C138.496 171.628 138.347 171.213 138.319 170.746H139.635C139.672 171.129 139.85 171.442 140.167 171.684C140.494 171.927 140.918 172.048 141.441 172.048C141.926 172.048 142.309 171.941 142.589 171.726C142.869 171.512 143.009 171.241 143.009 170.914C143.009 170.578 142.86 170.331 142.561 170.172C142.262 170.004 141.8 169.841 141.175 169.682C140.606 169.533 140.139 169.384 139.775 169.234C139.42 169.076 139.112 168.847 138.851 168.548C138.599 168.24 138.473 167.839 138.473 167.344C138.473 166.952 138.59 166.593 138.823 166.266C139.056 165.94 139.388 165.683 139.817 165.496C140.246 165.3 140.736 165.202 141.287 165.202C142.136 165.202 142.822 165.417 143.345 165.846C143.868 166.276 144.148 166.864 144.185 167.61H142.911C142.883 167.209 142.72 166.887 142.421 166.644C142.132 166.402 141.74 166.28 141.245 166.28C140.788 166.28 140.424 166.378 140.153 166.574C139.882 166.77 139.747 167.027 139.747 167.344C139.747 167.596 139.826 167.806 139.985 167.974C140.153 168.133 140.358 168.264 140.601 168.366C140.853 168.46 141.198 168.567 141.637 168.688C142.188 168.838 142.636 168.987 142.981 169.136C143.326 169.276 143.62 169.491 143.863 169.78C144.115 170.07 144.246 170.448 144.255 170.914C144.255 171.334 144.138 171.712 143.905 172.048C143.672 172.384 143.34 172.65 142.911 172.846C142.491 173.033 142.006 173.126 141.455 173.126ZM149.862 165.188C150.44 165.188 150.963 165.314 151.43 165.566C151.896 165.809 152.26 166.178 152.522 166.672C152.792 167.167 152.928 167.769 152.928 168.478V173H151.668V168.66C151.668 167.895 151.476 167.312 151.094 166.91C150.711 166.5 150.188 166.294 149.526 166.294C148.854 166.294 148.317 166.504 147.916 166.924C147.524 167.344 147.328 167.956 147.328 168.758V173H146.054V162.64H147.328V166.42C147.58 166.028 147.925 165.725 148.364 165.51C148.812 165.296 149.311 165.188 149.862 165.188ZM158.355 173.126C157.636 173.126 156.983 172.963 156.395 172.636C155.816 172.31 155.359 171.848 155.023 171.25C154.696 170.644 154.533 169.944 154.533 169.15C154.533 168.366 154.701 167.676 155.037 167.078C155.382 166.472 155.849 166.01 156.437 165.692C157.025 165.366 157.683 165.202 158.411 165.202C159.139 165.202 159.797 165.366 160.385 165.692C160.973 166.01 161.435 166.467 161.771 167.064C162.116 167.662 162.289 168.357 162.289 169.15C162.289 169.944 162.111 170.644 161.757 171.25C161.411 171.848 160.94 172.31 160.343 172.636C159.745 172.963 159.083 173.126 158.355 173.126ZM158.355 172.006C158.812 172.006 159.241 171.899 159.643 171.684C160.044 171.47 160.366 171.148 160.609 170.718C160.861 170.289 160.987 169.766 160.987 169.15C160.987 168.534 160.865 168.012 160.623 167.582C160.38 167.153 160.063 166.836 159.671 166.63C159.279 166.416 158.854 166.308 158.397 166.308C157.93 166.308 157.501 166.416 157.109 166.63C156.726 166.836 156.418 167.153 156.185 167.582C155.951 168.012 155.835 168.534 155.835 169.15C155.835 169.776 155.947 170.303 156.171 170.732C156.404 171.162 156.712 171.484 157.095 171.698C157.477 171.904 157.897 172.006 158.355 172.006ZM174.184 165.328L171.79 173H170.474L168.626 166.91L166.778 173H165.462L163.054 165.328H164.356L166.12 171.768L168.024 165.328H169.326L171.188 171.782L172.924 165.328H174.184ZM180.455 166.574C180.679 166.136 180.996 165.795 181.407 165.552C181.827 165.31 182.335 165.188 182.933 165.188V166.504H182.597C181.169 166.504 180.455 167.279 180.455 168.828V173H179.181V165.328H180.455V166.574ZM185.061 164.082C184.819 164.082 184.613 163.998 184.445 163.83C184.277 163.662 184.193 163.457 184.193 163.214C184.193 162.972 184.277 162.766 184.445 162.598C184.613 162.43 184.819 162.346 185.061 162.346C185.295 162.346 185.491 162.43 185.649 162.598C185.817 162.766 185.901 162.972 185.901 163.214C185.901 163.457 185.817 163.662 185.649 163.83C185.491 163.998 185.295 164.082 185.061 164.082ZM185.677 165.328V173H184.403V165.328H185.677ZM191.013 165.202C191.675 165.202 192.254 165.347 192.749 165.636C193.253 165.926 193.626 166.29 193.869 166.728V165.328H195.157V173.168C195.157 173.868 195.007 174.489 194.709 175.03C194.41 175.581 193.981 176.01 193.421 176.318C192.87 176.626 192.226 176.78 191.489 176.78C190.481 176.78 189.641 176.542 188.969 176.066C188.297 175.59 187.9 174.942 187.779 174.12H189.039C189.179 174.587 189.468 174.96 189.907 175.24C190.345 175.53 190.873 175.674 191.489 175.674C192.189 175.674 192.758 175.455 193.197 175.016C193.645 174.578 193.869 173.962 193.869 173.168V171.558C193.617 172.006 193.243 172.38 192.749 172.678C192.254 172.977 191.675 173.126 191.013 173.126C190.331 173.126 189.711 172.958 189.151 172.622C188.6 172.286 188.166 171.815 187.849 171.208C187.531 170.602 187.373 169.911 187.373 169.136C187.373 168.352 187.531 167.666 187.849 167.078C188.166 166.481 188.6 166.019 189.151 165.692C189.711 165.366 190.331 165.202 191.013 165.202ZM193.869 169.15C193.869 168.572 193.752 168.068 193.519 167.638C193.285 167.209 192.968 166.882 192.567 166.658C192.175 166.425 191.741 166.308 191.265 166.308C190.789 166.308 190.355 166.42 189.963 166.644C189.571 166.868 189.258 167.195 189.025 167.624C188.791 168.054 188.675 168.558 188.675 169.136C188.675 169.724 188.791 170.238 189.025 170.676C189.258 171.106 189.571 171.437 189.963 171.67C190.355 171.894 190.789 172.006 191.265 172.006C191.741 172.006 192.175 171.894 192.567 171.67C192.968 171.437 193.285 171.106 193.519 170.676C193.752 170.238 193.869 169.729 193.869 169.15ZM201.117 165.188C201.696 165.188 202.219 165.314 202.685 165.566C203.152 165.809 203.516 166.178 203.777 166.672C204.048 167.167 204.183 167.769 204.183 168.478V173H202.923V168.66C202.923 167.895 202.732 167.312 202.349 166.91C201.967 166.5 201.444 166.294 200.781 166.294C200.109 166.294 199.573 166.504 199.171 166.924C198.779 167.344 198.583 167.956 198.583 168.758V173H197.309V162.64H198.583V166.42C198.835 166.028 199.181 165.725 199.619 165.51C200.067 165.296 200.567 165.188 201.117 165.188ZM207.819 166.378V170.9C207.819 171.274 207.898 171.54 208.057 171.698C208.215 171.848 208.491 171.922 208.883 171.922H209.821V173H208.673C207.963 173 207.431 172.837 207.077 172.51C206.722 172.184 206.545 171.647 206.545 170.9V166.378H205.551V165.328H206.545V163.396H207.819V165.328H209.821V166.378H207.819ZM218.835 165.188C219.768 165.188 220.524 165.473 221.103 166.042C221.681 166.602 221.971 167.414 221.971 168.478V173H220.711V168.66C220.711 167.895 220.519 167.312 220.137 166.91C219.754 166.5 219.231 166.294 218.569 166.294C217.897 166.294 217.36 166.504 216.959 166.924C216.567 167.344 216.371 167.956 216.371 168.758V173H215.097V165.328H216.371V166.42C216.623 166.028 216.963 165.725 217.393 165.51C217.831 165.296 218.312 165.188 218.835 165.188ZM227.398 173.126C226.679 173.126 226.026 172.963 225.438 172.636C224.859 172.31 224.402 171.848 224.066 171.25C223.739 170.644 223.576 169.944 223.576 169.15C223.576 168.366 223.744 167.676 224.08 167.078C224.425 166.472 224.892 166.01 225.48 165.692C226.068 165.366 226.726 165.202 227.454 165.202C228.182 165.202 228.84 165.366 229.428 165.692C230.016 166.01 230.478 166.467 230.814 167.064C231.159 167.662 231.332 168.357 231.332 169.15C231.332 169.944 231.154 170.644 230.8 171.25C230.454 171.848 229.983 172.31 229.386 172.636C228.788 172.963 228.126 173.126 227.398 173.126ZM227.398 172.006C227.855 172.006 228.284 171.899 228.686 171.684C229.087 171.47 229.409 171.148 229.652 170.718C229.904 170.289 230.03 169.766 230.03 169.15C230.03 168.534 229.908 168.012 229.666 167.582C229.423 167.153 229.106 166.836 228.714 166.63C228.322 166.416 227.897 166.308 227.44 166.308C226.973 166.308 226.544 166.416 226.152 166.63C225.769 166.836 225.461 167.153 225.228 167.582C224.994 168.012 224.878 168.534 224.878 169.15C224.878 169.776 224.99 170.303 225.214 170.732C225.447 171.162 225.755 171.484 226.138 171.698C226.52 171.904 226.94 172.006 227.398 172.006ZM243.227 165.328L240.833 173H239.517L237.669 166.91L235.821 173H234.505L232.097 165.328H233.399L235.163 171.768L237.067 165.328H238.369L240.231 171.782L241.967 165.328H243.227ZM244.897 173.084C244.654 173.084 244.449 173 244.281 172.832C244.113 172.664 244.029 172.459 244.029 172.216C244.029 171.974 244.113 171.768 244.281 171.6C244.449 171.432 244.654 171.348 244.897 171.348C245.13 171.348 245.326 171.432 245.485 171.6C245.653 171.768 245.737 171.974 245.737 172.216C245.737 172.459 245.653 172.664 245.485 172.832C245.326 173 245.13 173.084 244.897 173.084ZM250.687 168.114C250.687 167.162 250.902 166.308 251.331 165.552C251.76 164.787 252.344 164.19 253.081 163.76C253.828 163.331 254.654 163.116 255.559 163.116C256.623 163.116 257.552 163.373 258.345 163.886C259.138 164.4 259.717 165.128 260.081 166.07H258.555C258.284 165.482 257.892 165.03 257.379 164.712C256.875 164.395 256.268 164.236 255.559 164.236C254.878 164.236 254.266 164.395 253.725 164.712C253.184 165.03 252.759 165.482 252.451 166.07C252.143 166.649 251.989 167.33 251.989 168.114C251.989 168.889 252.143 169.57 252.451 170.158C252.759 170.737 253.184 171.185 253.725 171.502C254.266 171.82 254.878 171.978 255.559 171.978C256.268 171.978 256.875 171.824 257.379 171.516C257.892 171.199 258.284 170.746 258.555 170.158H260.081C259.717 171.092 259.138 171.815 258.345 172.328C257.552 172.832 256.623 173.084 255.559 173.084C254.654 173.084 253.828 172.874 253.081 172.454C252.344 172.025 251.76 171.432 251.331 170.676C250.902 169.92 250.687 169.066 250.687 168.114ZM265.323 173.126C264.605 173.126 263.951 172.963 263.363 172.636C262.785 172.31 262.327 171.848 261.991 171.25C261.665 170.644 261.501 169.944 261.501 169.15C261.501 168.366 261.669 167.676 262.005 167.078C262.351 166.472 262.817 166.01 263.405 165.692C263.993 165.366 264.651 165.202 265.379 165.202C266.107 165.202 266.765 165.366 267.353 165.692C267.941 166.01 268.403 166.467 268.739 167.064C269.085 167.662 269.257 168.357 269.257 169.15C269.257 169.944 269.08 170.644 268.725 171.25C268.38 171.848 267.909 172.31 267.311 172.636C266.714 172.963 266.051 173.126 265.323 173.126ZM265.323 172.006C265.781 172.006 266.21 171.899 266.611 171.684C267.013 171.47 267.335 171.148 267.577 170.718C267.829 170.289 267.955 169.766 267.955 169.15C267.955 168.534 267.834 168.012 267.591 167.582C267.349 167.153 267.031 166.836 266.639 166.63C266.247 166.416 265.823 166.308 265.365 166.308C264.899 166.308 264.469 166.416 264.077 166.63C263.695 166.836 263.387 167.153 263.153 167.582C262.92 168.012 262.803 168.534 262.803 169.15C262.803 169.776 262.915 170.303 263.139 170.732C263.373 171.162 263.681 171.484 264.063 171.698C264.446 171.904 264.866 172.006 265.323 172.006ZM280.158 165.188C280.756 165.188 281.288 165.314 281.754 165.566C282.221 165.809 282.59 166.178 282.86 166.672C283.131 167.167 283.266 167.769 283.266 168.478V173H282.006V168.66C282.006 167.895 281.815 167.312 281.432 166.91C281.059 166.5 280.55 166.294 279.906 166.294C279.244 166.294 278.716 166.509 278.324 166.938C277.932 167.358 277.736 167.97 277.736 168.772V173H276.476V168.66C276.476 167.895 276.285 167.312 275.902 166.91C275.529 166.5 275.02 166.294 274.376 166.294C273.714 166.294 273.186 166.509 272.794 166.938C272.402 167.358 272.206 167.97 272.206 168.772V173H270.932V165.328H272.206V166.434C272.458 166.033 272.794 165.725 273.214 165.51C273.644 165.296 274.115 165.188 274.628 165.188C275.272 165.188 275.842 165.333 276.336 165.622C276.831 165.912 277.2 166.336 277.442 166.896C277.657 166.355 278.012 165.935 278.506 165.636C279.001 165.338 279.552 165.188 280.158 165.188ZM292.356 168.87C292.356 169.113 292.342 169.37 292.314 169.64H286.182C286.229 170.396 286.486 170.989 286.952 171.418C287.428 171.838 288.002 172.048 288.674 172.048C289.225 172.048 289.682 171.922 290.046 171.67C290.42 171.409 290.681 171.064 290.83 170.634H292.202C291.997 171.372 291.586 171.974 290.97 172.44C290.354 172.898 289.589 173.126 288.674 173.126C287.946 173.126 287.293 172.963 286.714 172.636C286.145 172.31 285.697 171.848 285.37 171.25C285.044 170.644 284.88 169.944 284.88 169.15C284.88 168.357 285.039 167.662 285.356 167.064C285.674 166.467 286.117 166.01 286.686 165.692C287.265 165.366 287.928 165.202 288.674 165.202C289.402 165.202 290.046 165.361 290.606 165.678C291.166 165.996 291.596 166.434 291.894 166.994C292.202 167.545 292.356 168.17 292.356 168.87ZM291.04 168.604C291.04 168.119 290.933 167.704 290.718 167.358C290.504 167.004 290.21 166.738 289.836 166.56C289.472 166.374 289.066 166.28 288.618 166.28C287.974 166.28 287.424 166.486 286.966 166.896C286.518 167.307 286.262 167.876 286.196 168.604H291.04ZM299.044 166.756C299.306 166.299 299.688 165.926 300.192 165.636C300.696 165.347 301.27 165.202 301.914 165.202C302.605 165.202 303.226 165.366 303.776 165.692C304.327 166.019 304.761 166.481 305.078 167.078C305.396 167.666 305.554 168.352 305.554 169.136C305.554 169.911 305.396 170.602 305.078 171.208C304.761 171.815 304.322 172.286 303.762 172.622C303.212 172.958 302.596 173.126 301.914 173.126C301.252 173.126 300.668 172.982 300.164 172.692C299.67 172.403 299.296 172.034 299.044 171.586V173H297.77V162.64H299.044V166.756ZM304.252 169.136C304.252 168.558 304.136 168.054 303.902 167.624C303.669 167.195 303.352 166.868 302.95 166.644C302.558 166.42 302.124 166.308 301.648 166.308C301.182 166.308 300.748 166.425 300.346 166.658C299.954 166.882 299.637 167.214 299.394 167.652C299.161 168.082 299.044 168.581 299.044 169.15C299.044 169.729 299.161 170.238 299.394 170.676C299.637 171.106 299.954 171.437 300.346 171.67C300.748 171.894 301.182 172.006 301.648 172.006C302.124 172.006 302.558 171.894 302.95 171.67C303.352 171.437 303.669 171.106 303.902 170.676C304.136 170.238 304.252 169.724 304.252 169.136ZM306.755 169.136C306.755 168.352 306.914 167.666 307.231 167.078C307.549 166.481 307.983 166.019 308.533 165.692C309.093 165.366 309.714 165.202 310.395 165.202C311.067 165.202 311.651 165.347 312.145 165.636C312.64 165.926 313.009 166.29 313.251 166.728V165.328H314.539V173H313.251V171.572C312.999 172.02 312.621 172.394 312.117 172.692C311.623 172.982 311.044 173.126 310.381 173.126C309.7 173.126 309.084 172.958 308.533 172.622C307.983 172.286 307.549 171.815 307.231 171.208C306.914 170.602 306.755 169.911 306.755 169.136ZM313.251 169.15C313.251 168.572 313.135 168.068 312.901 167.638C312.668 167.209 312.351 166.882 311.949 166.658C311.557 166.425 311.123 166.308 310.647 166.308C310.171 166.308 309.737 166.42 309.345 166.644C308.953 166.868 308.641 167.195 308.407 167.624C308.174 168.054 308.057 168.558 308.057 169.136C308.057 169.724 308.174 170.238 308.407 170.676C308.641 171.106 308.953 171.437 309.345 171.67C309.737 171.894 310.171 172.006 310.647 172.006C311.123 172.006 311.557 171.894 311.949 171.67C312.351 171.437 312.668 171.106 312.901 170.676C313.135 170.238 313.251 169.729 313.251 169.15ZM316.216 169.15C316.216 168.357 316.375 167.666 316.692 167.078C317.01 166.481 317.448 166.019 318.008 165.692C318.578 165.366 319.226 165.202 319.954 165.202C320.897 165.202 321.672 165.431 322.278 165.888C322.894 166.346 323.3 166.98 323.496 167.792H322.124C321.994 167.326 321.737 166.957 321.354 166.686C320.981 166.416 320.514 166.28 319.954 166.28C319.226 166.28 318.638 166.532 318.19 167.036C317.742 167.531 317.518 168.236 317.518 169.15C317.518 170.074 317.742 170.788 318.19 171.292C318.638 171.796 319.226 172.048 319.954 172.048C320.514 172.048 320.981 171.918 321.354 171.656C321.728 171.395 321.984 171.022 322.124 170.536H323.496C323.291 171.32 322.88 171.95 322.264 172.426C321.648 172.893 320.878 173.126 319.954 173.126C319.226 173.126 318.578 172.963 318.008 172.636C317.448 172.31 317.01 171.848 316.692 171.25C316.375 170.653 316.216 169.953 316.216 169.15ZM329.48 173L326.47 169.612V173H325.196V162.64H326.47V168.73L329.424 165.328H331.202L327.59 169.15L331.216 173H329.48ZM97.7526 185.082C97.5099 185.082 97.3046 184.998 97.1366 184.83C96.9686 184.662 96.8846 184.457 96.8846 184.214C96.8846 183.972 96.9686 183.766 97.1366 183.598C97.3046 183.43 97.5099 183.346 97.7526 183.346C97.9859 183.346 98.1819 183.43 98.3406 183.598C98.5086 183.766 98.5926 183.972 98.5926 184.214C98.5926 184.457 98.5086 184.662 98.3406 184.83C98.1819 184.998 97.9859 185.082 97.7526 185.082ZM98.3686 186.328V194H97.0946V186.328H98.3686ZM103.662 187.378H102.052V194H100.778V187.378H99.7839V186.328H100.778V185.782C100.778 184.924 100.997 184.298 101.436 183.906C101.884 183.505 102.598 183.304 103.578 183.304V184.368C103.018 184.368 102.621 184.48 102.388 184.704C102.164 184.919 102.052 185.278 102.052 185.782V186.328H103.662V187.378ZM108.404 190.136C108.404 189.352 108.562 188.666 108.88 188.078C109.197 187.481 109.631 187.019 110.182 186.692C110.742 186.366 111.362 186.202 112.044 186.202C112.716 186.202 113.299 186.347 113.794 186.636C114.288 186.926 114.657 187.29 114.9 187.728V186.328H116.188V194H114.9V192.572C114.648 193.02 114.27 193.394 113.766 193.692C113.271 193.982 112.692 194.126 112.03 194.126C111.348 194.126 110.732 193.958 110.182 193.622C109.631 193.286 109.197 192.815 108.88 192.208C108.562 191.602 108.404 190.911 108.404 190.136ZM114.9 190.15C114.9 189.572 114.783 189.068 114.55 188.638C114.316 188.209 113.999 187.882 113.598 187.658C113.206 187.425 112.772 187.308 112.296 187.308C111.82 187.308 111.386 187.42 110.994 187.644C110.602 187.868 110.289 188.195 110.056 188.624C109.822 189.054 109.706 189.558 109.706 190.136C109.706 190.724 109.822 191.238 110.056 191.676C110.289 192.106 110.602 192.437 110.994 192.67C111.386 192.894 111.82 193.006 112.296 193.006C112.772 193.006 113.206 192.894 113.598 192.67C113.999 192.437 114.316 192.106 114.55 191.676C114.783 191.238 114.9 190.729 114.9 190.15ZM122.079 186.188C123.012 186.188 123.768 186.473 124.347 187.042C124.925 187.602 125.215 188.414 125.215 189.478V194H123.955V189.66C123.955 188.895 123.763 188.312 123.381 187.91C122.998 187.5 122.475 187.294 121.813 187.294C121.141 187.294 120.604 187.504 120.203 187.924C119.811 188.344 119.615 188.956 119.615 189.758V194H118.341V186.328H119.615V187.42C119.867 187.028 120.207 186.725 120.637 186.51C121.075 186.296 121.556 186.188 122.079 186.188ZM133.904 186.328L129.284 197.612H127.968L129.48 193.916L126.386 186.328H127.8L130.208 192.544L132.588 186.328H133.904ZM136.738 187.378V191.9C136.738 192.274 136.818 192.54 136.976 192.698C137.135 192.848 137.41 192.922 137.802 192.922H138.74V194H137.592C136.883 194 136.351 193.837 135.996 193.51C135.642 193.184 135.464 192.647 135.464 191.9V187.378H134.47V186.328H135.464V184.396H136.738V186.328H138.74V187.378H136.738ZM144.092 186.188C144.671 186.188 145.193 186.314 145.66 186.566C146.127 186.809 146.491 187.178 146.752 187.672C147.023 188.167 147.158 188.769 147.158 189.478V194H145.898V189.66C145.898 188.895 145.707 188.312 145.324 187.91C144.941 187.5 144.419 187.294 143.756 187.294C143.084 187.294 142.547 187.504 142.146 187.924C141.754 188.344 141.558 188.956 141.558 189.758V194H140.284V183.64H141.558V187.42C141.81 187.028 142.155 186.725 142.594 186.51C143.042 186.296 143.541 186.188 144.092 186.188ZM149.897 185.082C149.654 185.082 149.449 184.998 149.281 184.83C149.113 184.662 149.029 184.457 149.029 184.214C149.029 183.972 149.113 183.766 149.281 183.598C149.449 183.43 149.654 183.346 149.897 183.346C150.13 183.346 150.326 183.43 150.485 183.598C150.653 183.766 150.737 183.972 150.737 184.214C150.737 184.457 150.653 184.662 150.485 184.83C150.326 184.998 150.13 185.082 149.897 185.082ZM150.513 186.328V194H149.239V186.328H150.513ZM156.422 186.188C157.356 186.188 158.112 186.473 158.69 187.042C159.269 187.602 159.558 188.414 159.558 189.478V194H158.298V189.66C158.298 188.895 158.107 188.312 157.724 187.91C157.342 187.5 156.819 187.294 156.156 187.294C155.484 187.294 154.948 187.504 154.546 187.924C154.154 188.344 153.958 188.956 153.958 189.758V194H152.684V186.328H153.958V187.42C154.21 187.028 154.551 186.725 154.98 186.51C155.419 186.296 155.9 186.188 156.422 186.188ZM164.804 186.202C165.466 186.202 166.045 186.347 166.54 186.636C167.044 186.926 167.417 187.29 167.66 187.728V186.328H168.948V194.168C168.948 194.868 168.798 195.489 168.5 196.03C168.201 196.581 167.772 197.01 167.212 197.318C166.661 197.626 166.017 197.78 165.28 197.78C164.272 197.78 163.432 197.542 162.76 197.066C162.088 196.59 161.691 195.942 161.57 195.12H162.83C162.97 195.587 163.259 195.96 163.698 196.24C164.136 196.53 164.664 196.674 165.28 196.674C165.98 196.674 166.549 196.455 166.988 196.016C167.436 195.578 167.66 194.962 167.66 194.168V192.558C167.408 193.006 167.034 193.38 166.54 193.678C166.045 193.977 165.466 194.126 164.804 194.126C164.122 194.126 163.502 193.958 162.942 193.622C162.391 193.286 161.957 192.815 161.64 192.208C161.322 191.602 161.164 190.911 161.164 190.136C161.164 189.352 161.322 188.666 161.64 188.078C161.957 187.481 162.391 187.019 162.942 186.692C163.502 186.366 164.122 186.202 164.804 186.202ZM167.66 190.15C167.66 189.572 167.543 189.068 167.31 188.638C167.076 188.209 166.759 187.882 166.358 187.658C165.966 187.425 165.532 187.308 165.056 187.308C164.58 187.308 164.146 187.42 163.754 187.644C163.362 187.868 163.049 188.195 162.816 188.624C162.582 189.054 162.466 189.558 162.466 190.136C162.466 190.724 162.582 191.238 162.816 191.676C163.049 192.106 163.362 192.437 163.754 192.67C164.146 192.894 164.58 193.006 165.056 193.006C165.532 193.006 165.966 192.894 166.358 192.67C166.759 192.437 167.076 192.106 167.31 191.676C167.543 191.238 167.66 190.729 167.66 190.15ZM178.641 186.188C179.22 186.188 179.742 186.314 180.209 186.566C180.676 186.809 181.04 187.178 181.301 187.672C181.572 188.167 181.707 188.769 181.707 189.478V194H180.447V189.66C180.447 188.895 180.256 188.312 179.873 187.91C179.49 187.5 178.968 187.294 178.305 187.294C177.633 187.294 177.096 187.504 176.695 187.924C176.303 188.344 176.107 188.956 176.107 189.758V194H174.833V183.64H176.107V187.42C176.359 187.028 176.704 186.725 177.143 186.51C177.591 186.296 178.09 186.188 178.641 186.188ZM183.312 190.136C183.312 189.352 183.471 188.666 183.788 188.078C184.105 187.481 184.539 187.019 185.09 186.692C185.65 186.366 186.271 186.202 186.952 186.202C187.624 186.202 188.207 186.347 188.702 186.636C189.197 186.926 189.565 187.29 189.808 187.728V186.328H191.096V194H189.808V192.572C189.556 193.02 189.178 193.394 188.674 193.692C188.179 193.982 187.601 194.126 186.938 194.126C186.257 194.126 185.641 193.958 185.09 193.622C184.539 193.286 184.105 192.815 183.788 192.208C183.471 191.602 183.312 190.911 183.312 190.136ZM189.808 190.15C189.808 189.572 189.691 189.068 189.458 188.638C189.225 188.209 188.907 187.882 188.506 187.658C188.114 187.425 187.68 187.308 187.204 187.308C186.728 187.308 186.294 187.42 185.902 187.644C185.51 187.868 185.197 188.195 184.964 188.624C184.731 189.054 184.614 189.558 184.614 190.136C184.614 190.724 184.731 191.238 184.964 191.676C185.197 192.106 185.51 192.437 185.902 192.67C186.294 192.894 186.728 193.006 187.204 193.006C187.68 193.006 188.114 192.894 188.506 192.67C188.907 192.437 189.225 192.106 189.458 191.676C189.691 191.238 189.808 190.729 189.808 190.15ZM194.523 187.742C194.775 187.304 195.148 186.94 195.643 186.65C196.147 186.352 196.73 186.202 197.393 186.202C198.074 186.202 198.69 186.366 199.241 186.692C199.801 187.019 200.24 187.481 200.557 188.078C200.874 188.666 201.033 189.352 201.033 190.136C201.033 190.911 200.874 191.602 200.557 192.208C200.24 192.815 199.801 193.286 199.241 193.622C198.69 193.958 198.074 194.126 197.393 194.126C196.74 194.126 196.161 193.982 195.657 193.692C195.162 193.394 194.784 193.025 194.523 192.586V197.64H193.249V186.328H194.523V187.742ZM199.731 190.136C199.731 189.558 199.614 189.054 199.381 188.624C199.148 188.195 198.83 187.868 198.429 187.644C198.037 187.42 197.603 187.308 197.127 187.308C196.66 187.308 196.226 187.425 195.825 187.658C195.433 187.882 195.116 188.214 194.873 188.652C194.64 189.082 194.523 189.581 194.523 190.15C194.523 190.729 194.64 191.238 194.873 191.676C195.116 192.106 195.433 192.437 195.825 192.67C196.226 192.894 196.66 193.006 197.127 193.006C197.603 193.006 198.037 192.894 198.429 192.67C198.83 192.437 199.148 192.106 199.381 191.676C199.614 191.238 199.731 190.724 199.731 190.136ZM203.984 187.742C204.236 187.304 204.609 186.94 205.104 186.65C205.608 186.352 206.191 186.202 206.854 186.202C207.535 186.202 208.151 186.366 208.702 186.692C209.262 187.019 209.701 187.481 210.018 188.078C210.335 188.666 210.494 189.352 210.494 190.136C210.494 190.911 210.335 191.602 210.018 192.208C209.701 192.815 209.262 193.286 208.702 193.622C208.151 193.958 207.535 194.126 206.854 194.126C206.201 194.126 205.622 193.982 205.118 193.692C204.623 193.394 204.245 193.025 203.984 192.586V197.64H202.71V186.328H203.984V187.742ZM209.192 190.136C209.192 189.558 209.075 189.054 208.842 188.624C208.609 188.195 208.291 187.868 207.89 187.644C207.498 187.42 207.064 187.308 206.588 187.308C206.121 187.308 205.687 187.425 205.286 187.658C204.894 187.882 204.577 188.214 204.334 188.652C204.101 189.082 203.984 189.581 203.984 190.15C203.984 190.729 204.101 191.238 204.334 191.676C204.577 192.106 204.894 192.437 205.286 192.67C205.687 192.894 206.121 193.006 206.588 193.006C207.064 193.006 207.498 192.894 207.89 192.67C208.291 192.437 208.609 192.106 208.842 191.676C209.075 191.238 209.192 190.724 209.192 190.136ZM219.171 189.87C219.171 190.113 219.157 190.37 219.129 190.64H212.997C213.043 191.396 213.3 191.989 213.767 192.418C214.243 192.838 214.817 193.048 215.489 193.048C216.039 193.048 216.497 192.922 216.861 192.67C217.234 192.409 217.495 192.064 217.645 191.634H219.017C218.811 192.372 218.401 192.974 217.785 193.44C217.169 193.898 216.403 194.126 215.489 194.126C214.761 194.126 214.107 193.963 213.529 193.636C212.959 193.31 212.511 192.848 212.185 192.25C211.858 191.644 211.695 190.944 211.695 190.15C211.695 189.357 211.853 188.662 212.171 188.064C212.488 187.467 212.931 187.01 213.501 186.692C214.079 186.366 214.742 186.202 215.489 186.202C216.217 186.202 216.861 186.361 217.421 186.678C217.981 186.996 218.41 187.434 218.709 187.994C219.017 188.545 219.171 189.17 219.171 189.87ZM217.855 189.604C217.855 189.119 217.747 188.704 217.533 188.358C217.318 188.004 217.024 187.738 216.651 187.56C216.287 187.374 215.881 187.28 215.433 187.28C214.789 187.28 214.238 187.486 213.781 187.896C213.333 188.307 213.076 188.876 213.011 189.604H217.855ZM224.59 186.188C225.524 186.188 226.28 186.473 226.858 187.042C227.437 187.602 227.726 188.414 227.726 189.478V194H226.466V189.66C226.466 188.895 226.275 188.312 225.892 187.91C225.51 187.5 224.987 187.294 224.324 187.294C223.652 187.294 223.116 187.504 222.714 187.924C222.322 188.344 222.126 188.956 222.126 189.758V194H220.852V186.328H222.126V187.42C222.378 187.028 222.719 186.725 223.148 186.51C223.587 186.296 224.068 186.188 224.59 186.188ZM232.523 194.126C231.935 194.126 231.408 194.028 230.941 193.832C230.475 193.627 230.106 193.347 229.835 192.992C229.565 192.628 229.415 192.213 229.387 191.746H230.703C230.741 192.129 230.918 192.442 231.235 192.684C231.562 192.927 231.987 193.048 232.509 193.048C232.995 193.048 233.377 192.941 233.657 192.726C233.937 192.512 234.077 192.241 234.077 191.914C234.077 191.578 233.928 191.331 233.629 191.172C233.331 191.004 232.869 190.841 232.243 190.682C231.674 190.533 231.207 190.384 230.843 190.234C230.489 190.076 230.181 189.847 229.919 189.548C229.667 189.24 229.541 188.839 229.541 188.344C229.541 187.952 229.658 187.593 229.891 187.266C230.125 186.94 230.456 186.683 230.885 186.496C231.315 186.3 231.805 186.202 232.355 186.202C233.205 186.202 233.891 186.417 234.413 186.846C234.936 187.276 235.216 187.864 235.253 188.61H233.979C233.951 188.209 233.788 187.887 233.489 187.644C233.2 187.402 232.808 187.28 232.313 187.28C231.856 187.28 231.492 187.378 231.221 187.574C230.951 187.77 230.815 188.027 230.815 188.344C230.815 188.596 230.895 188.806 231.053 188.974C231.221 189.133 231.427 189.264 231.669 189.366C231.921 189.46 232.267 189.567 232.705 189.688C233.256 189.838 233.704 189.987 234.049 190.136C234.395 190.276 234.689 190.491 234.931 190.78C235.183 191.07 235.314 191.448 235.323 191.914C235.323 192.334 235.207 192.712 234.973 193.048C234.74 193.384 234.409 193.65 233.979 193.846C233.559 194.033 233.074 194.126 232.523 194.126ZM237.528 194.084C237.285 194.084 237.08 194 236.912 193.832C236.744 193.664 236.66 193.459 236.66 193.216C236.66 192.974 236.744 192.768 236.912 192.6C237.08 192.432 237.285 192.348 237.528 192.348C237.761 192.348 237.957 192.432 238.116 192.6C238.284 192.768 238.368 192.974 238.368 193.216C238.368 193.459 238.284 193.664 238.116 193.832C237.957 194 237.761 194.084 237.528 194.084Z" fill="#9397A0"/>
</svg>
