<svg width="145" height="100" viewBox="0 0 145 100" fill="none" xmlns="http://www.w3.org/2000/svg">
<path d="M20.1792 41.3494C-6.56174 62.4623 -0.989749 96.1936 26.4571 97.3008L123.085 96.1935C145.244 84.7044 153.445 38.0733 124.563 10.5381C88.4383 -17.5727 35.3735 27.0112 20.1792 41.3494Z" fill="#019AFF" fill-opacity="0.07"/>
<path d="M85.9237 91.2582C85.5842 91.1639 85.2698 90.9973 85.0023 90.7703C84.7348 90.5433 84.5208 90.2612 84.3753 89.9439L83.1873 78.4669H64.2697L63.0817 89.9439C62.9362 90.2612 62.7222 90.5433 62.4547 90.7703C62.1872 90.9973 61.8728 91.1639 61.5333 91.2582C60.2779 91.6924 53.3438 94.3876 53.3438 94.3876H94.1132C94.1132 94.3876 87.1751 91.6924 85.9237 91.2582Z" fill="#9397A0"/>
<g style="mix-blend-mode:multiply">
<path d="M83.6733 83.1258L83.1942 78.4669H64.2687L63.7896 83.1258H83.6733Z" fill="#DFDFDF"/>
</g>
<path d="M114.686 24.8097H32.779C29.9882 24.8097 27.7258 27.0444 27.7258 29.801V76.0141C27.7258 78.7708 29.9882 81.0055 32.779 81.0055H114.686C117.477 81.0055 119.739 78.7708 119.739 76.0141V29.801C119.739 27.0444 117.477 24.8097 114.686 24.8097Z" fill="#DFDFDF"/>
<path d="M116.697 27.4697H30.7627V72.2198H116.697V27.4697Z" fill="white"/>
<path d="M28.8979 77.1447H21.833L23.1636 93.6717C23.1636 93.9572 25.7298 94.1841 28.8979 94.1841C32.066 94.1841 34.6282 93.9572 34.6282 93.6717L35.9627 77.1447H28.8979Z" fill="#DFDFDF"/>
<path d="M22.0745 83.2979L22.6526 90.4876C22.6526 90.7966 25.4485 91.047 28.8978 91.047C32.347 91.047 35.1429 90.7966 35.1429 90.4876L35.7211 83.2979C34.5924 83.5365 31.9629 83.689 28.8978 83.689C25.8326 83.689 23.215 83.5365 22.0745 83.2979Z" fill="#019AFF"/>
<g style="mix-blend-mode:multiply">
<path d="M24.114 78.6741C24.7041 78.7132 25.3021 78.7797 25.8842 78.8189C26.5337 78.8619 27.1831 78.8854 27.8326 78.8971C29.0721 78.9166 30.3116 78.8736 31.5472 78.7915C32.5531 78.725 33.5669 78.7132 34.5688 78.6037C35.003 78.5587 35.4341 78.4882 35.8598 78.3925L35.9627 77.1564H21.833L21.9399 78.4864C22.6607 78.592 23.3933 78.6233 24.114 78.6741Z" fill="#DFDFDF"/>
</g>
<path d="M35.7882 74.6176H22.0268L21.207 77.6805C21.207 77.9739 24.6563 78.2164 28.9174 78.2164C33.1785 78.2164 36.6278 77.9739 36.6278 77.6805L35.7882 74.6176Z" fill="#019AFF"/>
<path d="M28.8983 75.0988C32.7039 75.0988 35.7889 74.8833 35.7889 74.6176C35.7889 74.3519 32.7039 74.1365 28.8983 74.1365C25.0927 74.1365 22.0077 74.3519 22.0077 74.6176C22.0077 74.8833 25.0927 75.0988 28.8983 75.0988Z" fill="#9397A0"/>
<path d="M137.531 93.6755H9.9281V97.29H137.531V93.6755Z" fill="#DFDFDF"/>
<path d="M43.2175 44.032C47.6608 41.6849 52.0803 39.2636 56.5434 36.9361C61.0064 34.6086 65.513 32.3789 70.0078 30.161L75.5084 27.4658H69.0138C61.6004 31.2289 54.199 35.0233 46.8648 38.9311C41.4553 41.7997 36.088 44.753 30.7629 47.7911V50.365C34.9646 48.3583 39.103 46.2186 43.2175 44.032Z" fill="#F9F9F9"/>
<path d="M115.17 64.1812L116.698 63.3754V50.8031C116.346 51.0026 115.993 51.1943 115.637 51.4055C111.435 53.7134 80.2532 69.5168 75.4179 72.165L75.3149 72.2237H99.9509C104.996 69.4816 110.089 66.849 115.17 64.1812Z" fill="#F9F9F9"/>
</svg>
